<?xml version="1.0" encoding="utf-8"?>
<!-- Generator: Adobe Illustrator 19.0.1, SVG Export Plug-In . SVG Version: 6.00 Build 0)  -->
<svg version="1.1" id="Layer_1" xmlns="http://www.w3.org/2000/svg" xmlns:xlink="http://www.w3.org/1999/xlink" x="0px" y="0px"
	 viewBox="0 0 20 20" style="enable-background:new 0 0 20 20;" xml:space="preserve">
<style type="text/css">
	.st0{fill:none;}
</style>
<g>
	<rect class="st0" width="20" height="20"/>
	<path d="M9.9996033,7.9958849c1.2130737,0,2.2000122,0.9869156,2.2000122,2.1999969s-0.9869385,2.1999969-2.2000122,2.1999969
		s-2.2000122-0.9869156-2.2000122-2.1999969S8.7865295,7.9958849,9.9996033,7.9958849 M9.9996033,7.1958818
		c-1.6568298,0-3,1.3431473-3,3s1.3431702,3,3,3c1.6568604,0,3-1.3431473,3-3S11.6564636,7.1958818,9.9996033,7.1958818
		L9.9996033,7.1958818z"/>
	<path d="M12.5836182,4.6999969l1.4732361,1.6100693l0.356781,0.3899307h0.5285339h2.3578186v8.1521606H2.7000122V6.6999969
		h2.3566589h0.5285339l0.356781-0.3899307l1.4732361-1.6100693H12.5836182 M12.6717224,3.5H7.3271179
		c-0.2806396,0-0.5483398,0.117897-0.7377625,0.3249359L5.0566711,5.5H2.5c-0.5522766,0-1,0.4477081-1,1v8.5521545
		c0,0.5522842,0.4477234,1,1,1h15c0.5522766,0,1-0.4477158,1-1V6.5c0-0.5522919-0.4477234-1-1-1h-2.5578308l-1.5326843-1.6750641
		C13.2200623,3.617897,12.9523621,3.5,12.6717224,3.5L12.6717224,3.5z"/>
</g>
</svg>
