<?xml version="1.0" encoding="utf-8"?>
<!-- Generator: Adobe Illustrator 19.0.1, SVG Export Plug-In . SVG Version: 6.00 Build 0)  -->
<svg version="1.1" id="Layer_1" xmlns="http://www.w3.org/2000/svg" xmlns:xlink="http://www.w3.org/1999/xlink" x="0px" y="0px"
	 viewBox="0 0 20 20" style="enable-background:new 0 0 20 20;" xml:space="preserve">
<style type="text/css">
	.st0{fill:none;}
</style>
<g>
	<rect class="st0" width="20" height="20"/>
	<g>
		<path d="M3.5781312,4.4001136c0.1367188,0,0.2724609,0.046875,0.3818359,0.1376953l6.0527339,4.9999995
			c0.1386719,0.1137695,0.2177734,0.2832031,0.2177734,0.4624023s-0.0791016,0.3486328-0.2177734,0.4624023l-6.0527339,5
			c-0.1787109,0.1479492-0.4267578,0.1787109-0.6376953,0.0805664c-0.2099609-0.0991211-0.34375-0.3105469-0.34375-0.5429688v-10
			c0-0.2324219,0.1337891-0.4438477,0.34375-0.5429688C3.4043031,4.4191566,3.4912171,4.4001136,3.5781312,4.4001136z
			 M8.6884823,10.0002108L4.1777406,6.274137v7.452148L8.6884823,10.0002108z"/>
		<path d="M11.847662,4.4001131c0.1367188,0,0.2724609,0.046875,0.3818359,0.1376953l6.0527344,5
			c0.1386719,0.1137695,0.2177734,0.2832031,0.2177734,0.4624023s-0.0791016,0.3486328-0.2177734,0.4624023l-6.0527344,5
			c-0.1787109,0.1479492-0.4267578,0.1787109-0.6376953,0.0805664c-0.2099609-0.0991211-0.34375-0.3105469-0.34375-0.5429688v-10
			c0-0.2324219,0.1337891-0.4438477,0.34375-0.5429688C11.6738338,4.4191561,11.7607479,4.4001131,11.847662,4.4001131z
			 M16.9580135,10.0002108l-4.5107422-3.7260742v7.4521484L16.9580135,10.0002108z"/>
	</g>
</g>
</svg>
