<?xml version="1.0" encoding="utf-8"?>
<!-- Generator: Adobe Illustrator 19.0.1, SVG Export Plug-In . SVG Version: 6.00 Build 0)  -->
<svg version="1.1" id="Layer_1" xmlns="http://www.w3.org/2000/svg" xmlns:xlink="http://www.w3.org/1999/xlink" x="0px" y="0px"
	 viewBox="0 0 20 20" style="enable-background:new 0 0 20 20;" xml:space="preserve">
<style type="text/css">
	.st0{fill:none;}
</style>
<g>
	<rect class="st0" width="20" height="20"/>
	<g>
		<path d="M16.5,2.5023804h-13c-0.5523071,0-1,0.4476929-1,1v13c0,0.5522461,0.4476929,1,1,1h13c0.5523071,0,1-0.4477539,1-1v-13
			C17.5,2.9500732,17.0523071,2.5023804,16.5,2.5023804z M16.2999878,16.3023682H3.700012v-3.2161865l3.0805666-3.0814209
			l4.4150391,4.4140625l2.2070312-2.2070312l2.8973389,2.8973389V16.3023682z M16.2999878,13.9775391l-2.8973389-2.8966064
			l-2.2070312,2.2070312L6.7805786,8.8729248L3.700012,11.9542236V3.7023926h12.5999756V13.9775391z"/>
		<path d="M12.5090942,9.7554932c1.3807373,0,2.5-1.1193237,2.5-2.5c0-1.3807373-1.1192627-2.5-2.5-2.5
			c-1.3806763,0-2.5,1.1192627-2.5,2.5C10.0090942,8.6361694,11.128418,9.7554932,12.5090942,9.7554932z M12.5090942,5.555481
			c0.9373779,0,1.7000122,0.7626343,1.7000122,1.7000122s-0.7626343,1.7000122-1.7000122,1.7000122
			S10.809082,8.1928711,10.809082,7.2554932S11.5717163,5.555481,12.5090942,5.555481z"/>
	</g>
</g>
</svg>
