<?xml version="1.0" encoding="utf-8"?>
<!-- Generator: Adobe Illustrator 19.0.1, SVG Export Plug-In . SVG Version: 6.00 Build 0)  -->
<svg version="1.1" id="Layer_1" xmlns="http://www.w3.org/2000/svg" xmlns:xlink="http://www.w3.org/1999/xlink" x="0px" y="0px"
	 viewBox="0 0 20 20" style="enable-background:new 0 0 20 20;" xml:space="preserve">
<style type="text/css">
	.st0{fill:none;}
</style>
<g>
	<rect class="st0" width="20" height="20"/>
	<polygon points="12.5007448,13.3989258 9.4372683,10.456543 9.4372683,5.0703125 10.636487,5.0703125 10.636487,9.9448242 
		13.3327761,12.5336914 	"/>
	<g>
		<polygon points="5.2740602,9.5184326 5.2592287,9.5184326 5.268445,9.5256348 		"/>
		<path d="M10.4138308,1.8999023c-4.3041992,0-7.8240356,3.376709-8.0752563,7.6185303H0.5865601l2.3363037,2.9904785
			l2.336365-2.9904785H3.537854c0.2490234-3.5799561,3.2338259-6.418335,6.8759766-6.418335
			c3.8046875,0,6.9003897,3.0952148,6.9003897,6.8999023s-3.0957022,6.8999023-6.9003897,6.8999023
			c-1.4891357,0-2.9093628-0.4815063-4.0819092-1.3441772l-0.7390137,0.9459229
			c1.381897,1.0262451,3.0604858,1.5984497,4.8209229,1.5984497c4.4667969,0,8.0996084-3.6337891,8.0996084-8.1000977
			S14.8806276,1.8999023,10.4138308,1.8999023z"/>
	</g>
</g>
</svg>
