<?xml version="1.0" encoding="utf-8"?>
<!-- Generator: Adobe Illustrator 19.0.1, SVG Export Plug-In . SVG Version: 6.00 Build 0)  -->
<svg version="1.1" id="Layer_1" xmlns="http://www.w3.org/2000/svg" xmlns:xlink="http://www.w3.org/1999/xlink" x="0px" y="0px"
	 viewBox="0 0 20 20" style="enable-background:new 0 0 20 20;" xml:space="preserve">
<style type="text/css">
	.st0{fill:none;}
</style>
<g>
	<rect x="-0.0000004" class="st0" width="20" height="20"/>
	<g>
		<path d="M17.2999878,4.9518738v10.0962524H2.7000117V4.9518738H17.2999878 M17.5,3.7518768h-15
			c-0.552246,0-0.9999999,0.4476929-0.9999999,1v10.4962463c0,0.5522461,0.4477539,1,0.9999999,1h15c0.5522461,0,1-0.4477539,1-1
			V4.7518768C18.5,4.1995697,18.0522461,3.7518768,17.5,3.7518768L17.5,3.7518768z"/>
		<path d="M8.3634796,13.3034477c0.0656128,0,0.1328735-0.0177612,0.1954346-0.0568848l4.8570557-3.0356445
			c0.2321167-0.1450806,0.2321167-0.4830933,0-0.6281738L8.5589142,6.5471001
			c-0.062561-0.0391235-0.1298218-0.0568848-0.1954346-0.0568848c-0.1929932,0-0.3712168,0.1538086-0.3712168,0.3709717v6.0712891
			C7.9922628,13.1495781,8.1704865,13.3034477,8.3634796,13.3034477z M8.7922516,7.6362724l3.6168213,2.2605591l-3.6168213,2.260498
			V7.6362724z"/>
	</g>
</g>
</svg>
