<?xml version="1.0" encoding="utf-8"?>
<!-- Generator: Adobe Illustrator 19.0.1, SVG Export Plug-In . SVG Version: 6.00 Build 0)  -->
<svg version="1.1" id="Layer_1" xmlns="http://www.w3.org/2000/svg" xmlns:xlink="http://www.w3.org/1999/xlink" x="0px" y="0px"
	 viewBox="0 0 20 20" style="enable-background:new 0 0 20 20;" xml:space="preserve">
<style type="text/css">
	.st0{fill:none;}
</style>
<g>
	<rect class="st0" width="20" height="20"/>
	<g>
		<path d="M8.7510986,7.739502L12.3679199,10l-3.6168213,2.2605133V7.739502 M8.3222961,6.5933685
			c-0.1929626,0-0.3711853,0.1538544-0.3711853,0.3709869v6.0712891c0,0.2171173,0.1782227,0.3709869,0.3711853,0.3709869
			c0.0656128,0,0.1329041-0.0177765,0.1954956-0.0569l4.8570251-3.0356445c0.2321167-0.1450653,0.2321167-0.4831085,0-0.6281738
			L8.5177917,6.6502686C8.4552002,6.6111603,8.3879089,6.5933685,8.3222961,6.5933685L8.3222961,6.5933685z"/>
		<path d="M10,2.6999969c4.025238,0,7.2999878,3.2747803,7.2999878,7.3000031S14.025238,17.3000031,10,17.3000031
			S2.7000122,14.0252228,2.7000122,10S5.974762,2.6999969,10,2.6999969 M10,1.5c-4.6944275,0-8.5,3.8055725-8.5,8.5
			s3.8055725,8.5,8.5,8.5c4.694397,0,8.5-3.8055725,8.5-8.5S14.694397,1.5,10,1.5L10,1.5z"/>
	</g>
</g>
</svg>
