<?xml version="1.0" encoding="utf-8"?>
<!-- Generator: Adobe Illustrator 19.0.1, SVG Export Plug-In . SVG Version: 6.00 Build 0)  -->
<svg version="1.1" id="Layer_1" xmlns="http://www.w3.org/2000/svg" xmlns:xlink="http://www.w3.org/1999/xlink" x="0px" y="0px"
	 viewBox="0 0 20 20" style="enable-background:new 0 0 20 20;" xml:space="preserve">
<style type="text/css">
	.st0{fill:none;}
</style>
<g>
	<rect class="st0" width="20" height="20"/>
	<g>
		<path d="M16.4218807,15.599678c-0.1367188,0-0.2724609-0.046875-0.3818359-0.1376953l-6.0527344-5
			C9.8486385,10.3482132,9.769537,10.1787796,9.769537,9.9995804S9.8486385,9.6509476,9.9873104,9.537178l6.0527344-5.0000005
			c0.1787109-0.1479492,0.4267578-0.1787109,0.6376953-0.0805664c0.2099609,0.0991211,0.34375,0.3105469,0.34375,0.5429688v10
			c0,0.2324219-0.1337891,0.4438477-0.34375,0.5429688C16.5957088,15.5806351,16.5087948,15.599678,16.4218807,15.599678z
			 M11.3115292,9.9995804l4.5107422,3.7260742V6.2735057L11.3115292,9.9995804z"/>
		<path d="M8.1523495,15.599678c-0.1367188,0-0.2724605-0.046875-0.3818355-0.1376953l-6.0527344-5
			c-0.1386719-0.1137695-0.2177734-0.2832031-0.2177734-0.4624023S1.5791078,9.6509476,1.7177796,9.537178L7.770514,4.5371776
			c0.1787109-0.1479492,0.4267573-0.1787109,0.6376948-0.0805664c0.2099609,0.0991211,0.34375,0.3105469,0.34375,0.5429688v10
			c0,0.2324219-0.1337891,0.4438477-0.34375,0.5429688C8.3261776,15.5806351,8.2392635,15.599678,8.1523495,15.599678z
			 M3.0419984,9.9995804l4.5107422,3.7260742V6.2735057L3.0419984,9.9995804z"/>
	</g>
</g>
</svg>
