<?xml version="1.0" encoding="utf-8"?>
<!-- Generator: Adobe Illustrator 19.0.1, SVG Export Plug-In . SVG Version: 6.00 Build 0)  -->
<svg version="1.1" id="Layer_1" xmlns="http://www.w3.org/2000/svg" xmlns:xlink="http://www.w3.org/1999/xlink" x="0px" y="0px"
	 viewBox="0 0 20 20" style="enable-background:new 0 0 20 20;" xml:space="preserve">
<style type="text/css">
	.st0{fill:none;}
</style>
<g>
	<rect class="st0" width="20" height="20"/>
	<g>
		<path d="M13.0467224,7.3032227c0.4521484-0.4536133,1.0546875-0.703125,1.6962891-0.703125h0.7571411V8.34375l3-2.34375
			l-3-2.34375v1.7436523h-0.7571411c-0.9619141,0-1.8662109,0.3745117-2.5449219,1.0546875l-1.6220703,1.6210938
			l0.8476562,0.8486328L13.0467224,7.3032227z"/>
		<path d="M5.953949,12.6967773c-0.4521484,0.4536133-1.0546875,0.703125-1.6962891,0.703125H1.4998472v1.2001953h2.7578127
			c0.9619141,0,1.8662109-0.3745117,2.5449219-1.0546875l1.6210938-1.6210938l-0.8476562-0.8486328L5.953949,12.6967773z"/>
		<path d="M15.5001526,13.3999023h-0.7571411c-0.6416016,0-1.2441406-0.2495117-1.6972656-0.703125L6.8035583,6.4545898
			C6.1238708,5.7744141,5.219574,5.3999023,4.2576599,5.3999023H1.4998472v1.2001953h2.7578127
			c0.6416016,0,1.2441406,0.2495117,1.6972656,0.703125l6.2421875,6.2421875
			c0.6796875,0.6801758,1.5839844,1.0546875,2.5458984,1.0546875h0.7571411V16.34375l3-2.34375l-3-2.34375V13.3999023z"/>
	</g>
</g>
</svg>
