<?xml version="1.0" encoding="utf-8"?>
<!-- Generator: Adobe Illustrator 19.0.1, SVG Export Plug-In . SVG Version: 6.00 Build 0)  -->
<svg version="1.1" id="Layer_1" xmlns="http://www.w3.org/2000/svg" xmlns:xlink="http://www.w3.org/1999/xlink" x="0px" y="0px"
	 viewBox="0 0 20 20" style="enable-background:new 0 0 20 20;" xml:space="preserve">
<style type="text/css">
	.st0{fill:none;}
</style>
<g>
	<rect class="st0" width="20" height="20"/>
	<path d="M9.8184204,5.4512177v9.1128845l-3.0292969-2.5381851c-0.2160339-0.1809998-0.4888611-0.2801895-0.7706909-0.2801895
		H3.2184448V8.3369904h2.7999878c0.2871704,0,0.5648193-0.1029816,0.7825317-0.2902527L9.8184204,5.4512177 M10.0155945,4.00383
		c-0.1859741,0.0000153-0.3768005,0.0529175-0.5518494,0.169632L6.0184326,7.1369858h-4v5.8087463h4l3.4551392,2.8949661
		c0.1727295,0.1122437,0.3597717,0.1631317,0.5422668,0.1631317c0.5203247,0,1.002594-0.4142685,1.002594-1.0016479V5.0055084
		C11.0184326,4.4172134,10.5355835,4.0037766,10.0155945,4.00383L10.0155945,4.00383z"/>
	<g>
		<path d="M14.9649658,15.6669159c-0.1748047,0-0.3476562-0.0761719-0.4667969-0.2226562
			c-0.2080078-0.2578125-0.1679688-0.6357422,0.0898438-0.8442383c1.3945312-1.1269531,2.1943264-2.8007812,2.1943264-4.5908203
			c0-1.7958984-0.804678-3.4731445-2.2070217-4.6005859c-0.2578125-0.2080078-0.2988281-0.5854492-0.0917969-0.84375
			c0.2099609-0.2597656,0.5869141-0.2978516,0.84375-0.0917969c1.6875,1.3569336,2.6542969,3.3745117,2.6542969,5.5361328
			c0,2.1542969-0.9619141,4.1679688-2.6396484,5.5244141C15.2315674,15.6229706,15.0977783,15.6669159,14.9649658,15.6669159z"/>
		<path d="M12.8839111,13.5336151c-0.1953125,0-0.3867188-0.0947266-0.5019531-0.2700195
			c-0.1826172-0.2768555-0.1054688-0.6489258,0.1708984-0.8310547c0.8183594-0.5390625,1.3066406-1.4448242,1.3066406-2.4233398
			c0-0.9814453-0.4912109-1.8891602-1.3144531-2.4282227c-0.2773438-0.1816406-0.3544922-0.5537109-0.1728516-0.8310547
			c0.1816406-0.2753906,0.5517578-0.3549805,0.8310547-0.1728516c1.1621094,0.762207,1.8554688,2.0449219,1.8554688,3.4321289
			c0,1.3833008-0.6894531,2.6635742-1.8457031,3.425293C13.1114502,13.5013885,12.9971924,13.5336151,12.8839111,13.5336151z"/>
	</g>
</g>
</svg>
