<?xml version="1.0" encoding="utf-8"?>
<!-- Generator: Adobe Illustrator 19.0.1, SVG Export Plug-In . SVG Version: 6.00 Build 0)  -->
<svg version="1.1" id="Layer_1" xmlns="http://www.w3.org/2000/svg" xmlns:xlink="http://www.w3.org/1999/xlink" x="0px" y="0px"
	 viewBox="0 0 20 20" style="enable-background:new 0 0 20 20;" xml:space="preserve">
<style type="text/css">
	.st0{fill:none;}
</style>
<g>
	<g>
		<rect x="0.0000009" class="st0" width="20" height="20"/>
	</g>
	<g>
		
			<rect x="2.7778955" y="1.3412908" transform="matrix(-0.7071068 -0.7071068 0.7071068 -0.7071068 3.3169699 8.2991304)" width="1.1987916" height="4.2426152"/>
		
			<rect x="14.4170246" y="2.8680503" transform="matrix(-0.7071068 -0.7071068 0.7071068 -0.7071068 25.7808456 17.6136684)" width="4.2426152" height="1.1987916"/>
		<g>
			<path d="M9.9521542,3.7456179c3.7539673,0,6.8079834,3.050415,6.8079834,6.7999878
				c0,3.7495117-3.0540161,6.7999887-6.8079834,6.7999887c-3.7451177,0-6.7919927-3.050477-6.7919927-6.7999887
				C3.1601615,6.7960329,6.2070365,3.7456179,9.9521542,3.7456179 M9.9521542,2.5456057
				c-4.4160161,0-7.9920049,3.5839844-7.9920049,8c0,4.4159546,3.5759888,8.000001,7.9920049,8.000001
				c4.4240112,0,8.0079956-3.5840464,8.0079956-8.000001C17.9601498,6.12959,14.3761654,2.5456057,9.9521542,2.5456057
				L9.9521542,2.5456057z"/>
		</g>
		<polygon points="12.3402157,14.25459 9.2777157,11.3122072 9.2777157,5.9254885 10.4769344,5.9254885 10.4769344,10.8004885 
			13.1722469,13.3893557 		"/>
	</g>
</g>
</svg>
