<?xml version="1.0" encoding="utf-8"?>
<!-- Generator: Adobe Illustrator 19.0.1, SVG Export Plug-In . SVG Version: 6.00 Build 0)  -->
<svg version="1.1" id="Layer_1" xmlns="http://www.w3.org/2000/svg" xmlns:xlink="http://www.w3.org/1999/xlink" x="0px" y="0px"
	 viewBox="0 0 20 20" style="enable-background:new 0 0 20 20;" xml:space="preserve">
<style type="text/css">
	.st0{fill:none;}
</style>
<g>
	<g>
		<rect x="0.0000009" class="st0" width="20" height="20"/>
	</g>
	<g>
		<g>
			<path d="M17,2.9974976h-2.5009766V1.5h-1.5v1.4974976H7.0009155V1.5h-1.5v1.4974976H3c-0.5523071,0-1,0.4476929-1,1v13
				c0,0.5522461,0.4476929,1,1,1h14c0.5522461,0,1-0.4477539,1-1v-13C18,3.4451904,17.5522461,2.9974976,17,2.9974976z
				 M16.7999878,16.7974854H3.1999512v-9.77771h13.6000366V16.7974854z M16.7999878,6.2189941H3.1999512V4.1975098h13.6000366
				V6.2189941z"/>
		</g>
		<polygon points="12.0672607,14.78302 13.1929932,14.78302 13.1929932,8.8267822 11.4958496,8.8267822 10.8407593,9.8913574 
			12.0672607,9.8913574 		"/>
		<path d="M7.5212402,10.2962646H6.432373c0,0,0.1627808-1.619751,1.8384399-1.619751s1.7250366,1.3974609,1.7250366,1.571167
			c0,0.1304932-0.006897,0.9039917-0.8458862,1.2553101c0,0,1.1671143,0.2449951,1.1536255,1.5145264
			c-0.0134888,1.2694702-1.1364136,1.9107666-1.9355469,1.9107666s-2.0114746-0.2011108-2.1750488-1.9467773h1.1221313
			c0,0-0.0280762,0.9143677,0.9511719,0.9106445s0.9196777-0.8782349,0.9196777-0.8782349s0.1030273-0.9215698-1.3687134-0.9718628
			v-0.9718628c0,0,0.9934082,0.055603,1.0321655-0.7415161c0,0,0.0633545-0.5623779-0.6155396-0.5623779
			C8.2338867,9.7662964,7.7211304,9.7277832,7.5212402,10.2962646z"/>
	</g>
</g>
</svg>
