<?xml version="1.0" encoding="utf-8"?>
<!-- Generator: Adobe Illustrator 19.0.1, SVG Export Plug-In . SVG Version: 6.00 Build 0)  -->
<svg version="1.1" id="Layer_1" xmlns="http://www.w3.org/2000/svg" xmlns:xlink="http://www.w3.org/1999/xlink" x="0px" y="0px"
	 viewBox="0 0 20 20" style="enable-background:new 0 0 20 20;" xml:space="preserve">
<style type="text/css">
	.st0{fill:none;}
</style>
<g>
	<g>
		<path d="M17,4.0015259h-3.3948975V3.0996094C13.6051025,2.4931641,13.1119385,2,12.5054932,2h-5
			C6.8990479,2,6.4058838,2.4931641,6.4058838,3.0996094v0.9019165H3v1.2000122h1.505249v11.8724976
			C4.5435181,17.5961914,4.9730835,18,5.4902344,18h9.0300903c0.5170898,0,0.9466553-0.4038086,0.9849243-0.9259644
			L15.4904785,5.2015381H17V4.0015259z M5.7052612,16.7999878V5.2172241h8.5852051l0.0144653,11.5827637H5.7052612z
			 M7.6051025,3.1992188h4.8007812v0.8023071H7.6051025V3.1992188z"/>
		<rect x="7.8551025" y="7.5632935" width="0.8007812" height="7"/>
		<rect x="11.3551025" y="7.5632935" width="0.8007812" height="7"/>
	</g>
	<g>
		<rect class="st0" width="20" height="20"/>
	</g>
</g>
</svg>
