<?xml version="1.0" encoding="utf-8"?>
<!-- Generator: Adobe Illustrator 19.0.1, SVG Export Plug-In . SVG Version: 6.00 Build 0)  -->
<svg version="1.1" id="Layer_1" xmlns="http://www.w3.org/2000/svg" xmlns:xlink="http://www.w3.org/1999/xlink" x="0px" y="0px"
	 viewBox="0 0 20 20" style="enable-background:new 0 0 20 20;" xml:space="preserve">
<style type="text/css">
	.st0{fill:none;}
</style>
<g>
	<g>
		<rect class="st0" width="20" height="20"/>
	</g>
	<path d="M10,17.9750977c-0.1601562,0-0.3134766-0.0634766-0.4257812-0.1767578
		c-0.9355469-0.9414062-1.8183594-1.7900391-2.6308594-2.5703125c-3.2626953-3.1357422-5.4179688-5.2080078-5.4179688-7.9150391
		c0-2.5869141,1.9501953-4.5371094,4.5371094-4.5371094c1.5341797,0,3.0429688,0.7988281,3.9375,2.0009766
		c0.8935547-1.203125,2.4023438-2.0009766,3.9375-2.0009766c2.5869141,0,4.5371094,1.9501953,4.5371094,4.5371094
		c0,2.7060547-2.1542969,4.7773438-5.4160156,7.9121094c-0.8125,0.78125-1.6962891,1.6308594-2.6328125,2.5732422
		C10.3134766,17.9116211,10.1601562,17.9750977,10,17.9750977z M6.0625,3.9750977
		c-1.9023438,0-3.3378906,1.4355469-3.3378906,3.3378906c0,2.1962891,2.0097656,4.1269531,5.0507812,7.0498047
		C8.4697266,15.0297852,9.2148438,15.7456055,10,16.5268555c0.7861328-0.7822266,1.5322266-1.4990234,2.2275391-2.1669922
		c3.0390625-2.921875,5.0478516-4.8515625,5.0478516-7.046875c0-1.9023438-1.4355469-3.3378906-3.3378906-3.3378906
		c-1.4550781,0-2.8759766,0.9433594-3.3779297,2.2421875c-0.1777344,0.4609375-0.9394531,0.4628906-1.1191406,0
		C8.9375,4.918457,7.5166016,3.9750977,6.0625,3.9750977z"/>
</g>
</svg>
