<?xml version="1.0" encoding="utf-8"?>
<!-- Generator: Adobe Illustrator 19.0.1, SVG Export Plug-In . SVG Version: 6.00 Build 0)  -->
<svg version="1.1" id="Layer_1" xmlns="http://www.w3.org/2000/svg" xmlns:xlink="http://www.w3.org/1999/xlink" x="0px" y="0px"
	 viewBox="-949 531 20 20" style="enable-background:new -949 531 20 20;" xml:space="preserve">
<style type="text/css">
	.st0{fill:none;}
</style>
<g>
	<g>
		<rect x="-949" y="531" class="st0" width="20" height="20"/>
	</g>
</g>
<path d="M-939,533.5546265l6.3480225,5.380127v8.8513184v0.0045776h-3.3189087v-5.2452393h-6.0807495v5.2406616h-3.2963867
	v-8.8513184L-939,533.5546265 M-939,532.3546143c-0.276001,0-0.552002,0.0948486-0.7758789,0.2845459l-6.3480225,5.380188
	c-0.2689819,0.2279663-0.4241333,0.5627441-0.4241333,0.9154053v9.0513306c0,0.5522461,0.4477539,1,1,1h3.6964111
	c0.5522461,0,1-0.4477539,1-1v-4.2406616h3.6807251v4.2452393c0,0.5522461,0.4477539,1,1,1h3.7189331c0.5522461,0,1-0.4477539,1-1
	v-9.0559082c0-0.3526611-0.1551514-0.687439-0.4241333-0.9154053l-6.3480225-5.380188
	C-938.447998,532.4494629-938.723999,532.3546143-939,532.3546143L-939,532.3546143z"/>
</svg>
