<?xml version="1.0" encoding="utf-8"?>
<!-- Generator: Adobe Illustrator 19.0.1, SVG Export Plug-In . SVG Version: 6.00 Build 0)  -->
<svg version="1.1" id="Layer_1" xmlns="http://www.w3.org/2000/svg" xmlns:xlink="http://www.w3.org/1999/xlink" x="0px" y="0px"
	 viewBox="0 0 20 20" style="enable-background:new 0 0 20 20;" xml:space="preserve">
<style type="text/css">
	.st0{fill:none;}
</style>
<g>
	<rect class="st0" width="20" height="20"/>
</g>
<g>
	<path d="M16,8.001709h-1.9070435h-0.098999V5.500061c0-2.2091675-1.7908325-4-4-4c-2.2091064,0-4,1.7908325-4,4V8.001709H5.8947144
		H4c-0.5523071,0-1,0.4476929-1,1v8c0,0.5523071,0.4476929,1,1,1h12c0.5523071,0,1-0.4476929,1-1v-8
		C17,8.4494019,16.5523071,8.001709,16,8.001709z M9.9939575,2.7000732c1.5439453,0,2.7999878,1.2560425,2.7999878,2.7999878
		V8.001709H7.1939697V5.500061C7.1939697,3.9561157,8.4500732,2.7000732,9.9939575,2.7000732z M15.7999878,16.8016968H4.2000122
		V9.2017212h11.5999756V16.8016968z"/>
	<path d="M9.4005737,13.2182007v1.7796021h1.1992188v-1.7798462c0.352356-0.2091064,0.6002197-0.5767822,0.6002197-1.0162354
		c0-0.6627197-0.5372925-1.1999512-1.2000122-1.1999512s-1.2000122,0.5372314-1.2000122,1.1999512
		C8.7999878,12.6412964,9.0480347,13.0092163,9.4005737,13.2182007z"/>
</g>
</svg>
