<?xml version="1.0" encoding="utf-8"?>
<!-- Generator: Adobe Illustrator 19.0.1, SVG Export Plug-In . SVG Version: 6.00 Build 0)  -->
<svg version="1.1" id="Layer_1" xmlns="http://www.w3.org/2000/svg" xmlns:xlink="http://www.w3.org/1999/xlink" x="0px" y="0px"
	 viewBox="0 0 20 20" style="enable-background:new 0 0 20 20;" xml:space="preserve">
<style type="text/css">
	.st0{fill:none;}
</style>
<g>
	<g>
		<rect class="st0" width="20" height="20"/>
	</g>
	<g>
		<path d="M9.4005737,13.2182312v1.7796021h1.1992188v-1.7798462c0.352356-0.2091064,0.6002197-0.5767822,0.6002197-1.0162354
			c0-0.6627197-0.5372925-1.1999512-1.2000122-1.1999512s-1.2000122,0.5372314-1.2000122,1.1999512
			C8.7999878,12.6413269,9.0480347,13.0092468,9.4005737,13.2182312z"/>
		<path d="M16,8.0017395H7.1939697v-2.501709c0-1.5439453,1.2561035-2.7999268,2.7999878-2.7999268
			c1.5439453,0,2.7999878,1.2559814,2.7999878,2.7999268v1.001709h1.2000122v-1.001709c0-2.2091064-1.7908325-4-4-4
			c-2.2091064,0-4,1.7908936-4,4v2.501709H5.8947144H4c-0.5523071,0-1,0.4476318-1,1v8c0,0.5522461,0.4476929,1,1,1h12
			c0.5523071,0,1-0.4477539,1-1v-8C17,8.4493713,16.5523071,8.0017395,16,8.0017395z M15.7999878,16.8016663H4.2000122V9.2016907
			h11.5999756V16.8016663z"/>
	</g>
</g>
</svg>
