<?xml version="1.0" encoding="utf-8"?>
<!-- Generator: Adobe Illustrator 19.0.1, SVG Export Plug-In . SVG Version: 6.00 Build 0)  -->
<svg version="1.1" id="Layer_1" xmlns="http://www.w3.org/2000/svg" xmlns:xlink="http://www.w3.org/1999/xlink" x="0px" y="0px"
	 viewBox="0 0 20 20" style="enable-background:new 0 0 20 20;" xml:space="preserve">
<style type="text/css">
	.st0{fill:none;}
</style>
<g>
	<g>
		<rect class="st0" width="20" height="20"/>
	</g>
	<g>
		<path d="M10.0058661,1.5058594c-3.6823735,0-6.8160405,2.3598022-7.9913945,5.6431885h1.2774658
			c1.1123657-2.6096191,3.7026367-4.4439697,6.7139287-4.4439697c4.0224609,0,7.2949209,3.2724609,7.2949209,7.2949219
			s-3.27246,7.2949219-7.2949209,7.2949219c-3.011292,0-5.601624-1.8343506-6.7139897-4.4440308H2.0144715
			c1.175354,3.2833862,4.309021,5.6432495,7.9913945,5.6432495c4.6835938,0,8.4941397-3.8105469,8.4941397-8.4941406
			S14.6894598,1.5058594,10.0058661,1.5058594z"/>
		<polygon points="7.1490541,12.8508911 10.0002508,10.0046997 7.1490541,7.1490479 7.1490541,9.4404297 2.0000062,9.4404297 
			2.0000062,10.6396484 7.1490541,10.6396484 		"/>
	</g>
</g>
</svg>
