<?xml version="1.0" encoding="utf-8"?>
<!-- Generator: Adobe Illustrator 19.0.1, SVG Export Plug-In . SVG Version: 6.00 Build 0)  -->
<svg version="1.1" id="Layer_1" xmlns="http://www.w3.org/2000/svg" xmlns:xlink="http://www.w3.org/1999/xlink" x="0px" y="0px"
	 viewBox="0 0 20 20" style="enable-background:new 0 0 20 20;" xml:space="preserve">
<style type="text/css">
	.st0{fill:none;}
</style>
<g>
	<path d="M17,5.5h-2.0414429v-3H5.0605469v3H3c-0.5523071,0-1,0.4476929-1,1v7c0,0.5523071,0.4476929,1,1,1h1.4580688v3h11.1029663
		v-3H17c0.5523071,0,1-0.4476929,1-1v-7C18,5.9476929,17.5523071,5.5,17,5.5z M6.2605591,3.7000122h7.4979858V5.5H6.2605591
		V3.7000122z M14.3610229,16.2999878H5.6580811v-3.5999756h8.7029419V16.2999878z M16.7999878,13.2999878h-1.2389526V11.5H4.4580688
		v1.7999878H3.2000122V6.7000122h13.5999756V13.2999878z"/>
	<rect class="st0" width="20" height="20"/>
</g>
</svg>
