<?xml version="1.0" encoding="utf-8"?>
<!-- Generator: Adobe Illustrator 19.0.1, SVG Export Plug-In . SVG Version: 6.00 Build 0)  -->
<svg version="1.1" id="Layer_1" xmlns="http://www.w3.org/2000/svg" xmlns:xlink="http://www.w3.org/1999/xlink" x="0px" y="0px"
	 viewBox="0 0 20 20" style="enable-background:new 0 0 20 20;" xml:space="preserve">
<style type="text/css">
	.st0{fill:none;}
</style>
<g>
	<rect class="st0" width="20" height="20"/>
	<g>
		<path d="M17.5744686,9.5020142h1.9255371l-2.5,3l-2.5-3h1.8743286c-0.256897-3.5720215-3.2379761-6.4016113-6.8743286-6.4016113
			C5.6955628,3.1004028,2.600409,6.1954956,2.600409,10c0,3.8044434,3.0951538,6.8995972,6.8995967,6.8995972
			c0.9923096,0,1.9494629-0.2058105,2.8448486-0.6116333l0.4954224,1.0929565
			c-1.0184326,0.4616089-2.149353,0.718689-3.340271,0.718689c-4.4732661,0-8.0996094-3.6263428-8.0996094-8.0996094
			c0-4.4733276,3.6263428-8.0996094,8.0996094-8.0996094C13.8051205,1.9003906,17.3158627,5.2619019,17.5744686,9.5020142z"/>
	</g>
</g>
</svg>
