<?xml version="1.0" encoding="utf-8"?>
<!-- Generator: Adobe Illustrator 19.0.1, SVG Export Plug-In . SVG Version: 6.00 Build 0)  -->
<svg version="1.1" id="Layer_1" xmlns="http://www.w3.org/2000/svg" xmlns:xlink="http://www.w3.org/1999/xlink" x="0px" y="0px"
	 viewBox="0 0 20 20" style="enable-background:new 0 0 20 20;" xml:space="preserve">
<style type="text/css">
	.st0{fill:none;}
</style>
<g>
	<g>
		<rect x="0.0000009" class="st0" width="20" height="20"/>
	</g>
	<g>
		<path d="M8.2158203,14.0996094c0.1103516,0,0.2207031-0.0302734,0.3183594-0.0908203l4.5-2.8125
			c0.1748047-0.109375,0.28125-0.3017578,0.28125-0.5087891s-0.1064453-0.3994141-0.28125-0.5087891l-4.5-2.8125
			c-0.1855469-0.1152344-0.4179688-0.1230469-0.609375-0.015625C7.734375,7.4560547,7.6162109,7.6572266,7.6162109,7.875V13.5
			c0,0.2177734,0.1181641,0.4189453,0.3085938,0.5244141C8.015625,14.0751953,8.1162109,14.0996094,8.2158203,14.0996094z
			 M8.8154297,8.9580078L11.5839844,10.6875l-2.7685547,1.7294922V8.9580078z"/>
		<path d="M10.4979858,2.4255371V0.5l-3,2.5l3,2.5V3.6256714C14.0700073,3.8825684,16.8995972,6.8636475,16.8995972,10.5
			c0,3.8044434-3.0950928,6.8995972-6.8995972,6.8995972c-3.8044434,0-6.8995972-3.0951538-6.8995972-6.8995972
			c0-0.9923096,0.2058105-1.9494629,0.6116333-2.8448486L2.6190796,7.159729C2.1574707,8.1781616,1.9003906,9.309082,1.9003906,10.5
			c0,4.4732666,3.6263428,8.0996094,8.0996094,8.0996094c4.4733276,0,8.0996094-3.6263428,8.0996094-8.0996094
			C18.0996094,6.1948853,14.7380981,2.6841431,10.4979858,2.4255371z"/>
	</g>
</g>
</svg>
