<?xml version="1.0" encoding="utf-8"?>
<!-- Generator: Adobe Illustrator 19.0.1, SVG Export Plug-In . SVG Version: 6.00 Build 0)  -->
<svg version="1.1" id="Layer_1" xmlns="http://www.w3.org/2000/svg" xmlns:xlink="http://www.w3.org/1999/xlink" x="0px" y="0px"
	 viewBox="0 0 20 20" style="enable-background:new 0 0 20 20;" xml:space="preserve">
<style type="text/css">
	.st0{fill:none;}
</style>
<g>
	<g>
		<path d="M18.0923214,9.9995117l-1.4699097-0.8786621c-0.0498657-0.3356934-0.1251221-0.6662598-0.2248535-0.9881592
			l0.9428101-1.4307861c0.1418457-0.215332,0.1513672-0.4915771,0.0250854-0.7158203
			c-0.4524536-0.8045654-1.026123-1.5233154-1.7049561-2.1364746c-0.128418-0.1160889-0.2935791-0.177124-0.4613037-0.177124
			c-0.0809937,0-0.1626587,0.0142822-0.2410889,0.043335L13.352026,4.3172607
			c-0.291748-0.1689453-0.5969849-0.315918-0.913208-0.4398193l-0.5518799-1.6398926
			c-0.0812378-0.2415771-0.2893677-0.418335-0.5408325-0.4595947c-0.081604-0.0133057-2.6101074-0.0131836-2.6921997,0.0003662
			C8.4027462,1.819458,8.1948605,1.9963379,8.1133785,2.2375488L7.561193,3.8774414
			C7.2455192,4.0013428,6.9400382,4.1485596,6.6473746,4.3178711L5.0406852,3.7166748
			C4.9626822,3.6875,4.8812613,3.6732178,4.8003287,3.6732178c-0.1678467,0-0.3336182,0.0612793-0.4623413,0.1776123
			C3.6576896,4.4663086,3.0843253,5.1854248,2.6339469,5.987915C2.5079703,6.2124023,2.517797,6.4886475,2.6593375,6.7033691
			l0.9428101,1.4295654C3.5024161,8.4554443,3.427465,8.7861328,3.3775992,9.1217041l-1.4702147,0.880127
			c-0.2207031,0.131958-0.3491211,0.3759766-0.3335571,0.6325684c0.0563965,0.9204102,0.2606812,1.817749,0.6074218,2.6671143
			c0.0970459,0.2382812,0.3189087,0.4022217,0.5751343,0.4255371l1.7073364,0.1540527
			c0.1896362,0.27771,0.401062,0.5421143,0.6322021,0.7905273l-0.2287598,1.7001953
			c-0.0343628,0.2550049,0.0761719,0.5075684,0.2866821,0.6551514c0.7546997,0.5291748,1.5836792,0.9284668,2.4640503,1.1867676
			c0.0636597,0.019043,0.1288452,0.0283203,0.1935425,0.0283203c0.1845093,0,0.3653569-0.0751953,0.4969487-0.2128906
			l1.1992798-1.2524414c0.1488647,0.0047607,0.8363647,0.0047607,0.9855347,0l1.2001953,1.2528076
			c0.1317139,0.1373291,0.3120728,0.2120361,0.4969482,0.2120361c0.0648193,0,0.130188-0.0092773,0.1940918-0.0280762
			c0.8822021-0.2592773,1.7112427-0.6591797,2.463501-1.1883545c0.2102051-0.1478271,0.3204346-0.4001465,0.2860718-0.6549072
			l-0.2287598-1.6998291c0.230835-0.2481689,0.4420166-0.5124512,0.631897-0.7905273l1.7079468-0.1542969
			c0.2562256-0.0233154,0.4780884-0.1876221,0.5751343-0.4259033c0.3467407-0.8508301,0.550415-1.7485352,0.605957-2.6679688
			C18.4416866,10.3751221,18.3130245,10.1314697,18.0923214,9.9995117z M16.819128,12.5592041l-1.3899536,0.1256104
			c-0.3569946,0.0322266-0.6808472,0.2224121-0.8829956,0.5183105c-0.1557617,0.2281494-0.3306274,0.4468994-0.5195923,0.6500244
			c-0.2445068,0.2629395-0.3585205,0.62146-0.3106079,0.9772949L13.902319,16.21521
			c-0.4891357,0.3138428-1.0126953,0.5665283-1.5629272,0.7539062l-0.9796753-1.022583
			c-0.2267456-0.2365723-0.539856-0.369873-0.8664551-0.369873c-0.0128784,0-0.9727783,0-0.9856567,0
			c-0.3266602,0-0.6399536,0.1333008-0.8666382,0.3701172L7.661901,16.9692383
			c-0.5489502-0.1868896-1.0726318-0.439209-1.5629883-0.7530518L6.285192,14.831665
			c0.0479126-0.355957-0.0661011-0.7145996-0.31073-0.9775391c-0.1896973-0.2038574-0.364624-0.4224854-0.5197754-0.6496582
			c-0.2021484-0.2961426-0.526062-0.4862061-0.8831177-0.5184326l-1.3895874-0.1254883
			c-0.1960449-0.5458984-0.3250732-1.1131592-0.3851318-1.692627l1.1970825-0.7165527
			c0.3084106-0.1846924,0.5177612-0.4978027,0.5706177-0.8532715c0.0408936-0.2752686,0.1028442-0.5479736,0.184021-0.8106689
			C4.85465,8.1445312,4.8015494,7.7719727,4.6039176,7.47229L3.8370109,6.3094482
			c0.3060303-0.4954834,0.6685181-0.9501953,1.0817261-1.3570557l1.3080444,0.4893799
			c0.1361694,0.0509033,0.2785645,0.0761719,0.4205322,0.0761719c0.2086182,0,0.4162598-0.0544434,0.6011353-0.161377
			c0.239502-0.1386719,0.4922485-0.260498,0.7511597-0.3620605C8.329504,4.8649902,8.5853024,4.5963135,8.6984615,4.260376
			l0.4368286-1.2973633c0.2112427-0.0028076,0.5064697-0.0050049,0.8742065-0.0050049
			c0.3688354,0,0.6531372,0.0020752,0.8553467,0.0047607l0.4366455,1.2973633
			c0.1131592,0.3363037,0.3692627,0.6052246,0.699585,0.7346191c0.2591553,0.1015625,0.5112915,0.2229004,0.7494507,0.3608398
			c0.1849976,0.1071777,0.3927612,0.1617432,0.6015625,0.1617432c0.1420288,0,0.2846069-0.0252686,0.4207764-0.0762939
			l1.3074341-0.489624c0.4125977,0.4060059,0.7752075,0.8605957,1.0822754,1.3569336l-0.7670288,1.1640625
			c-0.1976318,0.2998047-0.2505493,0.6723633-0.1442261,1.0153809c0.0814819,0.2629395,0.1434326,0.5352783,0.1841431,0.8094482
			c0.0528564,0.355835,0.2625122,0.6690674,0.5712891,0.8536377l1.1965942,0.715332
			C17.143713,11.4455566,17.0149899,12.0126953,16.819128,12.5592041z"/>
		<path d="M10.0001535,6.8424683c-1.7921381,0-3.2501788,1.4578028-3.2501788,3.2498217
			c0,1.7921371,1.4580407,3.2501783,3.2501788,3.2501783c1.792078,0,3.2498217-1.4580412,3.2498217-3.2501783
			C13.2499752,8.300271,11.7922316,6.8424683,10.0001535,6.8424683z M10.0001421,12.2925243
			c-1.2131119,0-2.2001672-0.9870558-2.2001672-2.200223c0-1.2130566,0.9870553-2.1998887,2.2001672-2.1998887
			c1.2130556,0,2.1998329,0.9868321,2.1998329,2.1998887C12.199975,11.3054686,11.2131977,12.2925243,10.0001421,12.2925243z"/>
	</g>
	<g>
		<rect x="-0.0000004" class="st0" width="20" height="20"/>
	</g>
</g>
</svg>
