<?xml version="1.0" encoding="utf-8"?>
<!-- Generator: Adobe Illustrator 19.0.1, SVG Export Plug-In . SVG Version: 6.00 Build 0)  -->
<svg version="1.1" id="Layer_1" xmlns="http://www.w3.org/2000/svg" xmlns:xlink="http://www.w3.org/1999/xlink" x="0px" y="0px"
	 viewBox="0 0 20 20" style="enable-background:new 0 0 20 20;" xml:space="preserve">
<style type="text/css">
	.st0{fill:none;}
</style>
<g>
	<g>
		<g>
			<path d="M9.9914846,2.7000122c4.0299377,0,7.3085032,3.2747498,7.3085032,7.2999878s-3.2785654,7.2999878-7.3085032,7.2999878
				c-4.0205379,0-7.2914734-3.2747498-7.2914734-7.2999878S5.9709468,2.7000122,9.9914846,2.7000122 M9.9914846,1.5
				C5.2994685,1.5,1.499999,5.3079834,1.499999,10c0,4.6919556,3.799469,8.5,8.4914856,8.5C14.6920156,18.5,18.5,14.6919556,18.5,10
				C18.5,5.3079834,14.6920156,1.5,9.9914846,1.5L9.9914846,1.5z"/>
		</g>
		<polygon points="12.4524221,13.1357422 9.3899221,10.1923828 9.3899221,4.8066406 10.5891409,4.8066406 10.5891409,9.6806641 
			13.2844534,12.2705078 		"/>
	</g>
	<g>
		<rect class="st0" width="20" height="20"/>
	</g>
</g>
</svg>
