<?xml version="1.0" encoding="utf-8"?>
<!-- Generator: Adobe Illustrator 19.0.1, SVG Export Plug-In . SVG Version: 6.00 Build 0)  -->
<svg version="1.1" id="Layer_1" xmlns="http://www.w3.org/2000/svg" xmlns:xlink="http://www.w3.org/1999/xlink" x="0px" y="0px"
	 viewBox="0 0 20 20" style="enable-background:new 0 0 20 20;" xml:space="preserve">
<style type="text/css">
	.st0{fill:none;}
</style>
<g>
	<polygon points="7.7020416,12.944519 6.8543854,12.0968628 3.8227692,15.128479 2.2446442,13.550354 2.2446442,17.5546875 
		6.2489166,17.5546875 4.6704254,15.9761353 	"/>
	<polygon points="11.8948202,12.944519 12.7424765,12.0968628 15.7740927,15.128479 17.3522186,13.550354 17.3522186,17.5546875 
		13.3479452,17.5546875 14.9264364,15.9761353 	"/>
	<polygon points="7.7020416,7.0582089 6.8543854,7.9058652 3.8227692,4.874249 2.2446442,6.452374 2.2446442,2.4480407 
		6.2489166,2.4480407 4.6704254,4.0265927 	"/>
	<polygon points="11.8948202,7.0582089 12.7424765,7.9058652 15.7740927,4.874249 17.3522186,6.452374 17.3522186,2.4480407 
		13.3479452,2.4480407 14.9264364,4.0265927 	"/>
	<g>
		<rect x="-0.0000004" class="st0" width="20" height="20"/>
	</g>
</g>
</svg>
