<?xml version="1.0" encoding="utf-8"?>
<!-- Generator: Adobe Illustrator 19.0.1, SVG Export Plug-In . SVG Version: 6.00 Build 0)  -->
<svg version="1.1" id="Layer_1" xmlns="http://www.w3.org/2000/svg" xmlns:xlink="http://www.w3.org/1999/xlink" x="0px" y="0px"
	 viewBox="0 0 20 20" style="enable-background:new 0 0 20 20;" xml:space="preserve">
<style type="text/css">
	.st0{fill:none;}
</style>
<g>
	<g>
		<polygon points="5.7972713,8.1499634 5.7972713,9.3491821 11.7025452,9.3491821 11.7025452,8.1499634 		"/>
	</g>
	<g>
		<path d="M18.5000916,17.6522827l-4.2174683-4.2174683c1.0709839-1.2636108,1.7172852-2.8985596,1.7172852-4.6847534
			c0-4.0040283-3.2459106-7.25-7.25-7.25c-4.0040288,0-7.2500005,3.2459717-7.2500005,7.25
			c0,4.0040894,3.2459717,7.25,7.2500005,7.25c1.7863159,0,3.4214478-0.6464233,4.6850586-1.7175903l4.2174683,4.2174683
			L18.5000916,17.6522827z M2.6999202,8.750061c0-3.3359375,2.7140503-6.0499878,6.0499883-6.0499878
			c3.3359985,0,6.0499878,2.7140503,6.0499878,6.0499878c0,3.3359985-2.7139893,6.0499878-6.0499878,6.0499878
			C5.4139705,14.8000488,2.6999202,12.0860596,2.6999202,8.750061z"/>
		<g>
			<rect x="-0.0000004" class="st0" width="20" height="20"/>
		</g>
	</g>
</g>
</svg>
