<svg viewBox="14.3 -4.3 33 33" xmlns="http://www.w3.org/2000/svg">
<!-- SK telecom symbol (pinwheel) extracted from the brand wordmark -->
<path d="M25.2373 4.47314C24.0323 4.69924 22.2477 5.79369 22.251 7.73027C22.2543 9.48663 23.6918 10.5516 23.695 12.8552C23.7016 14.5886 22.7487 15.7551 21.7173 16.4006C22.1331 16.3646 22.5916 16.3384 23.0925 16.3384C24.1469 16.3384 24.7821 16.4367 24.8214 16.4432L30.2275 9.80775C28.7278 7.55988 26.9727 5.81335 25.2373 4.47314Z" fill="#EA002C"/>
<path d="M29.7848 22.392C30.4659 21.3336 30.551 19.6428 30.61 17.9225C30.6722 16.3168 31.0095 15.111 33.1542 15.1012C33.629 15.1012 34.0809 15.1634 34.9027 15.1634C38.0462 15.1503 40.0992 14.0657 41.373 13.3546C38.7665 11.69 34.9584 9.99265 30.2367 9.79932C29.9289 10.6677 27.5353 17.3261 27.3552 17.8668C27.3814 17.8995 27.8005 18.3681 28.3244 19.2856C29.0972 20.5439 29.5098 21.6121 29.7848 22.392Z" fill="#EA002C"/>
<path d="M18.3809 16.9495C18.1092 16.9495 17.9716 16.7692 17.9356 16.4547C17.8996 16.1434 16.5506 3.76696 16.3475 1.89263C16.3181 1.62066 16.2493 1.11604 16.2493 0.939089C16.246 0.650732 16.436 0.5 16.6553 0.5C17.2971 0.5 20.7876 1.31592 24.491 3.91441C23.4235 4.21588 21.4949 5.32671 21.5015 7.62701C21.508 9.66189 22.9651 10.7826 22.9717 12.824C22.9848 16.1467 19.1668 16.9495 18.3777 16.9495H18.3809Z" fill="#FF7A00"/>
<path d="M30.0969 23.2761C30.1559 23.4301 30.2083 23.5612 30.2639 23.6496C30.3491 23.7938 30.4604 23.8593 30.5979 23.8593C30.683 23.8593 30.7911 23.8299 30.9057 23.7774C31.1906 23.6464 42.4775 18.3871 44.1802 17.604C44.4257 17.486 44.894 17.2763 45.0479 17.1845C45.2083 17.0928 45.2804 16.9617 45.2804 16.8241C45.2804 16.7487 45.2574 16.6734 45.2149 16.6013C45.002 16.2572 43.9117 15.0972 42.0845 13.8291C40.634 14.6286 38.3714 15.864 35.0053 15.8771C34.1801 15.8771 33.9935 15.8214 33.4303 15.8247C31.7865 15.8312 31.3772 16.5325 31.315 17.9742C31.3052 18.2462 31.3019 18.6132 31.2855 19.0163C31.2331 20.304 31.0825 22.0833 30.0969 23.2728V23.2761Z" fill="#FF7A00"/>
</svg>
