<svg xmlns="http://www.w3.org/2000/svg" width="1000" height="748" viewBox="0 0 1000 748" font-family="'Apple SD Gothic Neo','Noto Sans CJK KR','Malgun Gothic',sans-serif">
  <defs>
    <filter id="c1" x="-15%" y="-40%" width="130%" height="200%">
      <feDropShadow dx="0" dy="1.5" stdDeviation="3" flood-color="#111014" flood-opacity="0.09"/>
    </filter>
    <marker id="ar" markerWidth="9" markerHeight="9" refX="6.5" refY="3" orient="auto" markerUnits="userSpaceOnUse">
      <path d="M0,0 L7,3 L0,6 Z" fill="#9B96A0"/>
    </marker>
  </defs>
  <rect width="1000" height="748" fill="#FFFFFF"/>
  <text x="500" y="50" text-anchor="middle" font-size="26" font-weight="700" fill="#1A1A1E" letter-spacing="-0.3">AI 모델 공개 흐름</text>

  <!-- 1 -->
  <g filter="url(#c1)"><rect x="200" y="80" width="600" height="80" rx="14" fill="#FFFFFF" stroke="#E6E3DF"/></g>
  <circle cx="240" cy="120" r="15" fill="#2B2930"/><text x="240" y="126" text-anchor="middle" font-size="15" font-weight="700" fill="#FFFFFF">1</text>
  <text x="274" y="114" font-size="17.5" font-weight="650" fill="#1A1A1E">내부 승인 · OSRB 검토 요청</text>
  <text x="274" y="140" font-size="13" fill="#7C7880">소속 조직 승인을 받고 OSRB(사내 오픈소스 검토 조직)에 요청</text>

  <line x1="500" y1="160" x2="500" y2="196" stroke="#C6C1C8" stroke-width="2" marker-end="url(#ar)"/>

  <!-- 2 -->
  <g filter="url(#c1)"><rect x="200" y="200" width="600" height="80" rx="14" fill="#FFFFFF" stroke="#E6E3DF"/></g>
  <circle cx="240" cy="240" r="15" fill="#2B2930"/><text x="240" y="246" text-anchor="middle" font-size="15" font-weight="700" fill="#FFFFFF">2</text>
  <text x="274" y="234" font-size="17.5" font-weight="650" fill="#1A1A1E">라이선스 확인</text>
  <text x="274" y="260" font-size="13" fill="#7C7880">모델 가중치 라이선스와 학습 데이터셋 라이선스를 따로 확인</text>

  <!-- fork -->
  <line x1="500" y1="280" x2="500" y2="300" stroke="#C6C1C8" stroke-width="2"/>
  <path d="M320 322 H680" stroke="#C6C1C8" stroke-width="2" fill="none"/>
  <line x1="320" y1="322" x2="320" y2="352" stroke="#C6C1C8" stroke-width="2" marker-end="url(#ar)"/>
  <line x1="680" y1="322" x2="680" y2="352" stroke="#C6C1C8" stroke-width="2" marker-end="url(#ar)"/>
  <rect x="422" y="300" width="156" height="24" rx="12" fill="#F1EFEC" stroke="#E2DED9"/>
  <text x="500" y="316" text-anchor="middle" font-size="12.5" font-weight="700" fill="#3A373F">3 · 동시에 진행</text>

  <!-- 3a -->
  <g filter="url(#c1)"><rect x="150" y="356" width="380" height="88" rx="14" fill="#FFFFFF" stroke="#E6E3DF"/></g>
  <text x="176" y="390" font-size="16.5" font-weight="650" fill="#1A1A1E">공개 전 체크리스트</text>
  <text x="176" y="415" font-size="13" fill="#7C7880">공개할 권리, 라이선스,</text>
  <text x="176" y="433" font-size="13" fill="#7C7880">데이터 · 민감정보 점검</text>
  <!-- 3b -->
  <g filter="url(#c1)"><rect x="530" y="356" width="380" height="88" rx="14" fill="#FFFFFF" stroke="#E6E3DF"/></g>
  <text x="556" y="390" font-size="16.5" font-weight="650" fill="#1A1A1E">모델 카드 작성</text>
  <text x="556" y="415" font-size="13" fill="#7C7880">README.md에 용도 · 한계 ·</text>
  <text x="556" y="433" font-size="13" fill="#7C7880">학습 데이터 · 평가 기록</text>

  <!-- merge -->
  <line x1="320" y1="444" x2="320" y2="466" stroke="#C6C1C8" stroke-width="2"/>
  <line x1="680" y1="444" x2="680" y2="466" stroke="#C6C1C8" stroke-width="2"/>
  <path d="M320 466 H680" stroke="#C6C1C8" stroke-width="2" fill="none"/>
  <line x1="500" y1="466" x2="500" y2="500" stroke="#C6C1C8" stroke-width="2" marker-end="url(#ar)"/>

  <!-- 4 -->
  <g filter="url(#c1)"><rect x="200" y="504" width="600" height="80" rx="14" fill="#FFFFFF" stroke="#E6E3DF"/></g>
  <circle cx="240" cy="544" r="15" fill="#2B2930"/><text x="240" y="550" text-anchor="middle" font-size="15" font-weight="700" fill="#FFFFFF">4</text>
  <text x="274" y="538" font-size="17.5" font-weight="650" fill="#1A1A1E">AI SBOM으로 문서화 점검</text>
  <text x="274" y="564" font-size="13" fill="#7C7880"><tspan fill="#EA002C" font-weight="700">BomLens</tspan>로 빠진 항목을 확인하고 모델 카드를 보강 (반복)</text>

  <line x1="500" y1="584" x2="500" y2="620" stroke="#C6C1C8" stroke-width="2" marker-end="url(#ar)"/>

  <!-- 5 -->
  <g filter="url(#c1)"><rect x="200" y="624" width="600" height="80" rx="14" fill="#FFFFFF" stroke="#E6E3DF"/></g>
  <circle cx="240" cy="664" r="15" fill="#2B2930"/><text x="240" y="670" text-anchor="middle" font-size="15" font-weight="700" fill="#FFFFFF">5</text>
  <text x="274" y="658" font-size="17.5" font-weight="650" fill="#1A1A1E">저장소 공개 · 운영</text>
  <text x="274" y="684" font-size="13" fill="#7C7880">정리된 결과로 OSRB 검토를 마치고 공개한 뒤 운영</text>

  <text x="500" y="732" text-anchor="middle" font-size="12" fill="#ABA6AE">공통 절차(승인 · 민감정보 제거 · 이름 · 운영)는 오픈소스 공개 절차를 따르고, 이 그림은 모델이라서 달라지는 부분을 표시합니다.</text>
</svg>
