<?xml version="1.0" encoding="utf-8"?>
<!-- Generator: Adobe Illustrator 19.0.1, SVG Export Plug-In . SVG Version: 6.00 Build 0)  -->
<svg version="1.1" id="Layer_1" xmlns="http://www.w3.org/2000/svg" xmlns:xlink="http://www.w3.org/1999/xlink" x="0px" y="0px"
	 viewBox="0 0 20 20" style="enable-background:new 0 0 20 20;" xml:space="preserve">
<style type="text/css">
	.st0{fill:none;}
</style>
<g>
	<rect x="-0.0000004" class="st0" width="20" height="20"/>
	<path d="M17.9721985,6.2973633h-1.0283203v-2.496582c0-0.8823242-0.7177734-1.6000977-1.5996094-1.6000977H4.6557922
		c-0.8818359,0-1.5996094,0.7177734-1.5996094,1.6000977v2.496582H2.0278625c-0.3310546,0-0.5996093,0.2685547-0.5996093,0.6000977
		S1.696808,7.4975586,2.0278625,7.4975586h1.0283203L3.0553284,17.7993164h1.4910278v-1.3973999h10.9074707v1.3973999h1.4910278
		L16.9438782,7.4975586h1.0283203c0.3310547,0,0.5996094-0.2685547,0.5996094-0.6000977S18.3032532,6.2973633,17.9721985,6.2973633z
		 M6.7964172,13.9332886c-0.4970703,0-0.9000244-0.4029541-0.9000244-0.8999634
		c0-0.4970703,0.4029541-0.9000244,0.9000244-0.9000244c0.4970093,0,0.8999634,0.4029541,0.8999634,0.9000244
		C7.6963806,13.5303345,7.2934265,13.9332886,6.7964172,13.9332886z M13.1952209,13.9332886
		c-0.4970703,0-0.9000244-0.4029541-0.9000244-0.8999634c0-0.4970703,0.4029541-0.9000244,0.9000244-0.9000244
		c0.4970093,0,0.8999634,0.4029541,0.8999634,0.9000244C14.0951843,13.5303345,13.6922302,13.9332886,13.1952209,13.9332886z
		 M15.4440002,10.1508789H4.5559998V4.7022004h10.8880005V10.1508789z"/>
</g>
</svg>
