<?xml version="1.0" encoding="utf-8"?>
<!-- Generator: Adobe Illustrator 19.0.1, SVG Export Plug-In . SVG Version: 6.00 Build 0)  -->
<svg version="1.1" id="Layer_1" xmlns="http://www.w3.org/2000/svg" xmlns:xlink="http://www.w3.org/1999/xlink" x="0px" y="0px"
	 viewBox="0 0 20 20" style="enable-background:new 0 0 20 20;" xml:space="preserve">
<style type="text/css">
	.st0{fill:none;}
</style>
<g>
	<rect x="0.0000148" class="st0" width="20" height="20"/>
	<path d="M18.0444736,7.5700684h-1.946106l-1.5529184-3.0219727H5.5102935L3.9266751,7.5700684H1.9556059
		c-0.3310547,0-0.5996094,0.2685547-0.5996094,0.6000977s0.2685547,0.6000977,0.5996094,0.6000977h1.3421019l-0.7356567,1.4038086
		l-0.0019531,7.2700195h1.5000002v-1.9038086h11.8769531v1.9116211h1.500001l0.0009766-7.2749023l-0.7229004-1.4067383h1.3293457
		c0.3310547,0,0.5996094-0.2685547,0.5996094-0.6000977S18.3755283,7.5700684,18.0444736,7.5700684z M6.5262237,13.4310913
		c-0.4970703,0-0.9000244-0.4029541-0.9000244-0.8999634c0-0.4970703,0.4029541-0.9000244,0.9000244-0.9000244
		s0.8999634,0.4029541,0.8999634,0.9000244C7.426187,13.0281372,7.023294,13.4310913,6.5262237,13.4310913z M13.5262232,13.4310913
		c-0.4970703,0-0.9000244-0.4029541-0.9000244-0.8999634c0-0.4970703,0.4029541-0.9000244,0.9000244-0.9000244
		s0.8999634,0.4029541,0.8999634,0.9000244C14.4261866,13.0281372,14.0232935,13.4310913,13.5262232,13.4310913z
		 M3.8348172,10.3234863L6.236856,5.748291h7.5761714l2.3486948,4.5751953H3.8348172z"/>
</g>
</svg>
