<?xml version="1.0" encoding="utf-8"?>
<!-- Generator: Adobe Illustrator 19.0.1, SVG Export Plug-In . SVG Version: 6.00 Build 0)  -->
<svg version="1.1" id="Layer_1" xmlns="http://www.w3.org/2000/svg" xmlns:xlink="http://www.w3.org/1999/xlink" x="0px" y="0px"
	 viewBox="0 0 20 20" style="enable-background:new 0 0 20 20;" xml:space="preserve">
<style type="text/css">
	.st0{fill:none;}
</style>
<g>
	<rect x="0.0000148" class="st0" width="20" height="20"/>
	<path d="M17.6195068,6.1588135l-1.4833374-1.7383423c-0.2177734-0.2529297-0.5976562-0.2807617-0.8457031-0.065918
		c-0.2519531,0.215332-0.28125,0.5942383-0.0664062,0.8461914l1.4355469,1.6772461v5.7338867h-2.1184082V3.2474976
		c0-0.5523071-0.4476929-1-1-1H5.1411743c-0.5522461,0-1,0.4476929-1,1v13.3048096h-1v1.2001953h12.4068604v-1.2001953h-1.0068359
		v-2.7402344h2.7175293c0.3314209,0,0.6000977-0.2686768,0.6000977-0.6000977V6.8079224
		C17.8588257,6.5699463,17.7739868,6.3398438,17.6195068,6.1588135z M12.2855835,9.5562134H6.6478882V4.7564087h5.6376953V9.5562134
		z"/>
</g>
</svg>
