<?xml version="1.0" encoding="utf-8"?>
<!-- Generator: Adobe Illustrator 19.0.1, SVG Export Plug-In . SVG Version: 6.00 Build 0)  -->
<svg version="1.1" id="Layer_1" xmlns="http://www.w3.org/2000/svg" xmlns:xlink="http://www.w3.org/1999/xlink" x="0px" y="0px"
	 viewBox="0 0 20 20" style="enable-background:new 0 0 20 20;" xml:space="preserve">
<style type="text/css">
	.st0{fill:none;}
</style>
<g>
	<rect x="0.0000148" class="st0" width="20" height="20"/>
	<g>
		<path class="st0" d="M10.0000153,6.7499847c-1.7919312,0-3.2500005,1.4580688-3.2500005,3.25s1.4580693,3.25,3.2500005,3.25
			c1.7919922,0,3.25-1.4580688,3.25-3.25S11.7920074,6.7499847,10.0000153,6.7499847z M10.0000153,12.2510223
			c-1.2407227,0-2.2500005-1.0098267-2.2500005-2.2510376s1.0092778-2.2510376,2.2500005-2.2510376s2.25,1.0098267,2.25,2.2510376
			S11.2407379,12.2510223,10.0000153,12.2510223z"/>
		<path d="M15.6945953,9.3499603h2.772583c-0.3167725-4.1744385-3.6427002-7.5004272-7.8171387-7.8171387v2.8588257H9.3499908
			V1.5328217c-4.174439,0.3167114-7.5003667,3.6427002-7.8171391,7.8171387h2.7929077v1.3000488H1.5328518
			c0.3166504,4.1743774,3.6427002,7.5004883,7.8171391,7.8171997v-2.7067261h1.3000488v2.7067261
			c4.1744385-0.3167114,7.5004883-3.6428223,7.8171387-7.8171997h-2.772583V9.3499603z M10.0000153,13.2499847
			c-1.7919312,0-3.2500005-1.4580688-3.2500005-3.25s1.4580693-3.25,3.2500005-3.25c1.7919922,0,3.25,1.4580688,3.25,3.25
			S11.7920074,13.2499847,10.0000153,13.2499847z"/>
		<circle cx="10.0000153" cy="9.9999847" r="2.2510376"/>
	</g>
</g>
</svg>
