<?xml version="1.0" encoding="utf-8"?>
<!-- Generator: Adobe Illustrator 19.0.1, SVG Export Plug-In . SVG Version: 6.00 Build 0)  -->
<svg version="1.1" id="Layer_1" xmlns="http://www.w3.org/2000/svg" xmlns:xlink="http://www.w3.org/1999/xlink" x="0px" y="0px"
	 viewBox="0 0 20 20" style="enable-background:new 0 0 20 20;" xml:space="preserve">
<style type="text/css">
	.st0{fill:none;}
	.st1{fill:#020202;}
</style>
<g>
	<g>
		<rect x="0.0000148" class="st0" width="20" height="20"/>
	</g>
	<path d="M10.082901,1c3.107666,0,5.6355591,2.5279541,5.6355591,5.6355591c0,2.9755859-2.7737427,6.9901733-4.427063,9.2236938
		c-0.2861938,0.3851929-0.7246704,0.6062622-1.2044067,0.6062622h-0.0036621
		c-0.4810791-0.0018311-0.9195557-0.2247314-1.2038574-0.6118164c-2.0220952-2.7544556-4.4321904-6.4425049-4.4321904-9.2181396
		C4.4472804,3.5279541,6.9752345,1,10.082901,1 M10.0831451,8.9536133c1.2773438,0,2.3173828-1.0395508,2.3173828-2.3178711
		s-1.0400391-2.3178711-2.3173828-2.3178711c-1.2783203,0-2.3183599,1.0395508-2.3183599,2.3178711
		S8.8048248,8.9536133,10.0831451,8.9536133"/>
	<path class="st1" d="M17.1261139,17.5483398l-0.6054688-2.3642578c-0.1757812-0.6899414-0.7958984-1.171875-1.5078125-1.171875
		h-1.2283325c-0.5029907,0.7775879-1.0546875,1.5845947-1.6904297,2.4434204
		c-0.4768066,0.6417847-1.208374,1.0098877-2.0145264,1.0098877c-0.8010864-0.0030518-1.5322876-0.3748169-2.0061646-1.0200806
		c-0.5375371-0.7322388-1.122376-1.5581665-1.6904302-2.4332275H5.1534572c-0.7119141,0-1.3320312,0.4819336-1.5078125,1.1713867
		l-0.6054688,2.3637695c-0.0849609,0.3310547-0.0136719,0.675293,0.1953125,0.9453125
		c0.2089844,0.2705078,0.5253906,0.4257812,0.8681641,0.4257812h11.9589844c0.3427734,0,0.6591797-0.1552734,0.8681641-0.4257812
		C17.1397858,18.2226562,17.2110748,17.878418,17.1261139,17.5483398z"/>
</g>
</svg>
