<?xml version="1.0" encoding="utf-8"?>
<!-- Generator: Adobe Illustrator 19.0.1, SVG Export Plug-In . SVG Version: 6.00 Build 0)  -->
<svg version="1.1" id="Layer_1" xmlns="http://www.w3.org/2000/svg" xmlns:xlink="http://www.w3.org/1999/xlink" x="0px" y="0px"
	 viewBox="0 0 20 20" style="enable-background:new 0 0 20 20;" xml:space="preserve">
<style type="text/css">
	.st0{fill:none;}
</style>
<g>
	<rect x="0.0000148" class="st0" width="20" height="20"/>
	<g>
		<polygon points="7.2772365,12.7222033 10.7715607,11.2116442 8.789444,9.2295275 		"/>
		<polygon points="11.2907257,10.5989733 12.7245026,7.2754259 9.4036407,8.7118883 		"/>
		<path d="M10.0000153,1.4999743c-4.6944585,0-8.5,3.805603-8.5,8.500061c0,4.694397,3.805542,8.500001,8.5,8.500001
			s8.5-3.805604,8.5-8.500001C18.5000153,5.3055773,14.6944733,1.4999743,10.0000153,1.4999743z M13.6151276,7.2256212
			l-1.9130859,4.4345703l-4.4775395,1.9550781c-0.4906616,0.1769409-1.0109863-0.2991943-0.8408203-0.8388672l1.9218755-4.4384766
			l4.4384766-1.940918C13.2916412,6.1705675,13.784256,6.7488756,13.6151276,7.2256212z"/>
	</g>
</g>
</svg>
