<?xml version="1.0" encoding="utf-8"?>
<!-- Generator: Adobe Illustrator 19.0.1, SVG Export Plug-In . SVG Version: 6.00 Build 0)  -->
<svg version="1.1" id="Layer_1" xmlns="http://www.w3.org/2000/svg" xmlns:xlink="http://www.w3.org/1999/xlink" x="0px" y="0px"
	 viewBox="0 0 20 20" style="enable-background:new 0 0 20 20;" xml:space="preserve">
<style type="text/css">
	.st0{fill:none;}
</style>
<g>
	<rect x="0.0000148" class="st0" width="20" height="20"/>
	<g>
		<path d="M18.1173859,7.5196342h-1.946106l-1.5529175-3.0219727h-3.0385742l-0.25-0.8770142
			c-0.121521-0.3037109-0.4156494-0.5028076-0.7427368-0.5028076H9.3678741c-0.3278198,0-0.6224365,0.2000122-0.7434692,0.5046387
			L8.3769073,4.4976616H5.5832057L3.9995875,7.5196342H2.0285182c-0.3310546,0-0.5996093,0.2685547-0.5996093,0.6000977
			s0.2685547,0.6000977,0.5996093,0.6000977h1.3421021l-0.7356567,1.4038086l-0.0019531,7.2700195h1.5v-1.9038086H16.009964
			v1.9116211h1.5l0.0009766-7.2749023l-0.7229004-1.4067383h1.3293457c0.3310547,0,0.5996094-0.2685547,0.5996094-0.6000977
			S18.4484406,7.5196342,18.1173859,7.5196342z M6.5991359,13.3806572c-0.4970703,0-0.9000244-0.4029541-0.9000244-0.8999634
			c0-0.4970703,0.4029541-0.9000244,0.9000244-0.9000244s0.8999634,0.4029541,0.8999634,0.9000244
			C7.4990993,12.9777031,7.0962062,13.3806572,6.5991359,13.3806572z M13.5991364,13.3806572
			c-0.4970703,0-0.9000244-0.4029541-0.9000244-0.8999634c0-0.4970703,0.4029541-0.9000244,0.9000244-0.9000244
			s0.8999634,0.4029541,0.8999634,0.9000244C14.4990997,12.9777031,14.0962067,13.3806572,13.5991364,13.3806572z
			 M3.9077296,10.2730522l2.4020386-4.5751953h7.5761724l2.3486938,4.5751953H3.9077296z"/>
	</g>
</g>
</svg>
