<?xml version="1.0" encoding="utf-8"?>
<!-- Generator: Adobe Illustrator 19.0.1, SVG Export Plug-In . SVG Version: 6.00 Build 0)  -->
<svg version="1.1" id="Layer_1" xmlns="http://www.w3.org/2000/svg" xmlns:xlink="http://www.w3.org/1999/xlink" x="0px" y="0px"
	 viewBox="0 0 20 20" style="enable-background:new 0 0 20 20;" xml:space="preserve">
<style type="text/css">
	.st0{fill:none;}
</style>
<g>
	<rect x="0.0000148" class="st0" width="20" height="20"/>
	<path d="M17.099617,14.3270969V5.5360813c0-2.527832-2.0029287-4.362793-4.7636709-4.362793H7.663094
		c-2.7597656,0-4.7626953,1.8349609-4.7626953,4.362793v8.7910156c0,0.8823242,0.7177734,1.6000977,1.5996094,1.6000977h1.7202148
		l-2.8995361,2.8995361h1.6962891l1.1534424-1.1534424h7.658936l1.1535645,1.1534424h1.6964102l-2.8999014-2.8995361h1.7205811
		C16.3818436,15.9271946,17.099617,15.2094212,17.099617,14.3270969z M4.9000082,4.5226169H15.100008
		c0.2761421,0,0.5,0.2238579,0.5,0.5v4.7999997H4.4000082V5.0226169C4.4000082,4.7464747,4.6238656,4.5226169,4.9000082,4.5226169z
		 M5.5993733,12.5148315c0-0.4970703,0.4029541-0.8999634,0.8999634-0.8999634c0.4970703,0,0.9000244,0.4028931,0.9000244,0.8999634
		S6.996407,13.414856,6.4993367,13.414856C6.0023274,13.414856,5.5993733,13.0119019,5.5993733,12.5148315z M6.9702229,16.8734837
		l0.8995361-0.9462891h4.2132573l0.9464111,0.9462891H6.9702229z M13.4993372,13.414856
		c-0.4970093,0-0.8999634-0.4029541-0.8999634-0.9000244s0.4029541-0.8999634,0.8999634-0.8999634
		c0.4970703,0,0.9000244,0.4028931,0.9000244,0.8999634S13.9964075,13.414856,13.4993372,13.414856z"/>
</g>
</svg>
