<?xml version="1.0" encoding="utf-8"?>
<!-- Generator: Adobe Illustrator 19.0.1, SVG Export Plug-In . SVG Version: 6.00 Build 0)  -->
<svg version="1.1" id="Layer_1" xmlns="http://www.w3.org/2000/svg" xmlns:xlink="http://www.w3.org/1999/xlink" x="0px" y="0px"
	 viewBox="0 0 20 20" style="enable-background:new 0 0 20 20;" xml:space="preserve">
<style type="text/css">
	.st0{fill:none;}
</style>
<g>
	<rect class="st0" width="20" height="20"/>
	<g>
		<path d="M10,2.6999969c4.025238,0,7.2999878,3.2747803,7.2999878,7.3000031S14.025238,17.3000031,10,17.3000031
			S2.7000117,14.0252228,2.7000117,10S5.9747615,2.6999969,10,2.6999969 M10,1.5c-4.694428,0-8.5,3.8055725-8.5,8.5
			s3.8055725,8.5,8.5,8.5s8.5-3.8055725,8.5-8.5S14.6944275,1.5,10,1.5L10,1.5z"/>
		<path d="M8.9508171,8.0759277c-0.0869522,0-1.4072266,0-1.4072266,0s-0.0350404-2.3285246,2.532155-2.3847651
			c2.5671949-0.056241,2.5322981,2.1914062,2.5322981,2.1914062s0.0858717,0.874948-0.5645304,1.4214377
			c-0.5658693,0.5454712-1.1768866,0.9881868-1.2616415,1.5272923c-0.0847549,0.5391064-0.1015625,0.8056641-0.1015625,0.8056641
			H9.2252312c0,0-0.1098633-0.812233,0.2578125-1.5493164c0.4264154-0.7632723,0.9046679-1.2237816,1.2252445-1.4563227
			c0.4003773-0.2489376,0.8061781-1.5973878-0.623682-1.5973878C8.9833612,7.033936,8.9508171,8.0759277,8.9508171,8.0759277z"/>
		<circle cx="9.9903679" cy="13.2185059" r="0.875"/>
	</g>
</g>
</svg>
