<?xml version="1.0" encoding="utf-8"?>
<!-- Generator: Adobe Illustrator 19.0.1, SVG Export Plug-In . SVG Version: 6.00 Build 0)  -->
<svg version="1.1" id="Layer_1" xmlns="http://www.w3.org/2000/svg" xmlns:xlink="http://www.w3.org/1999/xlink" x="0px" y="0px"
	 viewBox="0 0 20 20" style="enable-background:new 0 0 20 20;" xml:space="preserve">
<style type="text/css">
	.st0{fill:none;}
</style>
<g>
	<rect class="st0" width="20" height="20"/>
	<g>
		<path d="M10,2.6999969c4.025238,0,7.2999878,3.2747803,7.2999878,7.3000031S14.025238,17.3000031,10,17.3000031
			S2.7000117,14.0252228,2.7000117,10S5.9747615,2.6999969,10,2.6999969 M10,1.5c-4.6943974,0-8.5,3.8055725-8.5,8.5
			c0,4.6944122,3.805603,8.5,8.5,8.5c4.6944275,0,8.5-3.8055878,8.5-8.5C18.5,5.3055725,14.6944275,1.5,10,1.5L10,1.5z"/>
		<path d="M8.7489862,8.3635912h1.8220806c0,0,0.5522327,0.0339746,0.46663,0.5258856
			c-0.1068869,0.6142197-0.6508217,3.4113989-0.6508217,3.4113989s-0.2816381,0.9768772,0.503664,0.6740217
			c0.6718359-0.2590971,0.6298695,0.0589027,0.5481052,0.1925774c-0.128705,0.2104177-0.3999681,0.6221733-1.6739435,0.6073599
			s-1.222127-0.9777012-1.1702795-1.2739744C8.6462698,12.204587,9.171176,9.3635139,9.171176,9.3635139
			s0.0549603-0.4219303-0.3407145-0.4888515C8.3555346,8.7943373,8.3133316,8.3635902,8.7489862,8.3635912z"/>
		<circle cx="10.2103462" cy="6.8756862" r="1"/>
	</g>
</g>
</svg>
