<?xml version="1.0" encoding="utf-8"?>
<!-- Generator: Adobe Illustrator 19.0.1, SVG Export Plug-In . SVG Version: 6.00 Build 0)  -->
<svg version="1.1" id="Layer_1" xmlns="http://www.w3.org/2000/svg" xmlns:xlink="http://www.w3.org/1999/xlink" x="0px" y="0px"
	 viewBox="0 0 20 20" style="enable-background:new 0 0 20 20;" xml:space="preserve">
<style type="text/css">
	.st0{fill:none;}
</style>
<g>
	<rect class="st0" width="20" height="20"/>
	<path d="M17.3414001,13.9846191c-0.0175781-0.012207-1.7412119-1.2260742-1.7412119-2.8925781l-0.0029297-3.3652344
		c0-3.0878906-2.5117188-5.6000977-5.6005859-5.6000977c-3.0878901,0-5.5996089,2.512207-5.5996089,5.6010742L4.40097,11.092041
		c0,1.6538086-1.7265625,2.8813477-1.7441406,2.8930664c-0.2148438,0.1503906-0.3076172,0.4228516-0.2285156,0.6723633
		c0.078125,0.25,0.3095703,0.4204102,0.5712891,0.4204102h3.9488525c0.1656494,1.5193481,1.5189815,2.7954102,3.066772,2.7954102
		s2.901123-1.276062,3.0667725-2.7954102h3.9176035c0.2626953,0,0.4941406-0.1704102,0.5722656-0.4208984
		C17.6509705,14.4064941,17.5572205,14.1340332,17.3414001,13.9846191z M10.0152273,16.6732788
		c-0.8702393,0-1.6821289-0.718689-1.8463135-1.5949097h3.692627
		C11.6973562,15.9545898,10.8854666,16.6732788,10.0152273,16.6732788z M4.498138,13.8778687
		c0.557312-0.6762695,1.1028442-1.6330566,1.1028442-2.7872314l-0.0039062-3.362854
		c0-2.4267578,1.9736328-4.401062,4.3995967-4.401062c2.4265137,0,4.4005737,1.973877,4.4005737,4.401123l0.0029297,3.3641968
		c0,1.1500854,0.548645,2.1089478,1.1054077,2.7858276H4.498138z"/>
</g>
</svg>
