<?xml version="1.0" encoding="utf-8"?>
<!-- Generator: Adobe Illustrator 19.0.1, SVG Export Plug-In . SVG Version: 6.00 Build 0)  -->
<svg version="1.1" id="Layer_1" xmlns="http://www.w3.org/2000/svg" xmlns:xlink="http://www.w3.org/1999/xlink" x="0px" y="0px"
	 viewBox="0 0 20 20" style="enable-background:new 0 0 20 20;" xml:space="preserve">
<style type="text/css">
	.st0{fill:none;}
</style>
<g>
	<rect class="st0" width="20" height="20"/>
	<path d="M17.8638611,16.5791359l-1.5048828-1.5048828h0.640625c0.2626953,0,0.4941406-0.1704102,0.5722656-0.4208984
		c0.0791016-0.2504883-0.0146484-0.5229492-0.2304688-0.6723633c-0.0175781-0.012207-1.7412109-1.2260742-1.7412109-2.8925781
		l-0.0029297-3.3652349c0-3.0878906-2.5117188-5.6000977-5.6005859-5.6000977c-1.7956543,0-3.3921514,0.8529055-4.417542,2.1713257
		L3.0152278,1.7305027L2.166595,2.5791354l2.767334,2.767334C4.5932307,6.0693698,4.3970637,6.8733249,4.3970637,7.7241549
		L4.40097,11.0884132c0,1.6538086-1.7265625,2.8813477-1.7441406,2.8930664
		c-0.2148438,0.1503906-0.3076172,0.4228516-0.2285156,0.6723633c0.078125,0.25,0.3095703,0.4204102,0.5712891,0.4204102h3.9488525
		c0.1656494,1.5193481,1.5189824,2.7954102,3.0667729,2.7954102s2.901123-1.276062,3.0667725-2.7954102h1.5797119
		l2.3535156,2.3535156L17.8638611,16.5791359z M9.9966736,3.3230929c2.4265137,0,4.4005737,1.973877,4.4005737,4.401123
		l0.0029297,3.3641973c0,1.1500854,0.548645,2.1089478,1.1054077,2.7858276h-0.3466187L6.4400935,5.1553683
		C7.2401423,4.0504489,8.5315247,3.3230929,9.9966736,3.3230929z M10.0152283,16.669651
		c-0.8702393,0-1.6821289-0.718689-1.8463135-1.5949097h3.692627C11.6973572,15.9509621,10.8854675,16.669651,10.0152283,16.669651z
		 M4.498138,13.8742409c0.557312-0.6762695,1.1028442-1.6330566,1.1028442-2.7872314L5.5970759,7.7241549
		c0-0.510498,0.1043701-0.9933472,0.2648926-1.449646l7.5997319,7.5997319H4.498138z"/>
</g>
</svg>
