<?xml version="1.0" encoding="utf-8"?>
<!-- Generator: Adobe Illustrator 22.1.0, SVG Export Plug-In . SVG Version: 6.00 Build 0)  -->
<svg version="1.1" id="Layer_1" xmlns="http://www.w3.org/2000/svg" xmlns:xlink="http://www.w3.org/1999/xlink" x="0px" y="0px"
	 viewBox="0 0 20 20" style="enable-background:new 0 0 20 20;" xml:space="preserve">
<style type="text/css">
	.st0{fill:#2A2C2E;}
</style>
<g id="Filled-_x2F_-Q_x26_A-_x28_92px_x29_">
	<path id="Combined-Shape" class="st0" d="M10,13.9c0.8,0,1.5,0.7,1.5,1.5s-0.7,1.5-1.5,1.5s-1.5-0.7-1.5-1.5S9.2,13.9,10,13.9z
		 M14.3,6.5c0,0,0.1,1.5-0.9,2.4c-0.9,0.9-2,1.6-2.1,2.5c-0.1,0.9-0.2,1.3-0.2,1.3H8.7c0,0-0.2-1.4,0.4-2.6c0.7-1.3,1.5-2,2-2.4
		c0.7-0.4,1.3-2.7-1-2.7C8.3,5,8.3,6.8,8.3,6.8H5.9l0,0l0,0c0-0.4,0.2-3.9,4.2-3.9C14.4,2.7,14.3,6.5,14.3,6.5z"/>
</g>
</svg>
