<?xml version="1.0" encoding="utf-8"?>
<!-- Generator: Adobe Illustrator 19.0.1, SVG Export Plug-In . SVG Version: 6.00 Build 0)  -->
<svg version="1.1" id="Layer_1" xmlns="http://www.w3.org/2000/svg" xmlns:xlink="http://www.w3.org/1999/xlink" x="0px" y="0px"
	 viewBox="0 0 20 20" style="enable-background:new 0 0 20 20;" xml:space="preserve">
<style type="text/css">
	.st0{fill:none;}
</style>
<g>
	<path d="M17,8.9989929c0-3.8660278-3.1340332-7-7-7s-7,3.1339722-7,7l0.000061,4.8433838
		c0,1.19104,0.9655151,2.1566162,2.1566162,2.1566162H6.500061c0.276123,0,0.5-0.223877,0.5-0.5v-4
		c0-0.2761841-0.223877-0.5-0.5-0.5H4.1999512v-2c0-3.1981201,2.6019287-5.7999878,5.8000488-5.7999878
		s5.8000488,2.6018677,5.8000488,5.7999878v2H13.500061c-0.2761841,0-0.5,0.2238159-0.5,0.5v4c0,0.276123,0.2238159,0.5,0.5,0.5
		h1.3433228c0.3457031,0,0.6677856-0.0889282,0.9573975-0.2335205v0.2337036c0,0.7188721-0.5827026,1.3016357-1.3015747,1.3016357
		h-3.958374c-0.3314209,0-0.6000977,0.2686768-0.6000977,0.6000977s0.2686768,0.6000977,0.6000977,0.6000977h3.8591919
		C15.8359375,18.5010071,17,17.3369446,17,15.9009705V8.9989929z M4.2000732,12.1990051h1.5999756v2.5999756H5.1566772
		c-0.5274658,0-0.956604-0.4291382-0.956604-0.956604V12.1990051z M15.8000488,13.8423767
		c0,0.5274658-0.4291382,0.956604-0.956665,0.956604h-0.6433105v-2.5999756h1.5999756V13.8423767z"/>
	<rect class="st0" width="20" height="20"/>
</g>
</svg>
