<?xml version="1.0" encoding="utf-8"?>
<!-- Generator: Adobe Illustrator 19.0.1, SVG Export Plug-In . SVG Version: 6.00 Build 0)  -->
<svg version="1.1" id="Layer_1" xmlns="http://www.w3.org/2000/svg" xmlns:xlink="http://www.w3.org/1999/xlink" x="0px" y="0px"
	 viewBox="0 0 20 20" style="enable-background:new 0 0 20 20;" xml:space="preserve">
<style type="text/css">
	.st0{fill:none;}
</style>
<g>
	<path d="M16.9999695,9c0-3.8660278-3.1340332-7-7-7s-7,3.1339722-7,7l0.000061,4.8433838
		C3.0000305,15.0344238,3.9655457,16,5.1566467,16h1.3433838c0.276123,0,0.5-0.223877,0.5-0.5v-4c0-0.2761841-0.223877-0.5-0.5-0.5
		H4.1999207V9c0-3.1981812,2.6019287-5.8000488,5.8000488-5.8000488S15.8000183,5.8018188,15.8000183,9v2h-2.2999878
		c-0.2761841,0-0.5,0.2238159-0.5,0.5v4c0,0.276123,0.2238159,0.5,0.5,0.5h1.3433228
		c1.1911011,0,2.1566772-0.9655762,2.1566772-2.1566162L16.9999695,9z M4.2000427,12.2000122h1.5999756v2.5999756H5.1566467
		c-0.5274658,0-0.956604-0.4291382-0.956604-0.956604V12.2000122z M15.8000183,13.8433838
		c0,0.5274658-0.4291382,0.956604-0.956665,0.956604h-0.6433105v-2.5999756h1.5999756V13.8433838z"/>
	<rect class="st0" width="20" height="20"/>
</g>
</svg>
