<?xml version="1.0" encoding="utf-8"?>
<!-- Generator: Adobe Illustrator 19.0.1, SVG Export Plug-In . SVG Version: 6.00 Build 0)  -->
<svg version="1.1" id="Layer_1" xmlns="http://www.w3.org/2000/svg" xmlns:xlink="http://www.w3.org/1999/xlink" x="0px" y="0px"
	 viewBox="0 0 20 20" style="enable-background:new 0 0 20 20;" xml:space="preserve">
<style type="text/css">
	.st0{fill:none;}
</style>
<g>
	<rect class="st0" width="20" height="20"/>
	<g>
		<path d="M9.9653931,13.3833008c1.9329834,0,3.5-1.5670166,3.5-3.5V4.6994629c0-1.9329834-1.5670166-3.5-3.5-3.5
			s-3.5000005,1.5670166-3.5000005,3.5v5.1838379C6.4653926,11.8162842,8.0324097,13.3833008,9.9653931,13.3833008z
			 M7.6654048,4.6994629c0-1.2682495,1.0317998-2.2999878,2.2999883-2.2999878c1.2682495,0,2.2999878,1.0317383,2.2999878,2.2999878
			v5.1838379c0,1.2681885-1.0317383,2.2999878-2.2999878,2.2999878c-1.2681885,0-2.2999883-1.0317993-2.2999883-2.2999878V4.6994629
			z"/>
		<path d="M16.0996094,9.9484863c0-0.331543-0.2685547-0.6000977-0.5996094-0.6000977s-0.5996094,0.2685547-0.5996094,0.6000977
			c0,2.7016602-2.1982422,4.8999023-4.9003906,4.8999023s-4.9003911-2.1982422-4.9003911-4.8999023
			c0-0.331543-0.2685547-0.6000977-0.5996094-0.6000977S3.9003901,9.6169434,3.9003901,9.9484863
			c0,3.1613159,2.4171753,5.767334,5.5000005,6.0697021v2.182251c0,0.331543,0.2685547,0.6000977,0.5996094,0.6000977
			s0.5996094-0.2685547,0.5996094-0.6000977v-2.182251C13.6824341,15.7158203,16.0996094,13.1098022,16.0996094,9.9484863z"/>
	</g>
</g>
</svg>
