<?xml version="1.0" encoding="utf-8"?>
<!-- Generator: Adobe Illustrator 19.0.1, SVG Export Plug-In . SVG Version: 6.00 Build 0)  -->
<svg version="1.1" id="Layer_1" xmlns="http://www.w3.org/2000/svg" xmlns:xlink="http://www.w3.org/1999/xlink" x="0px" y="0px"
	 viewBox="0 0 20 20" style="enable-background:new 0 0 20 20;" xml:space="preserve">
<style type="text/css">
	.st0{fill:none;}
</style>
<g>
	<rect class="st0" width="20" height="20"/>
	<path d="M17.8828487,15.6721191l-2.6328745-2.6329346c0.5351562-0.9069214,0.8428354-1.963501,0.8428354-3.0906982
		c0-0.331543-0.2685556-0.6000977-0.5996103-0.6000977S14.89359,9.6169434,14.89359,9.9484863
		c0,0.7937622-0.1899414,1.5438843-0.5264893,2.2077637l-1.1074829-1.1075439
		c0.1287231-0.364563,0.1989746-0.7567749,0.1989746-1.1654053V4.6994629c0-1.9329834-1.5670166-3.5-3.5-3.5
		c-1.7886963,0-3.2638545,1.34198-3.4741206,3.0739136L3.8828483,1.6716309c-0.234375-0.234375-0.6132812-0.234375-0.8476562,0
		s-0.234375,0.6142578,0,0.8486328l3.4234009,3.4235229v3.9395142c0,1.9329834,1.5670161,3.5,3.4999995,3.5
		c1.0783691,0,2.0426025-0.487793,2.6846313-1.2546387l1.0401611,1.0401611
		c-0.8989868,1.0286255-2.2199097,1.6795654-3.6901855,1.6795654c-2.702148,0-4.9003901-2.1982422-4.9003901-4.8999023
		c0-0.331543-0.2685547-0.6000977-0.5996094-0.6000977S3.8935905,9.6169434,3.8935905,9.9484863
		c0,3.161438,2.4171143,5.7683716,5.4999995,6.0706177v2.1813354c0,0.331543,0.2685547,0.6000977,0.5996094,0.6000977
		s0.5996094-0.2685547,0.5996094-0.6000977V16.019104c1.5592041-0.1528931,2.947937-0.8953247,3.9399414-2.0009155
		l2.5024424,2.5025635c0.1171875,0.1171875,0.2705078,0.1757812,0.4238281,0.1757812s0.3066406-0.0585938,0.4238281-0.1757812
		C18.1172237,16.286377,18.1172237,15.9064941,17.8828487,15.6721191z M7.6586051,4.6994629
		c0-1.2682495,1.0317988-2.2999878,2.2999873-2.2999878c1.2682495,0,2.2999878,1.0317383,2.2999878,2.2999878
		c0,0-0.0024414,5.2897949-0.0060425,5.3421631L7.6586051,5.4475098V4.6994629z M9.9585924,12.1832886
		c-1.2681885,0-2.2999873-1.0317993-2.2999873-2.2999878V7.1438599l4.1301875,4.1303101
		C11.3683214,11.8261719,10.7045031,12.1832886,9.9585924,12.1832886z"/>
</g>
</svg>
