<?xml version="1.0" encoding="utf-8"?>
<!-- Generator: Adobe Illustrator 19.0.1, SVG Export Plug-In . SVG Version: 6.00 Build 0)  -->
<svg version="1.1" id="Layer_1" xmlns="http://www.w3.org/2000/svg" xmlns:xlink="http://www.w3.org/1999/xlink" x="0px" y="0px"
	 viewBox="0 0 20 20" style="enable-background:new 0 0 20 20;" xml:space="preserve">
<style type="text/css">
	.st0{fill:none;}
</style>
<g>
	<path d="M17.5838127,14.1086197l-2.7496338-2.742981c-0.4686279-0.4686279-1.2283936-0.4686279-1.6970215,0l-1.3658447,1.3499146
		c-0.1689453-0.0151367-0.8867188-0.1879883-2.5615234-1.8598633C7.5427976,9.1847916,7.3611569,8.4611588,7.3445554,8.2848892
		l1.5045161-1.4996338c0.4686279-0.4686279,0.4686279-1.2283936,0-1.6970215L6.1023679,2.3454359
		c-0.4746094-0.4755859-1.3017578-0.4755859-1.7783203,0L2.8523679,3.8185804
		C2.2732663,4.3986588,2.0115476,5.1808853,2.0545163,6.2092056c0.0605469,1.4682617,1.7460938,4.6103516,4.4609375,7.328125
		c0,0,4.749145,4.673645,7.6170039,4.4672852c0,0,1.057312,0.043396,2.0255737-0.7392578l1.4257812-1.3798828
		C18.072094,15.3952408,18.072094,14.5983658,17.5838127,14.1086197z M15.4334221,16.3093033
		c-0.4697266,0.375-0.9140625,0.5161133-1.5908203,0.4926758c-0.9326172,0.050293-3.7744141-1.4082031-6.4775386-4.1132812
		c-2.6152344-2.6166992-4.0683594-5.4726562-4.1113281-6.5288086c-0.0292969-0.6938477,0.109375-1.1542969,0.4482422-1.4936523
		l1.5517578-1.4726565l2.7021484,2.7832034L6.4900632,7.4504166C6.416821,7.5055923,6.1765866,7.7209244,6.1453366,8.1623306
		c-0.0566406,0.831543,0.6669922,1.9897461,2.2158198,3.5419922c1.5527344,1.5493164,2.7363281,2.2700195,3.5361328,2.2089844
		c0.34375-0.0253906,0.5488281-0.1787109,0.6494141-0.2807617l1.4892578-1.3745117l2.6992188,2.7797852L15.4334221,16.3093033z"/>
	<rect class="st0" width="20" height="20"/>
</g>
</svg>
