<?xml version="1.0" encoding="utf-8"?>
<!-- Generator: Adobe Illustrator 19.0.1, SVG Export Plug-In . SVG Version: 6.00 Build 0)  -->
<svg version="1.1" id="Layer_1" xmlns="http://www.w3.org/2000/svg" xmlns:xlink="http://www.w3.org/1999/xlink" x="0px" y="0px"
	 viewBox="0 0 20 20" style="enable-background:new 0 0 20 20;" xml:space="preserve">
<style type="text/css">
	.st0{fill:none;}
</style>
<g>
	<rect x="-0.0000004" class="st0" width="20" height="20"/>
	<g>
		<path d="M16.3615856,3.657897l0.0000114,5.364748l-8.1398954,8.1495619L2.8477073,11.798214l8.1491528-8.1403065
			L16.3615856,3.657897 M17.4138737,2.6056097C17.3226261,2.5143404,17.1965504,2.4579,17.0572338,2.4579l-6.1394615,0.0000107
			c-0.267312-0.0000107-0.5238018,0.1060727-0.7129755,0.295074l-8.3408527,8.3319178
			c-0.3939604,0.39396-0.3939281,1.0326719,0,1.4266005l5.6444464,5.6444454
			c0.393971,0.3939724,1.032661,0.3939819,1.4266219,0.000021l8.3315506-8.3413038
			c0.1889591-0.1891308,0.295084-0.4455786,0.2950306-0.7129335l0.0000114-6.1394615
			C17.5616055,2.8229983,17.5051537,2.6968896,17.4138737,2.6056097L17.4138737,2.6056097z"/>
		<path d="M13.3837624,8.2357531c0.8822756,0,1.5999994-0.7176652,1.5999994-1.5999408
			c0-0.8823352-0.7177238-1.5999999-1.5999994-1.5999999c-0.8822765,0-1.6000004,0.7176647-1.6000004,1.5999999
			C11.783762,7.5180879,12.5014858,8.2357531,13.3837624,8.2357531z M13.3837624,6.0358109
			c0.3308249,0,0.5999994,0.2691178,0.5999994,0.5999999c0,0.3308253-0.2691746,0.5999432-0.5999994,0.5999432
			c-0.3308258,0-0.6000004-0.2691178-0.6000004-0.5999432C12.783762,6.3049288,13.0529366,6.0358109,13.3837624,6.0358109z"/>
	</g>
</g>
</svg>
