<?xml version="1.0" encoding="utf-8"?>
<!-- Generator: Adobe Illustrator 19.0.1, SVG Export Plug-In . SVG Version: 6.00 Build 0)  -->
<svg version="1.1" id="Layer_1" xmlns="http://www.w3.org/2000/svg" xmlns:xlink="http://www.w3.org/1999/xlink" x="0px" y="0px"
	 viewBox="0 0 20 20" style="enable-background:new 0 0 20 20;" xml:space="preserve">
<style type="text/css">
	.st0{fill:none;}
</style>
<g>
	<rect x="-0.0000004" class="st0" width="20" height="20"/>
	<g>
		<g>
			<g>
				
					<rect x="8.7733307" y="7.8677535" transform="matrix(-0.7071499 -0.7070636 0.7070636 -0.7071499 14.2532225 22.439167)" width="6.0003662" height="0.800293"/>
			</g>
		</g>
	</g>
	<path d="M18.8389587,7.5548105l-2.4735794-2.4735789l-0.3534241,0.3534241c-0.3912296,0.3912306-1.0255289,0.3912735-1.4168024,0
		c-0.3912306-0.3912311-0.3911877-1.0255294,0.0000429-1.41676l0.3534241-0.3534241l-2.4736223-2.4736221
		c-0.1952486-0.1952485-0.4511347-0.2928296-0.7070637-0.2929159c-0.255929,0-0.5118151,0.0976674-0.7070637,0.2929159
		L1.1611598,11.09056c-0.3906695,0.390584-0.3906264,1.023674-0.0000432,1.4141703l6.3639612,6.364048
		c0.1952481,0.1952477,0.4511776,0.2928734,0.7071066,0.2928734s0.5117722-0.0976257,0.7070637-0.2929173l9.8997107-9.8997107
		C19.2294559,8.5785275,19.2294559,7.9453077,18.8389587,7.5548105z M8.2321415,17.8787689l-6.0810146-6.0811014l9.616807-9.6168947
		l1.5656567,1.5656564c-0.4085808,0.8230734-0.2704735,1.8506742,0.41432,2.5354681
		c0.4155293,0.4155288,0.9679565,0.6443543,1.555687,0.6443543c0.345871,0,0.6796579-0.0793252,0.9804296-0.2293005
		l1.5650082,1.5649228L8.2321415,17.8787689z"/>
</g>
</svg>
