<?xml version="1.0" encoding="utf-8"?>
<!-- Generator: Adobe Illustrator 19.0.1, SVG Export Plug-In . SVG Version: 6.00 Build 0)  -->
<svg version="1.1" id="Layer_1" xmlns="http://www.w3.org/2000/svg" xmlns:xlink="http://www.w3.org/1999/xlink" x="0px" y="0px"
	 viewBox="0 0 20 20" style="enable-background:new 0 0 20 20;" xml:space="preserve">
<style type="text/css">
	.st0{fill:none;}
</style>
<g>
	<g>
		<g>
			<path d="M9.8763351,3.7112894c1.268219,0,2.2999878,1.0317841,2.2999878,2.3000031s-1.0317688,2.3000031-2.2999878,2.3000031
				S7.5763474,7.2795115,7.5763474,6.0112925S8.6081161,3.7112894,9.8763351,3.7112894 M9.8763351,2.5112925
				c-1.9337769,0-3.5,1.5662308-3.5,3.5c0,1.9337234,1.5662231,3.5,3.5,3.5s3.5-1.5662766,3.5-3.5
				C13.3763351,4.0775232,11.810112,2.5112925,9.8763351,2.5112925L9.8763351,2.5112925z"/>
		</g>
		<path d="M9.9416428,11.5091257c2.4664917,0,4.7157593,1.559433,5.5081482,3.7233353
			c-0.8771667,0.4384537-2.9083557,1.1562414-5.5177307,1.1562414c-2.6152954,0-4.6289673-0.7470541-5.4825134-1.1968908
			C5.2580185,13.0521555,7.5031662,11.5091257,9.9416428,11.5091257 M9.9416428,10.3091211
			c-3.3827515,0-6.2050476,2.4070511-6.8577881,5.2637634c-0.0932312,0.4080963,2.8992615,2.0158224,6.8482056,2.0158224
			s6.9666138-1.5550003,6.884491-1.9383993C16.1975632,12.7597971,13.3549118,10.3091211,9.9416428,10.3091211L9.9416428,10.3091211
			z"/>
	</g>
	<rect class="st0" width="20" height="20"/>
</g>
</svg>
