<?xml version="1.0" encoding="utf-8"?>
<!-- Generator: Adobe Illustrator 19.0.1, SVG Export Plug-In . SVG Version: 6.00 Build 0)  -->
<svg version="1.1" id="Layer_1" xmlns="http://www.w3.org/2000/svg" xmlns:xlink="http://www.w3.org/1999/xlink" x="0px" y="0px"
	 viewBox="0 0 20 20" style="enable-background:new 0 0 20 20;" xml:space="preserve">
<style type="text/css">
	.st0{fill:none;}
</style>
<g>
	<polygon points="18.5,8.6000004 16.1000004,8.6000004 16.1000004,6.1999998 14.8999996,6.1999998 14.8999996,8.6000004 
		12.5,8.6000004 12.5,9.8000002 14.8999996,9.8000002 14.8999996,12.1999998 16.1000004,12.1999998 16.1000004,9.8000002 
		18.5,9.8000002 	"/>
	<g>
		<path d="M8.9574776,9.4523621c1.9337769,0,3.5-1.5662842,3.5-3.5c0-1.9337769-1.5662231-3.5-3.5-3.5
			s-3.4999995,1.5662231-3.4999995,3.5C5.457478,7.8860779,7.0237007,9.4523621,8.9574776,9.4523621z M8.9574776,3.6523743
			c1.2682495,0,2.2999878,1.0317993,2.2999878,2.2999878c0,1.2682495-1.0317383,2.2999878-2.2999878,2.2999878
			c-1.2681885,0-2.2999873-1.0317383-2.2999873-2.2999878C6.6574903,4.6841736,7.6892891,3.6523743,8.9574776,3.6523743z"/>
		<path d="M8.9574776,10.2680359c-3.382751,0-6.2050166,2.4070435-6.8577876,5.2637329
			c-0.0932007,0.4081421,2.899292,2.0158691,6.8482051,2.0158691c3.9489746,0,6.9666138-1.5550537,6.8845215-1.9384155
			C15.213398,12.7187195,12.3707466,10.2680359,8.9574776,10.2680359z M8.9478951,16.3476257
			c-2.6152949,0-4.6289668-0.7470703-5.4824824-1.1968994c0.8084717-2.1396484,3.0535889-3.6826782,5.492065-3.6826782
			c2.4664917,0,4.7157593,1.5593872,5.5081787,3.7233276C13.588459,15.6298523,11.5572701,16.3476257,8.9478951,16.3476257z"/>
	</g>
	<rect class="st0" width="20" height="20"/>
</g>
</svg>
