<svg xmlns="http://www.w3.org/2000/svg" width="76" height="15" viewBox="0 0 76 15">
    <path fill="#343A40" fill-rule="evenodd" d="M.465 15a.45.45 0 0 1-.33-.135.443.443 0 0 1-.135-.327V.462C0 .333.045.224.136.135A.45.45 0 0 1 .465 0h7.05c.813 0 1.527.103 2.14.308.613.205 1.123.493 1.53.865.407.372.713.811.92 1.317.207.507.31 1.055.31 1.645 0 .692-.136 1.278-.407 1.76-.271.48-.639.88-1.104 1.201a.228.228 0 0 0-.097.183c0 .07.04.125.117.163.671.308 1.2.737 1.588 1.289.387.551.58 1.23.58 2.038 0 .616-.112 1.183-.338 1.702-.226.52-.552.968-.978 1.346-.426.379-.943.67-1.55.875-.607.205-1.29.308-2.053.308H.465zm8.715-4.827c0-.385-.106-.695-.32-.933-.212-.237-.583-.355-1.113-.355H4.261A.373.373 0 0 0 3.99 9a.368.368 0 0 0-.116.27v1.865c0 .102.038.192.116.269a.373.373 0 0 0 .271.115h3.486c.53 0 .9-.125 1.114-.375.213-.25.32-.573.32-.97zm-.677-5.48c0-.36-.1-.648-.3-.866-.2-.218-.507-.327-.92-.327H4.26a.373.373 0 0 0-.271.115.368.368 0 0 0-.116.27V5.5c0 .103.038.192.116.27a.373.373 0 0 0 .271.115h2.808c.53 0 .9-.11 1.114-.327.213-.218.32-.507.32-.866zM14.758.461c0-.129.046-.238.136-.327a.45.45 0 0 1 .33-.135h6.914c.968 0 1.807.144 2.517.433.71.288 1.298.682 1.763 1.182a4.8 4.8 0 0 1 1.036 1.75c.226.667.34 1.372.34 2.116 0 .987-.214 1.913-.64 2.779a4.507 4.507 0 0 1-1.731 1.877l-.264.151c-.103.052-.165.125-.184.222-.02.096.003.189.068.278l2.77 3.827c.064.09.074.177.028.26-.045.083-.119.125-.222.125h-3.7c-.297 0-.542-.128-.736-.385l-2.362-3.327a.596.596 0 0 0-.272-.23.857.857 0 0 0-.348-.077H19a.373.373 0 0 0-.271.115.368.368 0 0 0-.116.27v3.172a.443.443 0 0 1-.136.327.45.45 0 0 1-.33.135h-2.924a.45.45 0 0 1-.329-.135.443.443 0 0 1-.136-.327V.462zm9.297 5.057c0-.577-.161-1.057-.484-1.442-.323-.385-.872-.577-1.646-.577H19a.373.373 0 0 0-.271.115.368.368 0 0 0-.116.27v3.23c0 .103.038.193.116.27A.373.373 0 0 0 19 7.5h2.925c.387 0 .716-.054.987-.163.271-.11.491-.254.659-.433.168-.18.29-.391.368-.635a2.46 2.46 0 0 0 .116-.75zM34.378.423a.687.687 0 0 1 .64-.423h2.905a.687.687 0 0 1 .639.423l5.752 14.154a.305.305 0 0 1-.03.288.29.29 0 0 1-.26.135H40.73a.642.642 0 0 1-.378-.115.675.675 0 0 1-.242-.308l-.542-1.404a.514.514 0 0 0-.523-.365h-5.171a.514.514 0 0 0-.523.365l-.543 1.404a.675.675 0 0 1-.242.308.642.642 0 0 1-.377.115h-3.293a.29.29 0 0 1-.261-.135.305.305 0 0 1-.03-.288L34.379.423zm3.35 8.904c.104 0 .178-.039.224-.115a.307.307 0 0 0 .029-.25l-1.375-3.674c-.026-.064-.072-.096-.136-.096-.065 0-.11.032-.136.096L34.94 8.962a.307.307 0 0 0 .029.25c.045.076.12.115.223.115h2.537zM48.459 0c.324 0 .575.122.756.365l6.217 7.712c.039.064.087.083.145.058A.136.136 0 0 0 55.664 8V.462c0-.129.045-.238.135-.327A.45.45 0 0 1 56.13 0h2.924a.45.45 0 0 1 .33.135c.09.09.135.198.135.327v14.076a.443.443 0 0 1-.136.327.45.45 0 0 1-.329.135h-2.344c-.322 0-.574-.122-.755-.365l-6.217-7.693c-.039-.064-.087-.083-.145-.057a.136.136 0 0 0-.087.134v7.52a.443.443 0 0 1-.136.326.45.45 0 0 1-.33.135h-2.924a.45.45 0 0 1-.33-.135.443.443 0 0 1-.135-.327V.462c0-.129.046-.238.136-.327a.45.45 0 0 1 .33-.135h2.343zm20.395 0c1.175 0 2.211.199 3.109.596.897.398 1.643.94 2.237 1.625a6.99 6.99 0 0 1 1.346 2.394c.303.91.455 1.872.455 2.885a9.123 9.123 0 0 1-.455 2.904 6.888 6.888 0 0 1-1.346 2.384c-.594.68-1.34 1.218-2.237 1.616-.898.397-1.934.596-3.109.596h-6.546a.45.45 0 0 1-.33-.135.443.443 0 0 1-.135-.327V.462c0-.129.045-.238.136-.327A.45.45 0 0 1 62.307 0h6.546zm-.29 3.73h-2.46a.373.373 0 0 0-.271.116.368.368 0 0 0-.116.27v6.788c0 .102.038.192.116.27a.373.373 0 0 0 .271.114h2.46c.58 0 1.09-.092 1.53-.278a3.044 3.044 0 0 0 1.104-.78c.297-.333.52-.73.668-1.192.148-.461.223-.974.223-1.538 0-1.128-.297-2.038-.891-2.73-.594-.693-1.472-1.04-2.634-1.04z"/>
</svg>
