<?xml version="1.0" encoding="utf-8"?>
<!-- Generator: Adobe Illustrator 23.1.1, SVG Export Plug-In . SVG Version: 6.00 Build 0)  -->
<svg version="1.1" id="Layer_1" xmlns="http://www.w3.org/2000/svg" xmlns:xlink="http://www.w3.org/1999/xlink" x="0px" y="0px"
	 viewBox="0 0 76 15" style="enable-background:new 0 0 76 15;" xml:space="preserve">
<title>Logo@1x</title>
<desc>Created with Sketch.</desc>
<path d="M10.9,7.4c-0.1,0-0.1-0.1-0.1-0.2c0-0.1,0-0.1,0.1-0.2c0.5-0.3,0.8-0.7,1.1-1.2c0.3-0.5,0.4-1.1,0.4-1.8
	c0-0.6-0.1-1.1-0.3-1.6c-0.2-0.5-0.5-0.9-0.9-1.3c-0.4-0.4-0.9-0.7-1.5-0.9C9,0.1,8.3,0,7.5,0h-7C0.3,0,0.2,0,0.1,0.1
	C0,0.2,0,0.3,0,0.5v14.1c0,0.1,0,0.2,0.1,0.3C0.2,15,0.3,15,0.5,15h7.7c0.8,0,1.4-0.1,2.1-0.3s1.1-0.5,1.5-0.9
	c0.4-0.4,0.8-0.8,1-1.3c0.2-0.5,0.3-1.1,0.3-1.7c0-0.8-0.2-1.5-0.6-2C12.1,8.2,11.6,7.8,10.9,7.4z M3.9,3.9c0-0.1,0-0.2,0.1-0.3
	c0.1-0.1,0.2-0.1,0.3-0.1h3c0.4,0,0.7,0.1,0.9,0.3s0.3,0.5,0.3,0.9c0,0.4-0.1,0.6-0.3,0.9C8,5.8,7.6,5.9,7.1,5.9H4.3
	c-0.1,0-0.2,0-0.3-0.1S3.9,5.6,3.9,5.5V3.9z M8.9,11.1c-0.2,0.2-0.6,0.4-1.1,0.4H4.3c-0.1,0-0.2,0-0.3-0.1c-0.1-0.1-0.1-0.2-0.1-0.3
	V9.3c0-0.1,0-0.2,0.1-0.3s0.2-0.1,0.3-0.1h3.5c0.5,0,0.9,0.1,1.1,0.4c0.2,0.2,0.3,0.5,0.3,0.9C9.2,10.6,9.1,10.9,8.9,11.1z"/>
<path d="M25,10.8C25,10.7,25,10.6,25,10.5c0-0.1,0.1-0.2,0.2-0.2l0.3-0.2c0.8-0.5,1.3-1.1,1.7-1.9c0.4-0.9,0.6-1.8,0.6-2.8
	c0-0.7-0.1-1.4-0.3-2.1c-0.2-0.7-0.6-1.2-1-1.8c-0.5-0.5-1.1-0.9-1.8-1.2S23.1,0,22.1,0h-6.9c-0.1,0-0.2,0-0.3,0.1
	c-0.1,0.1-0.1,0.2-0.1,0.3v14.1c0,0.1,0,0.2,0.1,0.3C15,15,15.1,15,15.2,15h2.9c0.1,0,0.2,0,0.3-0.1c0.1-0.1,0.1-0.2,0.1-0.3v-3.2
	c0-0.1,0-0.2,0.1-0.3C18.8,11,18.9,11,19,11h1.2c0.1,0,0.2,0,0.3,0.1s0.2,0.1,0.3,0.2l2.4,3.3c0.2,0.3,0.4,0.4,0.7,0.4h3.7
	c0.1,0,0.2,0,0.2-0.1s0-0.2,0-0.3L25,10.8z M23.9,6.3c-0.1,0.2-0.2,0.5-0.4,0.6c-0.2,0.2-0.4,0.3-0.7,0.4c-0.3,0.1-0.6,0.2-1,0.2H19
	c-0.1,0-0.2,0-0.3-0.1c-0.1-0.1-0.1-0.2-0.1-0.3V3.9c0-0.1,0-0.2,0.1-0.3c0.1-0.1,0.2-0.1,0.3-0.1h2.9c0.8,0,1.3,0.2,1.6,0.6
	c0.3,0.4,0.5,0.9,0.5,1.4C24.1,5.8,24,6,23.9,6.3z"/>
<path d="M38.6,0.4c-0.1-0.1-0.1-0.2-0.3-0.3C38.2,0,38.1,0,37.9,0H35c-0.1,0-0.3,0-0.4,0.1c-0.1,0.1-0.2,0.2-0.3,0.3l-5.8,14.2
	c0,0.1,0,0.2,0,0.3c0.1,0.1,0.1,0.1,0.3,0.1h3.3c0.1,0,0.3,0,0.4-0.1c0.1-0.1,0.2-0.2,0.2-0.3l0.5-1.4c0.1-0.2,0.3-0.4,0.5-0.4H39
	c0.3,0,0.4,0.1,0.5,0.4l0.5,1.4c0.1,0.1,0.1,0.2,0.2,0.3c0.1,0.1,0.2,0.1,0.4,0.1H44c0.1,0,0.2,0,0.3-0.1c0.1-0.1,0.1-0.2,0-0.3
	L38.6,0.4z M38,9.2c0,0.1-0.1,0.1-0.2,0.1h-2.5c-0.1,0-0.2,0-0.2-0.1c0-0.1-0.1-0.2,0-0.2l1.4-3.7c0-0.1,0.1-0.1,0.1-0.1
	c0.1,0,0.1,0,0.1,0.1L38,9C38,9.1,38,9.1,38,9.2z"/>
<path d="M59.1,0h-2.9c-0.1,0-0.2,0-0.3,0.1c-0.1,0.1-0.1,0.2-0.1,0.3V8c0,0.1,0,0.1-0.1,0.1c-0.1,0-0.1,0-0.1-0.1l-6.2-7.7
	C49,0.1,48.8,0,48.5,0h-2.3c-0.1,0-0.2,0-0.3,0.1c-0.1,0.1-0.1,0.2-0.1,0.3v14.1c0,0.1,0,0.2,0.1,0.3C45.9,15,46,15,46.1,15H49
	c0.1,0,0.2,0,0.3-0.1c0.1-0.1,0.1-0.2,0.1-0.3V7c0-0.1,0-0.1,0.1-0.1c0.1,0,0.1,0,0.1,0.1l6.2,7.7c0.2,0.2,0.4,0.4,0.8,0.4h2.3
	c0.1,0,0.2,0,0.3-0.1c0.1-0.1,0.1-0.2,0.1-0.3V0.5c0-0.1,0-0.2-0.1-0.3C59.3,0,59.2,0,59.1,0z"/>
<path d="M75.5,4.6c-0.3-0.9-0.8-1.7-1.3-2.4C73.6,1.5,72.9,1,72,0.6C71.1,0.2,70,0,68.9,0h-6.5c-0.1,0-0.2,0-0.3,0.1
	c-0.1,0.1-0.1,0.2-0.1,0.3v14.1c0,0.1,0,0.2,0.1,0.3c0.1,0.1,0.2,0.1,0.3,0.1h6.5c1.2,0,2.2-0.2,3.1-0.6c0.9-0.4,1.6-0.9,2.2-1.6
	c0.6-0.7,1-1.5,1.3-2.4C75.8,9.5,76,8.5,76,7.5C76,6.5,75.8,5.5,75.5,4.6z M71.9,9c-0.1,0.5-0.4,0.9-0.7,1.2
	c-0.3,0.3-0.7,0.6-1.1,0.8c-0.4,0.2-0.9,0.3-1.5,0.3h-2.5c-0.1,0-0.2,0-0.3-0.1c-0.1-0.1-0.1-0.2-0.1-0.3V4.1c0-0.1,0-0.2,0.1-0.3
	c0.1-0.1,0.2-0.1,0.3-0.1h2.5c1.2,0,2,0.3,2.6,1c0.6,0.7,0.9,1.6,0.9,2.7C72.1,8.1,72,8.6,71.9,9z"/>
</svg>
