<?xml version="1.0" encoding="utf-8"?>
<!-- Generator: Adobe Illustrator 19.0.1, SVG Export Plug-In . SVG Version: 6.00 Build 0)  -->
<svg version="1.1" id="Layer_1" xmlns="http://www.w3.org/2000/svg" xmlns:xlink="http://www.w3.org/1999/xlink" x="0px" y="0px"
	 viewBox="0 0 20 20" style="enable-background:new 0 0 20 20;" xml:space="preserve">
<style type="text/css">
	.st0{fill:none;}
</style>
<g>
	<g>
		<g>
			<g>
				<path id="SVGID_5_" d="M14.3310699,13.1228027H6.2871242c-2.3779297,0-4.3115234-1.9345703-4.3115234-4.3125
					c0-2.1035156,1.4755858-3.8476562,3.5527344-4.2568359c0.9091797-1.5683594,2.594727-2.5302734,4.4716802-2.5302734
					c2.3496094,0,4.4140625,1.5644531,5.0634766,3.7773438c1.6679688,0.3505859,2.9609375,1.8925781,2.9609375,3.6289062
					C18.0244293,11.5007324,16.402359,13.1228027,14.3310699,13.1228027z"/>
			</g>
		</g>
		<path d="M15.7700348,15.5031738H4.2299953c-0.3310547,0-0.5996094-0.2685547-0.5996094-0.5996094
			s0.2685547-0.5996094,0.5996094-0.5996094h11.5400391c0.3310547,0,0.5996094,0.2685547,0.5996094,0.5996094
			S16.1010895,15.5031738,15.7700348,15.5031738z"/>
		<path d="M15.7837067,17.9768066H4.2436671c-0.3310547,0-0.5996094-0.2685547-0.5996094-0.5996094
			s0.2685547-0.5996094,0.5996094-0.5996094h11.5400391c0.3310547,0,0.5996094,0.2685547,0.5996094,0.5996094
			S16.1147614,17.9768066,15.7837067,17.9768066z"/>
	</g>
	<rect x="0.0000148" class="st0" width="20" height="20"/>
</g>
</svg>
