<?xml version="1.0" encoding="utf-8"?>
<!-- Generator: Adobe Illustrator 19.0.1, SVG Export Plug-In . SVG Version: 6.00 Build 0)  -->
<svg version="1.1" id="Layer_1" xmlns="http://www.w3.org/2000/svg" xmlns:xlink="http://www.w3.org/1999/xlink" x="0px" y="0px"
	 viewBox="0 0 20 20" style="enable-background:new 0 0 20 20;" xml:space="preserve">
<style type="text/css">
	.st0{fill:none;}
</style>
<g>
	<rect x="0.0000148" class="st0" width="20" height="20"/>
	<g id="icon_2_">
		<path d="M10.9418592,17.7810268c-0.6875,0-1.3828125-0.0917969-2.0693359-0.2802734
			C4.7543588,16.369894,2.3227181,12.0984097,3.4545541,7.979269c0.546875-1.9951172,1.8398438-3.6582031,3.6376953-4.6816406
			c1.7988124-1.0234375,3.8867192-1.2841797,5.8837895-0.7363281c0.2197266,0.0585938,0.4375,0.1318359,0.6533203,0.2138672
			c0.2128906,0.0820312,0.3613281,0.2773438,0.3828125,0.5039062s-0.0878906,0.4462891-0.28125,0.5664062
			c-1.2089844,0.75-2.0820312,1.9179688-2.4580078,3.2900391c-0.8203125,2.9902344,0.9443359,6.0898438,3.9345703,6.9101562
			h0.0009766c0.3466797,0.0957031,0.7021484,0.1572266,1.057601,0.1826172c0.2285328,0.0166016,0.4287281,0.1621094,0.513689,0.375
			c0.0859375,0.2128906,0.0419922,0.4560547-0.1123047,0.6259766C15.172328,16.8816128,13.0951796,17.7810268,10.9418592,17.7810268
			z"/>
	</g>
</g>
</svg>
