<?xml version="1.0" encoding="utf-8"?>
<!-- Generator: Adobe Illustrator 19.0.1, SVG Export Plug-In . SVG Version: 6.00 Build 0)  -->
<svg version="1.1" id="Layer_1" xmlns="http://www.w3.org/2000/svg" xmlns:xlink="http://www.w3.org/1999/xlink" x="0px" y="0px"
	 viewBox="0 0 20 20" style="enable-background:new 0 0 20 20;" xml:space="preserve">
<style type="text/css">
	.st0{fill:none;}
</style>
<g>
	<rect x="0.0000148" class="st0" width="20" height="20"/>
	<g>
		<g>
			<g>
				<path id="SVGID_4_" d="M14.3310852,13.1228027H6.2871389c-2.3779297,0-4.3115234-1.9345703-4.3115234-4.3125
					c0-2.1035156,1.4755858-3.8476562,3.5527344-4.2568359c0.9091797-1.5683594,2.5947275-2.5302734,4.4716806-2.5302734
					c2.3496094,0,4.4140625,1.5644531,5.0634766,3.7773438c1.6679688,0.3505859,2.9609375,1.8925781,2.9609375,3.6289062
					C18.0244446,11.5007324,16.4023743,13.1228027,14.3310852,13.1228027z"/>
			</g>
		</g>
		<path d="M5.6751537,17.2800293c-0.0703125,0-0.140625-0.0126953-0.2099609-0.0380859
			c-0.3105469-0.1162109-0.4677734-0.4619141-0.3525391-0.7724609l0.7871094-2.1064453
			c0.1171875-0.3105469,0.4638672-0.4658203,0.7724609-0.3525391c0.3105469,0.1162109,0.4677734,0.4619141,0.3525391,0.7724609
			l-0.7871094,2.1064453C6.1468334,17.1306152,5.9183178,17.2800293,5.6751537,17.2800293z"/>
		<path d="M9.2796459,17.2800293c-0.0703125,0-0.1416016-0.0126953-0.2109375-0.0390625
			c-0.3105469-0.1162109-0.4667969-0.4619141-0.3505859-0.7724609l0.7910156-2.1064453
			c0.1162109-0.3095703,0.4638672-0.4667969,0.7724609-0.3505859c0.3105469,0.1162109,0.4667969,0.4619141,0.3505859,0.7724609
			l-0.7910156,2.1064453C9.7513256,17.1306152,9.52281,17.2800293,9.2796459,17.2800293z"/>
		<path d="M12.8870678,17.2800293c-0.0703125,0-0.140625-0.0126953-0.2099609-0.0390625
			c-0.3105469-0.1152344-0.4677734-0.4609375-0.3515625-0.7714844l0.7880859-2.1064453
			c0.1162109-0.3105469,0.4619141-0.4677734,0.7714844-0.3515625c0.3105469,0.1152344,0.4677734,0.4609375,0.3515625,0.7714844
			l-0.7880859,2.1064453C13.3587475,17.1306152,13.1302319,17.2800293,12.8870678,17.2800293z"/>
	</g>
</g>
</svg>
