<?xml version="1.0" encoding="utf-8"?>
<!-- Generator: Adobe Illustrator 19.0.1, SVG Export Plug-In . SVG Version: 6.00 Build 0)  -->
<svg version="1.1" id="Layer_1" xmlns="http://www.w3.org/2000/svg" xmlns:xlink="http://www.w3.org/1999/xlink" x="0px" y="0px"
	 viewBox="0 0 20 20" style="enable-background:new 0 0 20 20;" xml:space="preserve">
<style type="text/css">
	.st0{fill:none;}
</style>
<g>
	<circle cx="7.891089" cy="8.428937" r="0.6000061"/>
	<circle cx="5.156775" cy="8.428937" r="0.6000061"/>
	<circle cx="9.391058" cy="5.9289064" r="0.6000061"/>
	<circle cx="6.3910584" cy="5.9289064" r="0.6000061"/>
	<circle cx="7.891089" cy="3.4000063" r="0.6000061"/>
	<circle cx="5.156775" cy="3.4000063" r="0.6000061"/>
	<g>
		<rect class="st0" width="20" height="20"/>
		<path d="M15.0093746,5.3147707c-1.9853516,0-3.5996094,1.6142578-3.5996094,3.5996094
			c0,0.3310547,0.2685547,0.5996094,0.5996094,0.5996094s0.5996094-0.2685547,0.5996094-0.5996094
			c0-1.3232422,1.0771484-2.4003906,2.4003906-2.4003906s2.4003906,1.0771484,2.4003906,2.4003906
			s-1.0771484,2.4003906-2.4003906,2.4003906h-12.21875c-0.3310547,0-0.5996094,0.2685547-0.5996094,0.5996094
			s0.2685547,0.5996094,0.5996094,0.5996094h12.21875c1.9853516,0,3.5996094-1.6142578,3.5996094-3.5996094
			S16.9947262,5.3147707,15.0093746,5.3147707z"/>
		<path d="M13.702734,13.4807863H4.5572267c-0.3310547,0-0.5996094,0.2685547-0.5996094,0.5996094
			s0.2685547,0.5996094,0.5996094,0.5996094h9.1455078c0.4960938,0,0.9003906,0.4042969,0.9003906,0.9003906
			c0,0.4960928-0.4042969,0.9003897-0.9003906,0.9003897c-0.40625,0-0.7636719-0.2734375-0.8691406-0.6650381
			c-0.0859375-0.3193359-0.4160156-0.5126953-0.7363281-0.421875c-0.3193359,0.0869141-0.5087891,0.4160156-0.421875,0.7363272
			c0.2470703,0.9121094,1.0810547,1.5498047,2.0273438,1.5498047c1.1582031,0,2.0996094-0.9414062,2.0996094-2.0996084
			S14.8609371,13.4807863,13.702734,13.4807863z"/>
	</g>
</g>
</svg>
