<?xml version="1.0" encoding="utf-8"?>
<!-- Generator: Adobe Illustrator 19.0.1, SVG Export Plug-In . SVG Version: 6.00 Build 0)  -->
<svg version="1.1" id="Layer_1" xmlns="http://www.w3.org/2000/svg" xmlns:xlink="http://www.w3.org/1999/xlink" x="0px" y="0px"
	 viewBox="0 0 20 20" style="enable-background:new 0 0 20 20;" xml:space="preserve">
<style type="text/css">
	.st0{fill:none;}
</style>
<g>
	<g>
		<rect x="0.0000148" class="st0" width="20" height="20"/>
		<g>
			<path d="M15.086297,6.8005371c-0.6494141-2.2128906-2.7138672-3.7773438-5.0634766-3.7773438
				c-1.8769531,0-3.5625005,0.9619141-4.4716802,2.5302734C3.4739919,5.9626465,1.9984061,7.7067871,1.9984061,9.8103027
				c0,2.3779297,1.9335936,4.3125,4.3115234,4.3125h0.4708252c0.0164795-0.0142212,0.0265503-0.0341797,0.0436401-0.0477905
				c-0.2659912-0.2116699-0.4567871-0.5014038-0.5464478-0.8354492c-0.1109619-0.4130859-0.0540771-0.8445435,0.1608887-1.2162476
				c0.2858276-0.4927368,0.8164673-0.7987671,1.3846436-0.7987671c0.1997075,0,0.3977666,0.0379028,0.5831914,0.1105957
				c0.1160278-0.7686768,0.7810669-1.3598022,1.581665-1.3598022s1.4656372,0.5911255,1.581665,1.3598633
				c0.1854858-0.0728149,0.3834839-0.1106567,0.5831909-0.1106567c0.5682373,0,1.0988159,0.3060913,1.385376,0.7999878
				c0.2142334,0.3704834,0.2711182,0.8019409,0.1601562,1.2150269c-0.0896606,0.3339233-0.2803345,0.6235352-0.5464478,0.8353271
				c0.0171509,0.0136108,0.0272217,0.0336304,0.0437012,0.0479126h1.1578979c2.0712881,0,3.6933584-1.6220703,3.6933584-3.6933594
				C18.0472336,8.6931152,16.7542648,7.151123,15.086297,6.8005371z"/>
		</g>
	</g>
	<path d="M12.6729059,12.5251465c-0.1660156-0.2861328-0.5302734-0.3867188-0.8193359-0.2197266l-1.265625,0.7307129v-1.4611816
		c0-0.3310547-0.2685547-0.5996094-0.5996094-0.5996094s-0.5996094,0.2685547-0.5996094,0.5996094v1.4611816l-1.265625-0.7307129
		c-0.289063-0.1669922-0.6533208-0.0664062-0.8193364,0.2197266c-0.1660156,0.2871094-0.0673828,0.6533203,0.2197266,0.8193359
		l1.2651982,0.7304688l-1.2651982,0.7304688c-0.2871094,0.1660156-0.3857422,0.5322266-0.2197266,0.8193359
		c0.1113281,0.1923828,0.3125,0.3007812,0.5205078,0.3007812c0.1015625,0,0.204102-0.0263672,0.2988286-0.0810547
		l1.265625-0.7307129v1.4611816c0,0.3310547,0.2685547,0.5996094,0.5996094,0.5996094s0.5996094-0.2685547,0.5996094-0.5996094
		v-1.4611816l1.265625,0.7307129c0.0947266,0.0546875,0.1972656,0.0810547,0.2988281,0.0810547
		c0.2080078,0,0.4091797-0.1083984,0.5205078-0.3007812c0.1660156-0.2871094,0.0673828-0.6533203-0.2197266-0.8193359
		l-1.2651978-0.7304688l1.2651978-0.7304688C12.7402887,13.1784668,12.8389215,12.8122559,12.6729059,12.5251465z"/>
</g>
</svg>
