<?xml version="1.0" encoding="utf-8"?>
<!-- Generator: Adobe Illustrator 19.0.1, SVG Export Plug-In . SVG Version: 6.00 Build 0)  -->
<svg version="1.1" id="Layer_1" xmlns="http://www.w3.org/2000/svg" xmlns:xlink="http://www.w3.org/1999/xlink" x="0px" y="0px"
	 viewBox="0 0 20 20" style="enable-background:new 0 0 20 20;" xml:space="preserve">
<style type="text/css">
	.st0{fill:none;}
</style>
<g>
	<g>
		<rect x="16.783905" y="8.0136719" width="1.8076172" height="1.1992188"/>
	</g>
	<g>
		
			<rect x="15.6923342" y="3.3589394" transform="matrix(-0.7071068 -0.7071068 0.7071068 -0.7071068 24.7187996 18.9869118)" width="1.1987678" height="2.0301704"/>
	</g>
	<g>
		<rect x="11.4528503" y="1.8383125" width="1.1992188" height="1.734375"/>
	</g>
	<g>
		
			<rect x="6.9739633" y="3.847883" transform="matrix(-0.7071068 -0.7071068 0.7071068 -0.7071068 10.3166437 13.1678267)" width="1.8230101" height="1.1987671"/>
	</g>
	<g>
		<rect x="0.0000148" class="st0" width="20" height="20"/>
		<g>
			<g>
				<path id="SVGID_3_" d="M13.1803894,18.2958984h-7.8125c-2.3193359,0-4.2050781-1.8857422-4.2050781-4.2050781
					c0-2.0488281,1.4355468-3.7480469,3.4570312-4.1494141c0.8867188-1.5253906,2.5273438-2.4599609,4.3535156-2.4599609
					c2.2861328,0,4.2958984,1.5195312,4.9316406,3.6708984C15.5280457,11.4970703,16.783905,13,16.783905,14.6914062
					C16.783905,16.7128906,15.2008972,18.2958984,13.1803894,18.2958984z"/>
			</g>
		</g>
	</g>
	<g>
		<path d="M8.9733429,6.4814444c2.5142822,0,4.7843018,1.5586548,5.704895,3.8530273
			c0.00177,0.0006104,0.0033569,0.001709,0.005127,0.0023193c0.4734497-0.5969849,0.7679443-1.3421021,0.7679443-2.163208
			c0-1.9329834-1.5669556-3.5-3.5-3.5c-1.3173828,0-2.4509277,0.7365112-3.0481567,1.8120117
			C8.9268341,6.4853506,8.9496002,6.4814444,8.9733429,6.4814444z"/>
	</g>
</g>
</svg>
