<?xml version="1.0" encoding="utf-8"?>
<!-- Generator: Adobe Illustrator 19.0.1, SVG Export Plug-In . SVG Version: 6.00 Build 0)  -->
<svg version="1.1" id="Layer_1" xmlns="http://www.w3.org/2000/svg" xmlns:xlink="http://www.w3.org/1999/xlink" x="0px" y="0px"
	 viewBox="0 0 20 20" style="enable-background:new 0 0 20 20;" xml:space="preserve">
<style type="text/css">
	.st0{fill:none;}
</style>
<g>
	<g>
		<rect x="0.0000148" class="st0" width="20" height="20"/>
	</g>
	<g>
		<path d="M15.3863459,5.6954956c-0.6878662-2.3440552-2.8746948-4.0012207-5.3635254-4.0012207
			c-1.9882202,0-3.7736821,1.0189209-4.7367558,2.6802368C3.0858083,4.8079224,1.5228201,6.6554565,1.5228201,8.883606
			c0,2.5188599,2.0481567,4.5681152,4.5670166,4.5681152h0.6437988l0.0268555-0.0552979l1.9302373-3.9771118h4.5745239
			l-1.6625366,2.8388062h1.932312l-0.8704224,1.1936035h1.9459229c2.1940298,0,3.9122915-1.7182007,3.9122915-3.9122925
			C18.5228195,7.7001953,17.1531906,6.0668335,15.3863459,5.6954956z"/>
	</g>
	<polygon points="11.5207214,10.4192896 9.316925,10.4192896 7.6601248,13.8330469 9.3298645,13.8330469 8.39151,17.6139908 
		11.5680847,13.2580957 9.8581848,13.2580957 	"/>
</g>
</svg>
