<?xml version="1.0" encoding="utf-8"?>
<!-- Generator: Adobe Illustrator 19.0.1, SVG Export Plug-In . SVG Version: 6.00 Build 0)  -->
<svg version="1.1" id="Layer_1" xmlns="http://www.w3.org/2000/svg" xmlns:xlink="http://www.w3.org/1999/xlink" x="0px" y="0px"
	 viewBox="0 0 20 20" style="enable-background:new 0 0 20 20;" xml:space="preserve">
<style type="text/css">
	.st0{fill:none;}
</style>
<g>
	<path d="M2.000015,8.4992189h6.5c1.1582031,0,2.0996094-0.9414062,2.0996094-2.0996094S9.6582184,4.3000002,8.5000153,4.3000002
		c-0.9628911,0-1.7998052,0.6503906-2.0351567,1.5830078C6.3838038,6.2042971,6.5791163,6.5304689,6.9004054,6.6115236
		c0.3242188,0.078125,0.6474609-0.1142578,0.7285156-0.4355469C7.729507,5.7775393,8.0879059,5.4992189,8.5000153,5.4992189
		c0.4960938,0,0.9003906,0.4042969,0.9003906,0.9003906S8.996109,7.3000002,8.5000153,7.3000002H2.0000148
		c-0.3310546,0-0.5996093,0.2685547-0.5996093,0.5996094S1.6689605,8.4992189,2.000015,8.4992189z"/>
	<path d="M18.5996246,7.8996096c0-1.9853516-1.6142578-3.5996094-3.5996094-3.5996094s-3.5996094,1.6142578-3.5996094,3.5996094
		c0,0.3310547,0.2685547,0.5996094,0.5996094,0.5996094s0.5996094-0.2685547,0.5996094-0.5996094
		c0-1.3232422,1.0771484-2.4003906,2.4003906-2.4003906s2.4003906,1.0771484,2.4003906,2.4003906
		s-1.0771484,2.4003906-2.4003906,2.4003906h-13c-0.3310546,0-0.5996093,0.2685547-0.5996093,0.5996094
		s0.2685547,0.5996094,0.5996093,0.5996094h13C16.9853668,11.4992189,18.5996246,9.8849611,18.5996246,7.8996096z"/>
	<path d="M13.4765778,15.4660158c-0.4052734,0-0.7626953-0.2734375-0.8691406-0.6650391
		c-0.0869141-0.3183594-0.4150391-0.5107422-0.7363281-0.421875c-0.3193359,0.0869141-0.5087891,0.4160156-0.421875,0.7363281
		c0.2470703,0.913085,1.0810547,1.5498037,2.0273438,1.5498037c1.1582031,0,2.0996094-0.9414053,2.0996094-2.0996084
		s-0.9414062-2.0996094-2.0996094-2.0996094H4.3310695c-0.3310547,0-0.5996091,0.2685547-0.5996091,0.5996094
		s0.2685544,0.5996094,0.5996091,0.5996094h9.1455078c0.4960938,0,0.9003906,0.4042969,0.9003906,0.9003906
		S13.9726715,15.4660158,13.4765778,15.4660158z"/>
	<rect x="0.0000148" class="st0" width="20" height="20"/>
</g>
</svg>
