<?xml version="1.0" encoding="utf-8"?>
<!-- Generator: Adobe Illustrator 19.0.1, SVG Export Plug-In . SVG Version: 6.00 Build 0)  -->
<svg version="1.1" id="Layer_1" xmlns="http://www.w3.org/2000/svg" xmlns:xlink="http://www.w3.org/1999/xlink" x="0px" y="0px"
	 viewBox="0 0 20 20" style="enable-background:new 0 0 20 20;" xml:space="preserve">
<style type="text/css">
	.st0{fill:none;}
</style>
<g>
	<g>
		<rect x="0" class="st0" width="20" height="20"/>
	</g>
	<g>
		
			<rect x="2.7778945" y="1.3412899" transform="matrix(0.7071068 0.7071068 -0.7071068 0.7071068 3.4376118 -1.3739336)" width="1.1987916" height="4.2426157"/>
		
			<rect x="14.4170246" y="2.8680501" transform="matrix(0.7071068 0.7071068 -0.7071068 0.7071068 7.2958198 -10.6787758)" width="4.2426152" height="1.1987919"/>
		<path d="M9.9521484,2.5455933c-4.4160156,0-7.9920044,3.5839844-7.9920044,8c0,4.4159546,3.5759888,8,7.9920044,8
			c4.4240112,0,8.0079956-3.5840454,8.0079956-8C17.960144,6.1295776,14.3761597,2.5455933,9.9521484,2.5455933z
			 M12.34021,14.2545776l-3.0625-2.9423828V5.9254761h1.1992188v4.875l2.6953125,2.5888672L12.34021,14.2545776z"/>
	</g>
</g>
</svg>
