<?xml version="1.0" encoding="utf-8"?>
<!-- Generator: Adobe Illustrator 19.0.1, SVG Export Plug-In . SVG Version: 6.00 Build 0)  -->
<svg version="1.1" id="Layer_1" xmlns="http://www.w3.org/2000/svg" xmlns:xlink="http://www.w3.org/1999/xlink" x="0px" y="0px"
	 viewBox="0 0 20 20" style="enable-background:new 0 0 20 20;" xml:space="preserve">
<style type="text/css">
	.st0{fill:none;}
</style>
<g>
	<g>
		<rect x="-0.0000004" class="st0" width="20" height="20"/>
	</g>
	<g>
		<path d="M17,2.9974976h-2.5009766V1.5h-1.5v1.4974976H7.0009151V1.5h-1.5v1.4974976H2.9999995
			c-0.5523071,0-0.9999999,0.4476929-0.9999999,1v13c0,0.5522461,0.4476928,1,0.9999999,1h14c0.5522461,0,1-0.4477539,1-1v-13
			C18,3.4451904,17.5522461,2.9974976,17,2.9974976z M17,16.9974976h-14V7.6164551h14V16.9974976z"/>
		<polygon points="12.0672607,15.2811279 13.1929932,15.2811279 13.1929932,9.3248901 11.4958496,9.3248901 10.8407593,10.3894653 
			12.0672607,10.3894653 		"/>
		<path d="M8.2662964,14.3902588c-0.9792485,0.0037231-0.9511724-0.9106445-0.9511724-0.9106445H6.1929927
			c0.1635742,1.7456665,1.3759155,1.9467773,2.1750493,1.9467773s1.9220581-0.6412964,1.9355469-1.9107666
			c0.0134888-1.2695312-1.1536255-1.5145264-1.1536255-1.5145264c0.8389893-0.3513184,0.8458862-1.1248169,0.8458862-1.2553101
			c0-0.1737061-0.0493774-1.571167-1.7250366-1.571167s-1.8384404,1.619751-1.8384404,1.619751h1.0888672
			c0.1998901-0.5684814,0.712647-0.5299683,0.712647-0.5299683c0.678894,0,0.6155396,0.5623779,0.6155396,0.5623779
			c-0.0387573,0.7971191-1.032166,0.7415161-1.032166,0.7415161v0.9718628
			c1.4717412,0.050293,1.3687139,0.9718628,1.3687139,0.9718628S9.2455444,14.3865356,8.2662964,14.3902588z"/>
	</g>
</g>
</svg>
