<?xml version="1.0" encoding="utf-8"?>
<!-- Generator: Adobe Illustrator 19.0.1, SVG Export Plug-In . SVG Version: 6.00 Build 0)  -->
<svg version="1.1" id="Layer_1" xmlns="http://www.w3.org/2000/svg" xmlns:xlink="http://www.w3.org/1999/xlink" x="0px" y="0px"
	 viewBox="0 0 20 20" style="enable-background:new 0 0 20 20;" xml:space="preserve">
<style type="text/css">
	.st0{fill:none;}
</style>
<g>
	<g>
		<rect x="-0.0000004" class="st0" width="20" height="20"/>
	</g>
	<path d="M17,4.001503h-3.3948975V3.0995865c0-0.6064453-0.4931641-1.0996094-1.0996094-1.0996094H7.5054927
		c-0.6064453,0-1.0996094,0.4931641-1.0996094,1.0996094V4.001503H2.9999995v1.2000122h1.505249v11.8724976
		c0.038269,0.5221558,0.4678345,0.9259644,0.9849854,0.9259644h9.0300903c0.5170898,0,0.9466553-0.4038086,0.9849243-0.9259644
		L15.4904785,5.2015152H17V4.001503z M8.6558838,14.5632706H7.8551021v-7h0.8007817V14.5632706z M12.1558838,14.5632706h-0.8007812
		v-7h0.8007812V14.5632706z M12.4058838,4.001503H7.6051021V3.1991959h4.8007817V4.001503z"/>
</g>
</svg>
