<?xml version="1.0" encoding="utf-8"?>
<!-- Generator: Adobe Illustrator 19.0.1, SVG Export Plug-In . SVG Version: 6.00 Build 0)  -->
<svg version="1.1" id="Layer_1" xmlns="http://www.w3.org/2000/svg" xmlns:xlink="http://www.w3.org/1999/xlink" x="0px" y="0px"
	 viewBox="0 0 20 20" style="enable-background:new 0 0 20 20;" xml:space="preserve">
<style type="text/css">
	.st0{fill:none;}
	.st1{fill-rule:evenodd;clip-rule:evenodd;}
</style>
<g>
	<g>
		<rect x="-0.0000004" class="st0" width="20" height="20"/>
	</g>
	<g>
		<path class="st1" d="M10,16.5263672c-0.784668-0.7802734-1.5292969-1.4960938-2.2231445-2.1630859
			c-3.0419922-2.9228516-5.0517578-4.8540039-5.0517578-7.050293c0-1.902832,1.4345703-3.3374023,3.3374023-3.3374023
			c1.4545898,0,2.8754883,0.9423828,3.3779297,2.2412109C9.5297852,6.4482422,9.7524414,6.6005859,10,6.6005859
			c0.2480469,0,0.4707031-0.1523438,0.5595703-0.3837891c0.5019531-1.2988281,1.9228516-2.2412109,3.3779297-2.2412109
			c1.9023438,0,3.3378906,1.4345703,3.3378906,3.3374023c0,2.1958008-2.0097656,4.1264648-5.0507812,7.0493164
			C11.5302734,15.0292969,10.7851562,15.7451172,10,16.5263672z"/>
		<path d="M13.9375,4.5754881c1.5606298,0,2.7374992,1.1768703,2.7374992,2.7375002
			c0,1.94034-1.9354696,3.8003998-4.8651791,6.6159706C11.2508316,14.4661674,10.6399488,15.0532455,10,15.6829052
			c-0.6399431-0.6296539-1.2508116-1.2167168-1.8098001-1.7539272C5.2604799,11.1134081,3.325,9.2533379,3.325,7.3129883
			c0-1.5606298,1.1768701-2.7375002,2.7375-2.7375002c1.19697,0,2.4085798,0.7987404,2.8183203,1.8579397
			C9.0596504,6.8957186,9.5043201,7.2004881,10,7.2004881s0.9403496-0.3047695,1.1191797-0.7670603
			C11.5289202,5.3742285,12.74053,4.5754881,13.9375,4.5754881 M13.9375,3.3754883c-1.7106304,0-3.3512497,1.1094999-3.9375,2.625
			c-0.5862503-1.5155001-2.2286301-2.625-3.9375-2.625c-2.2251301,0-3.9375,1.6905003-3.9375,3.9375
			c0,3.0878696,3.3188701,5.47575,7.875,10.0625c4.5561199-4.58675,7.875-6.9746304,7.875-10.0625
			C17.875,5.0659885,16.1626205,3.3754883,13.9375,3.3754883L13.9375,3.3754883z"/>
	</g>
</g>
</svg>
