<?xml version="1.0" encoding="utf-8"?>
<!-- Generator: Adobe Illustrator 19.0.1, SVG Export Plug-In . SVG Version: 6.00 Build 0)  -->
<svg version="1.1" id="Layer_1" xmlns="http://www.w3.org/2000/svg" xmlns:xlink="http://www.w3.org/1999/xlink" x="0px" y="0px"
	 viewBox="0 0 20 20" style="enable-background:new 0 0 20 20;" xml:space="preserve">
<style type="text/css">
	.st0{fill:none;}
</style>
<g>
	<g>
		<rect x="-0.0000002" class="st0" width="20" height="20"/>
	</g>
	<path d="M16,8.2508545H7.1939697v-2.501709c0-1.5439453,1.2561035-2.7999268,2.7999878-2.7999268
		c1.5439453,0,2.7999878,1.2559814,2.7999878,2.7999268v1.001709h1.2000122v-1.001709c0-2.2091064-1.7908325-4-4-4
		c-2.2091064,0-4,1.7908936-4,4v2.501709H5.8947144H4c-0.5523071,0-1,0.4476318-1,1v8c0,0.5522461,0.4476929,1,1,1h12
		c0.5523071,0,1-0.4477539,1-1v-8C17,8.6984863,16.5523071,8.2508545,16,8.2508545z M10.5997925,13.4671021v1.7798462H9.4005737
		v-1.7796021c-0.3525391-0.2089844-0.6005859-0.5769043-0.6005859-1.0164795c0-0.6627197,0.5372925-1.1999512,1.2000122-1.1999512
		s1.2000122,0.5372314,1.2000122,1.1999512C11.2000122,12.8903198,10.9521484,13.2579956,10.5997925,13.4671021z"/>
</g>
</svg>
