<?xml version="1.0" encoding="utf-8"?>
<!-- Generator: Adobe Illustrator 19.0.1, SVG Export Plug-In . SVG Version: 6.00 Build 0)  -->
<svg version="1.1" id="Layer_1" xmlns="http://www.w3.org/2000/svg" xmlns:xlink="http://www.w3.org/1999/xlink" x="0px" y="0px"
	 viewBox="0 0 20 20" style="enable-background:new 0 0 20 20;" xml:space="preserve">
<style type="text/css">
	.st0{fill:none;}
</style>
<g>
	<rect x="-0.0000004" class="st0" width="20" height="20"/>
</g>
<path d="M16,8.250824h-1.9070435h-0.098999V5.749176c0-2.2091675-1.7908325-4-4-4c-2.2091069,0-4.0000005,1.7908325-4.0000005,4
	V8.250824H5.8947139H3.9999995c-0.5523071,0-1,0.4476929-1,1v8c0,0.5523071,0.4476929,1,1,1h12c0.5523071,0,1-0.4476929,1-1v-8
	C17,8.6985168,16.5523071,8.250824,16,8.250824z M10.5997925,13.4670715v1.7798462H9.4005737v-1.7796021
	c-0.3525391-0.2089844-0.6005859-0.5769043-0.6005859-1.0164795c0-0.6627197,0.5372925-1.1999512,1.2000122-1.1999512
	s1.2000122,0.5372314,1.2000122,1.1999512C11.2000122,12.8902893,10.9521484,13.2579651,10.5997925,13.4670715z
	 M12.7939453,8.250824H7.1939692V5.749176c0-1.5439453,1.256104-2.7999878,2.7999883-2.7999878
	c1.5439453,0,2.7999878,1.2560425,2.7999878,2.7999878V8.250824z"/>
</svg>
