<?xml version="1.0" encoding="utf-8"?>
<!-- Generator: Adobe Illustrator 19.0.1, SVG Export Plug-In . SVG Version: 6.00 Build 0)  -->
<svg version="1.1" id="Layer_1" xmlns="http://www.w3.org/2000/svg" xmlns:xlink="http://www.w3.org/1999/xlink" x="0px" y="0px"
	 viewBox="0 0 20 20" style="enable-background:new 0 0 20 20;" xml:space="preserve">
<style type="text/css">
	.st0{fill:none;}
</style>
<g>
	<g>
		<g>
			<rect x="-0.0000004" class="st0" width="20" height="20"/>
		</g>
	</g>
	<path d="M10,2.25c-3.2724004,0-6.065125,2.0311279-7.2016606,4.8990479h1.6464233C5.4832759,5.1338501,7.5811152,3.75,10,3.75
		c3.4462891,0,6.25,2.8037109,6.25,6.25s-2.8037109,6.25-6.25,6.25c-2.4189458,0-4.5167241-1.3838501-5.5552373-3.3991089H2.7983394
		C3.934875,15.7188721,6.7275386,17.75,10,17.75c4.2802124,0,7.75-3.4697876,7.75-7.75S14.2802124,2.25,10,2.25z"/>
	<polygon points="10.0002441,10.0046997 7.1490474,7.1490479 7.1490474,9.249939 2.4979854,9.249939 2.4979854,10.749939 
		7.1490474,10.749939 7.1490474,12.8508911 	"/>
</g>
</svg>
