<?xml version="1.0" encoding="utf-8"?>
<!-- Generator: Adobe Illustrator 22.1.0, SVG Export Plug-In . SVG Version: 6.00 Build 0)  -->
<svg version="1.1" id="Layer_1" xmlns="http://www.w3.org/2000/svg" xmlns:xlink="http://www.w3.org/1999/xlink" x="0px" y="0px"
	 viewBox="0 0 20 20" style="enable-background:new 0 0 20 20;" xml:space="preserve">
<style type="text/css">
	.st0{fill:#2A2C2E;}
</style>
<g>
	<g id="Filled-_x2F_-logout">
		<path id="Combined-Shape" class="st0" d="M11.2,2c4.3,0,7.7,3.5,7.7,7.7s-3.5,7.7-7.7,7.7c-3.3,0-6.1-2-7.2-4.9l0,0h1.6
			c1,2,3.1,3.4,5.5,3.4c3.4,0,6.2-2.8,6.2-6.2s-2.8-6.2-6.2-6.2c-2.4,0-4.5,1.4-5.5,3.4l0,0H4C5.1,4,7.9,2,11.2,2z M2.8,6.9V9h5.6
			v1.5H2.8v2.1L0,9.7L2.8,6.9z"/>
	</g>
</g>
</svg>
