<?xml version="1.0" encoding="utf-8"?>
<!-- Generator: Adobe Illustrator 19.0.1, SVG Export Plug-In . SVG Version: 6.00 Build 0)  -->
<svg version="1.1" id="Layer_1" xmlns="http://www.w3.org/2000/svg" xmlns:xlink="http://www.w3.org/1999/xlink" x="0px" y="0px"
	 viewBox="0 0 20 20" style="enable-background:new 0 0 20 20;" xml:space="preserve">
<style type="text/css">
	.st0{fill:none;}
</style>
<g>
	<path d="M14.84375,18.0291519c-0.1074219,0-0.2138672-0.0283203-0.3095703-0.0859375L10,15.2088394l-4.5341802,2.734375
		c-0.2060547,0.125-0.4667969,0.1142578-0.6621094-0.0283203c-0.1953125-0.1416016-0.2861328-0.3867188-0.2314453-0.6210938
		l1.1992188-5.1572266l-4.0019531-3.46875C1.5869137,8.5105972,1.5166012,8.2586441,1.5917965,8.0291519
		c0.0742188-0.2294922,0.2783203-0.3916016,0.5185546-0.4121094l5.2763672-0.453125l2.0605474-4.8613281
		c0.1894531-0.4433594,0.9160156-0.4433594,1.1054688,0l2.0605469,4.8613281l5.2763672,0.453125
		c0.2402344,0.0205078,0.4443359,0.1826172,0.5185547,0.4121094c0.0751953,0.2294922,0.0048828,0.4814453-0.1777344,0.6386719
		l-4.0019531,3.46875l1.1992188,5.1572266c0.0546875,0.234375-0.0361328,0.4794922-0.2314453,0.6210938
		C15.0917969,17.991066,14.9677734,18.0291519,14.84375,18.0291519z"/>
	<rect x="-0.0000004" class="st0" width="20" height="20"/>
</g>
</svg>
