<?xml version="1.0" encoding="utf-8"?>
<!-- Generator: Adobe Illustrator 19.0.1, SVG Export Plug-In . SVG Version: 6.00 Build 0)  -->
<svg version="1.1" id="Layer_1" xmlns="http://www.w3.org/2000/svg" xmlns:xlink="http://www.w3.org/1999/xlink" x="0px" y="0px"
	 viewBox="0 0 20 20" style="enable-background:new 0 0 20 20;" xml:space="preserve">
<style type="text/css">
	.st0{fill:none;}
</style>
<g>
	<g>
		<g>
			<rect x="-0.0000004" class="st0" width="20" height="20"/>
		</g>
	</g>
	<path d="M8.8352661,13.2115479l3.9761353-2.4851074c0.1900024-0.1187134,0.1900024-0.3954468,0-0.5142212L8.8352661,7.7271118
		C8.6333008,7.6008911,8.3713379,7.7460938,8.3713379,7.9842529v4.9701538
		C8.3713379,13.1925659,8.6333008,13.3377686,8.8352661,13.2115479z"/>
	<path d="M1.9003903,8.6312017v-4.5l1.7964476,1.7964478c1.4423218-1.9872437,3.7714233-3.2242432,6.2713017-3.2242432
		c4.2734375,0,7.75,3.4765625,7.75,7.75s-3.4765625,7.749999-7.75,7.749999c-2.8032231,0-5.3959966-1.5214844-6.7661138-3.9697256
		l1.3085938-0.7324219c1.1054688,1.9755859,3.1962891,3.2021475,5.45752,3.2021475c3.4462891,0,6.25-2.80371,6.25-6.249999
		s-2.8037109-6.25-6.25-6.25c-2.0976567,0-4.0565801,1.0713501-5.2053227,2.7902222l1.6375732,1.6375732H1.9003903z"/>
</g>
</svg>
