<?xml version="1.0" encoding="utf-8"?>
<!-- Generator: Adobe Illustrator 19.0.1, SVG Export Plug-In . SVG Version: 6.00 Build 0)  -->
<svg version="1.1" id="Layer_1" xmlns="http://www.w3.org/2000/svg" xmlns:xlink="http://www.w3.org/1999/xlink" x="0px" y="0px"
	 viewBox="0 0 20 20" style="enable-background:new 0 0 20 20;" xml:space="preserve">
<style type="text/css">
	.st0{fill:none;}
</style>
<g>
	<g>
		<circle cx="10.0001774" cy="10.0924683" r="2.3000596"/>
		<path d="M18.0923462,9.9994812l-1.4699097-0.8786621c-0.0498657-0.3356934-0.1251221-0.6662598-0.2248535-0.9881592
			l0.9428101-1.4307861c0.1418457-0.215332,0.1513672-0.4915771,0.0250854-0.7158203
			c-0.4524536-0.8045654-1.026123-1.5233154-1.7049561-2.1364746c-0.128418-0.1160889-0.2935791-0.177124-0.4613037-0.177124
			c-0.0809937,0-0.1626587,0.0142822-0.2410889,0.043335l-1.6060791,0.6014404
			c-0.291748-0.1689453-0.5969849-0.315918-0.913208-0.4398193l-0.5518799-1.6398926
			c-0.0812378-0.2415771-0.2893677-0.418335-0.5408325-0.4595947c-0.081604-0.0133057-0.7077026-0.0200195-1.3366089-0.0200195
			c-0.6353149,0-1.2734985,0.0068359-1.3555908,0.0203857C8.402771,1.8194275,8.1948853,1.9963074,8.1134033,2.2375183
			L7.5612178,3.8774109C7.245544,4.0013123,6.940063,4.1485291,6.6473994,4.3178406L5.04071,3.7166443
			c-0.0780029-0.0291748-0.1594238-0.043457-0.2403564-0.043457c-0.1678467,0-0.3336182,0.0612793-0.4623413,0.1776123
			c-0.6802979,0.6154785-1.2536621,1.3345947-1.7040405,2.137085C2.5079951,6.2123718,2.5178218,6.4886169,2.6593623,6.7033386
			l0.9428101,1.4295654C3.5024409,8.4554138,3.4274898,8.7861023,3.377624,9.1216736l-1.4702147,0.880127
			c-0.2207031,0.131958-0.3491211,0.3759766-0.3335571,0.6325684c0.0563965,0.9204102,0.2606812,1.817749,0.6074218,2.6671143
			c0.0970459,0.2382812,0.3189087,0.4022217,0.5751343,0.4255371l1.7073364,0.1540527
			c0.1896362,0.27771,0.401062,0.5421143,0.6322021,0.7905273L4.867187,16.3717957
			c-0.0343628,0.2550049,0.0761719,0.5075684,0.2866821,0.6551514c0.7546997,0.5291748,1.5836792,0.9284668,2.4640503,1.1867676
			c0.0636597,0.019043,0.1288452,0.0283203,0.1935425,0.0283203c0.1845093,0,0.3653569-0.0751953,0.4969487-0.2128906
			l1.1992798-1.2524414c0.1488647,0.0047607,0.3206787,0.0072021,0.4925537,0.0072021s0.343811-0.0024414,0.492981-0.0072021
			l1.2001953,1.2528076c0.1317139,0.1373291,0.3120728,0.2120361,0.4969482,0.2120361
			c0.0648193,0,0.130188-0.0092773,0.1940918-0.0280762c0.8822021-0.2592773,1.7112427-0.6591797,2.463501-1.1883545
			c0.2102051-0.1478271,0.3204346-0.4001465,0.2860718-0.6549072l-0.2287598-1.6998291
			c0.230835-0.2481689,0.4420166-0.5124512,0.631897-0.7905273l1.7079468-0.1542969
			c0.2562256-0.0233154,0.4780884-0.1876221,0.5751343-0.4259033c0.3467407-0.8508301,0.550415-1.7485352,0.605957-2.6679688
			C18.4417114,10.3750916,18.3130493,10.1314392,18.0923462,9.9994812z M10.0001965,13.5924377
			c-1.9300346,0-3.5001969-1.5701618-3.5001969-3.5001974c0-1.9298372,1.5701623-3.4998026,3.5001969-3.4998026
			c1.929904,0,3.4998035,1.5699654,3.4998035,3.4998026C13.5,12.0222759,11.9301004,13.5924377,10.0001965,13.5924377z"/>
	</g>
	<g>
		<rect x="-0.0000004" class="st0" width="20" height="20"/>
	</g>
</g>
</svg>
