<?xml version="1.0" encoding="utf-8"?>
<!-- Generator: Adobe Illustrator 19.0.1, SVG Export Plug-In . SVG Version: 6.00 Build 0)  -->
<svg version="1.1" id="Layer_1" xmlns="http://www.w3.org/2000/svg" xmlns:xlink="http://www.w3.org/1999/xlink" x="0px" y="0px"
	 viewBox="0 0 20 20" style="enable-background:new 0 0 20 20;" xml:space="preserve">
<style type="text/css">
	.st0{fill:none;}
</style>
<g>
	<path d="M14.4982424,12.8388672c-0.7791138,0-1.4710693,0.3514404-1.947876,0.8960571l-5.4691782-2.9944458
		c0.0706177-0.2359619,0.1201782-0.480835,0.1201782-0.739502c0-0.2584229-0.0494385-0.5031128-0.1199341-0.7388916
		l5.467042-2.9993286c0.4768677,0.5458984,1.1695557,0.8983765,1.9497681,0.8983765
		c1.4335938,0,2.5996084-1.1660156,2.5996084-2.5996094s-1.1660147-2.5996094-2.5996084-2.5996094
		S11.898633,3.1279297,11.898633,4.5615234c0,0.2217407,0.036438,0.4334106,0.0889282,0.6390381L6.4851799,8.2192993
		C6.0110588,7.7182617,5.3444939,7.4013672,4.601757,7.4013672c-1.4335938,0-2.5996094,1.1660156-2.5996094,2.5996094
		s1.1660156,2.5996094,2.5996094,2.5996094c0.7428589,0,1.4094238-0.3170166,1.883606-0.8181763l5.5033579,3.0131836
		c-0.0531006,0.2067871-0.0900879,0.4197388-0.0900879,0.6428833c0,1.4335938,1.1660156,2.5996094,2.5996094,2.5996094
		s2.5996084-1.1660156,2.5996084-2.5996094S15.9318361,12.8388672,14.4982424,12.8388672z"/>
	<g>
		<rect x="-0.0000004" class="st0" width="20" height="20"/>
	</g>
</g>
</svg>
