<?xml version="1.0" encoding="utf-8"?>
<!-- Generator: Adobe Illustrator 19.0.1, SVG Export Plug-In . SVG Version: 6.00 Build 0)  -->
<svg version="1.1" id="Layer_1" xmlns="http://www.w3.org/2000/svg" xmlns:xlink="http://www.w3.org/1999/xlink" x="0px" y="0px"
	 viewBox="0 0 20 20" style="enable-background:new 0 0 20 20;" xml:space="preserve">
<style type="text/css">
	.st0{fill:none;}
</style>
<g>
	<g>
		<rect x="-0.0000004" class="st0" width="20" height="20"/>
	</g>
	<path d="M18.5960388,17.5558472l-4.2261963-4.2261963c1.0186768-1.2485352,1.6300659-2.8424683,1.6300659-4.5795898
		c0-4.0040283-3.2459106-7.25-7.25-7.25c-4.0040288,0-7.2500005,3.2459717-7.2500005,7.25
		c0,4.0040894,3.2459717,7.25,7.2500005,7.25c1.7267456,0,3.3121338-0.604187,4.557312-1.6119385l4.2282715,4.2282715
		l0.1166992-0.1166992l0.0002441,0.0002441l0.8476562-0.8476562l-0.0002441-0.0002441L18.5960388,17.5558472z M11.7025452,9.3491821
		H9.3490295v2.3535156H8.1498108V9.3491821H5.7972713V8.1499634h2.3525395V5.7974243h1.1992188v2.3525391h2.3535156V9.3491821z"/>
</g>
</svg>
