<?xml version="1.0" encoding="utf-8"?>
<!-- Generator: Adobe Illustrator 19.0.1, SVG Export Plug-In . SVG Version: 6.00 Build 0)  -->
<svg version="1.1" id="Layer_1" xmlns="http://www.w3.org/2000/svg" xmlns:xlink="http://www.w3.org/1999/xlink" x="0px" y="0px"
	 viewBox="0 0 20 20" style="enable-background:new 0 0 20 20;" xml:space="preserve">
<style type="text/css">
	.st0{fill:none;}
</style>
<g>
	<g>
		<rect x="0.0000148" class="st0" width="20" height="20"/>
		<polygon points="19.4465904,15.8500013 17.046566,15.8500013 17.046566,13.4499769 15.8466139,13.4499769 15.8466139,15.8500013 
			13.4465895,15.8500013 13.4465895,17.0500145 15.8466139,17.0500145 15.8466139,19.4499779 17.046566,19.4499779 
			17.046566,17.0500145 19.4465904,17.0500145 		"/>
	</g>
	<g>
		<path d="M16.0534821,1.5500183h-13.5c-0.5522461,0-0.9999999,0.4477539-0.9999999,1v13.5c0,0.5523071,0.4477538,1,0.9999999,1
			h9.8931274v-2.2000122h2.4000244v-2.4000244l2.2068481,0.0003481V2.5500183
			C17.0534821,1.9977722,16.6057892,1.5500183,16.0534821,1.5500183z M6.8026271,13.7026672H5.5998073v-4.5h1.2028198V13.7026672z
			 M9.8994293,13.7026672H8.6988068v-9h1.2006226V13.7026672z M13.0000153,13.7026672h-1.2044678V7.2024841h1.2044678V13.7026672z"
			/>
	</g>
</g>
</svg>
