<?xml version="1.0" encoding="utf-8"?>
<!-- Generator: Adobe Illustrator 19.0.1, SVG Export Plug-In . SVG Version: 6.00 Build 0)  -->
<svg version="1.1" id="Layer_1" xmlns="http://www.w3.org/2000/svg" xmlns:xlink="http://www.w3.org/1999/xlink" x="0px" y="0px"
	 viewBox="0 0 20 20" style="enable-background:new 0 0 20 20;" xml:space="preserve">
<style type="text/css">
	.st0{fill:none;}
</style>
<g>
	<rect x="0.0000148" class="st0" width="20" height="20"/>
	<path d="M15.7500153,2.7570801h-2.0918579V1.249939H6.2357936v1.5071411H4.2500148c-0.5523071,0-1,0.4476929-1,1V17.75
		c0,0.5523071,0.4476929,1,1,1h11.5c0.5522461,0,1-0.4476929,1-1V3.7570801
		C16.7500153,3.2047729,16.3022614,2.7570801,15.7500153,2.7570801z M7.2357936,2.249939h5.4223638v2.0083008H7.2357936V2.249939z
		 M8.0708771,15.3428955H6.8716578v-3.9892578h1.1992192V15.3428955z M10.5708771,15.3428955H9.3716583V7.850708h1.1992188
		V15.3428955z M13.0708771,15.3428955h-1.1992188V9.7442627h1.1992188V15.3428955z"/>
</g>
</svg>
