<?xml version="1.0" encoding="utf-8"?>
<!-- Generator: Adobe Illustrator 19.0.1, SVG Export Plug-In . SVG Version: 6.00 Build 0)  -->
<svg version="1.1" id="Layer_1" xmlns="http://www.w3.org/2000/svg" xmlns:xlink="http://www.w3.org/1999/xlink" x="0px" y="0px"
	 viewBox="0 0 20 20" style="enable-background:new 0 0 20 20;" xml:space="preserve">
<style type="text/css">
	.st0{fill:none;}
</style>
<g>
	<rect x="0.0000148" class="st0" width="20" height="20"/>
	<path d="M17.5000153,3h-15c-0.552307,0-0.9999999,0.4476929-0.9999999,1v5.5h17V4C18.5000153,3.4476929,18.0523224,3,17.5000153,3z
		 M12.4969025,6.75H6.496902v-1h6.0000005V6.75z M15.99263,6.75h-1.9941406v-1H15.99263V6.75z"/>
	<path d="M1.5000149,10.5V16c0,0.5523071,0.4476929,1,0.9999999,1h15c0.5523071,0,1-0.4476929,1-1v-5.5H1.5000149z
		 M12.4969025,14.25H6.496902v-1h6.0000005V14.25z M15.99263,14.25h-1.9941406v-1H15.99263V14.25z"/>
</g>
</svg>
