<?xml version="1.0" encoding="utf-8"?>
<!-- Generator: Adobe Illustrator 19.0.1, SVG Export Plug-In . SVG Version: 6.00 Build 0)  -->
<svg version="1.1" id="Layer_1" xmlns="http://www.w3.org/2000/svg" xmlns:xlink="http://www.w3.org/1999/xlink" x="0px" y="0px"
	 viewBox="0 0 20 20" style="enable-background:new 0 0 20 20;" xml:space="preserve">
<style type="text/css">
	.st0{fill:none;}
</style>
<g>
	<g>
		<rect x="0.0000148" class="st0" width="20" height="20"/>
	</g>
	<path d="M14.7500153,12.5999985c-1.2563477,0-2.3029785,0.8766479-2.5756836,2.0499878H5.5966334v-6.5h1.8034058V6.3499985
		h4.7743535c0.2727051,1.1733398,1.3192749,2.0499878,2.5756226,2.0499878c1.463562,0,2.6500244-1.1864624,2.6500244-2.6500244
		c0-1.463501-1.1864624-2.6499634-2.6500244-2.6499634c-1.2563477,0-2.3029785,0.8766479-2.5756836,2.0499878H7.4000392V3.3499985
		H2.6000514v4.7999878h1.800354l-0.0026245,7.7000122h7.7766118c0.2727051,1.1733398,1.3192749,2.0499878,2.5756226,2.0499878
		c1.463562,0,2.6500244-1.1864624,2.6500244-2.6500244C17.4000397,13.7864609,16.2135773,12.5999985,14.7500153,12.5999985z"/>
</g>
</svg>
