<?xml version="1.0" encoding="utf-8"?>
<!-- Generator: Adobe Illustrator 19.0.1, SVG Export Plug-In . SVG Version: 6.00 Build 0)  -->
<svg version="1.1" id="Layer_1" xmlns="http://www.w3.org/2000/svg" xmlns:xlink="http://www.w3.org/1999/xlink" x="0px" y="0px"
	 viewBox="0 0 20 20" style="enable-background:new 0 0 20 20;" xml:space="preserve">
<style type="text/css">
	.st0{fill:none;}
</style>
<g>
	<rect x="0.0000148" class="st0" width="20" height="20"/>
	<g>
		<path d="M13.5945597,15.116333h-2.3999634v-3.1999512h2.3999634V9.5163574h3.2000113v2.4000244h1.4554443V6.1091919
			c0-0.5537109-0.4489746-1.0025635-1.0028076-1.0025635H9.9430094L7.7640538,3.5H2.7528234
			c-0.553833,0-1.0028075,0.4488525-1.0028075,1.0025024v10.9949951C1.7500159,16.0510864,2.1989903,16.5,2.7528234,16.5h10.8417358
			V15.116333z"/>
	</g>
	<g>
		<g>
			<polygon points="18.1945972,12.9163513 15.7945728,12.9163513 15.7945728,10.5163269 14.5945606,10.5163269 
				14.5945606,12.9163513 12.1945972,12.9163513 12.1945972,14.1163635 14.5945606,14.1163635 14.5945606,16.5163269 
				15.7945728,16.5163269 15.7945728,14.1163635 18.1945972,14.1163635 			"/>
			<path d="M15.7945719,10.5163574v2.4000244h2.4000235v1.1999512h-2.4000235v2.4000244h-1.2000122V14.116333h-2.3999634v-1.1999512
				h2.3999634v-2.4000244H15.7945719"/>
		</g>
	</g>
</g>
</svg>
