<?xml version="1.0" encoding="utf-8"?>
<!-- Generator: Adobe Illustrator 19.0.1, SVG Export Plug-In . SVG Version: 6.00 Build 0)  -->
<svg version="1.1" id="Layer_1" xmlns="http://www.w3.org/2000/svg" xmlns:xlink="http://www.w3.org/1999/xlink" x="0px" y="0px"
	 viewBox="0 0 20 20" style="enable-background:new 0 0 20 20;" xml:space="preserve">
<style type="text/css">
	.st0{fill:none;}
</style>
<g>
	<rect x="0.0000148" class="st0" width="20" height="20"/>
	<g>
		<path d="M16.7500153,2.25h-4.2164917v1.2000122h4.0164795v8.4032593h-4.5501099c0,1.1046143-0.8952637,2-2,2
			c-1.1044922,0-2.000001-0.8953857-2.000001-2H3.4500265V3.4500122h4.0758667V2.25H3.2500143c-0.5523071,0-1,0.4476929-1,1
			v8.6032715V16.75c0,0.5523071,0.4476929,1,1,1h13.500001c0.5522461,0,1-0.4476929,1-1v-4.8967285V3.25
			C17.7500153,2.6976929,17.3022614,2.25,16.7500153,2.25z"/>
		<polygon points="6.7676535,7.9335938 10.0205841,11.1875 13.2735138,7.9335938 12.4239044,7.0859375 10.6208649,8.8897095 
			10.6208649,2.25 9.4208527,2.25 9.4208527,8.8902588 7.6172628,7.0859375 		"/>
	</g>
</g>
</svg>
