<?xml version="1.0" encoding="utf-8"?>
<!-- Generator: Adobe Illustrator 19.0.1, SVG Export Plug-In . SVG Version: 6.00 Build 0)  -->
<svg version="1.1" id="Layer_1" xmlns="http://www.w3.org/2000/svg" xmlns:xlink="http://www.w3.org/1999/xlink" x="0px" y="0px"
	 viewBox="0 0 20 20" style="enable-background:new 0 0 20 20;" xml:space="preserve">
<style type="text/css">
	.st0{fill:none;}
</style>
<g>
	<rect x="0.0000148" class="st0" width="20" height="20"/>
	<path d="M15.5504456,6.5239239l2.0750732-2.0740967l-2.0751343-2.0751953L8.4115906,9.5123882L8.4110413,9.5121441
		c-0.6101074-0.2915649-1.244873-0.4397583-1.8851318-0.4397583c-2.4265747,0-4.4007568,1.9741821-4.4007568,4.4007568
		c0,2.427124,1.9741821,4.4017334,4.4007568,4.4017334c2.427124,0,4.4017334-1.9746094,4.4017334-4.4017334
		c0-0.6392822-0.1480713-1.2734375-0.4400635-1.8847656l3.3967285-3.3983154l1.8143311,1.8153076l1.6671143-1.6671143
		L15.5504456,6.5239239z M6.5259094,15.0731182c-0.883667,0-1.5999756-0.7163086-1.5999756-1.5999756
		s0.7163086-1.6000366,1.5999756-1.6000366s1.5999756,0.7163696,1.5999756,1.6000366S7.4095764,15.0731182,6.5259094,15.0731182z"/>
</g>
</svg>
