<?xml version="1.0" encoding="utf-8"?>
<!-- Generator: Adobe Illustrator 19.0.1, SVG Export Plug-In . SVG Version: 6.00 Build 0)  -->
<svg version="1.1" id="Layer_1" xmlns="http://www.w3.org/2000/svg" xmlns:xlink="http://www.w3.org/1999/xlink" x="0px" y="0px"
	 viewBox="0 0 20 20" style="enable-background:new 0 0 20 20;" xml:space="preserve">
<style type="text/css">
	.st0{fill:none;}
</style>
<g>
	<rect x="0.0000148" class="st0" width="20" height="20"/>
	<polygon points="18.7956486,12.0634785 16.3956242,12.0634785 16.3956242,9.6635151 15.1956739,9.6635151 15.1956739,12.0634785 
		12.7956495,12.0634785 12.7956495,13.2634907 15.1956739,13.2634907 15.1956739,15.6635151 16.3956242,15.6635151 
		16.3956242,13.2634907 18.7956486,13.2634907 	"/>
	<path d="M16.4999924,2.5c0-0.5523071-0.4477539-1-0.999999-1h-11c-0.5523071,0-1,0.4476929-1,1v13.9666138h0.0122681
		C3.5486989,17.5931396,4.4708791,18.5,5.6060719,18.5h10.0876465c0.3310537,0,0.5996084-0.2685547,0.5996084-0.5996094
		s-0.2685547-0.5996094-0.5996084-0.5996094H5.6060719c-0.4970703,0-0.9013672-0.4042969-0.9013672-0.9013672
		c0-0.4959717,0.4042358-0.9002075,0.901062-0.9003296h8.5899048v-1.2355957h-2.4000244v-3.2000122h2.4000244V8.6635132h2.3043203
		V2.5z"/>
</g>
</svg>
