<?xml version="1.0" encoding="utf-8"?>
<!-- Generator: Adobe Illustrator 19.0.1, SVG Export Plug-In . SVG Version: 6.00 Build 0)  -->
<svg version="1.1" id="Layer_1" xmlns="http://www.w3.org/2000/svg" xmlns:xlink="http://www.w3.org/1999/xlink" x="0px" y="0px"
	 viewBox="0 0 20 20" style="enable-background:new 0 0 20 20;" xml:space="preserve">
<style type="text/css">
	.st0{fill:none;}
</style>
<rect x="0.0000148" class="st0" width="20" height="20"/>
<path d="M5.6057887,15.4990845h9.8942261c0.5522461,0,1-0.4476929,1-1V2.5c0-0.5523071-0.4477539-1-1-1h-11
	c-0.5523071,0-1,0.4476929-1,1v13.9666138h0.0122681C3.5487208,17.5931396,4.470901,18.5,5.6060939,18.5h10.0876465
	c0.3310547,0,0.5996094-0.2685547,0.5996094-0.5996094s-0.2685547-0.5996094-0.5996094-0.5996094H5.6060939
	c-0.4970703,0-0.9013672-0.4042969-0.9013672-0.9013672C4.7047267,15.9034424,5.1089625,15.4992065,5.6057887,15.4990845z
	 M6.048965,4.9541016h8v1.1992188h-8V4.9541016z M6.048965,7.9541016h8v1.1992188h-8V7.9541016z M6.048965,10.9541016h3.1713872
	v1.1992188H6.048965V10.9541016z"/>
</svg>
