<?xml version="1.0" encoding="utf-8"?>
<!-- Generator: Adobe Illustrator 19.0.1, SVG Export Plug-In . SVG Version: 6.00 Build 0)  -->
<svg version="1.1" id="Layer_1" xmlns="http://www.w3.org/2000/svg" xmlns:xlink="http://www.w3.org/1999/xlink" x="0px" y="0px"
	 viewBox="0 0 20 20" style="enable-background:new 0 0 20 20;" xml:space="preserve">
<style type="text/css">
	.st0{fill:none;}
</style>
<g>
	<rect x="0.0000148" class="st0" width="20" height="20"/>
	<path d="M11.641861,11.3997498h-0.000061v-0.0010986L11.641861,11.3997498z"/>
	<g>
		<path d="M12.5417633,10.349762v1.4000244c0,0.3308105-0.269165,0.5999756-0.5999756,0.5999756H8.1289215
			c-0.330811,0-0.5999761-0.269165-0.5999761-0.5999756V10.349762H1.5000149v6.1503906c0,0.5522461,0.4476929,1,0.9999999,1h15
			c0.5523071,0,1-0.4477539,1-1V10.349762H12.5417633z"/>
		<rect x="8.5288849" y="10.349762" width="3.0129395" height="1"/>
		<path d="M18.5000153,9.1497498V6.0001526c0-0.5523071-0.4476929-1-1-1h-3.75V3.4998474c0-0.5523071-0.4476929-1-1-1H7.2500148
			c-0.5523071,0-1,0.4476929-1,1v1.5003052h-3.75c-0.552307,0-0.9999999,0.4476929-0.9999999,1v3.1495972H18.5000153z
			 M7.450027,3.6998596h5.0999761v1.300293H7.450027V3.6998596z"/>
	</g>
</g>
</svg>
