<?xml version="1.0" encoding="utf-8"?>
<!-- Generator: Adobe Illustrator 19.0.1, SVG Export Plug-In . SVG Version: 6.00 Build 0)  -->
<svg version="1.1" id="Layer_1" xmlns="http://www.w3.org/2000/svg" xmlns:xlink="http://www.w3.org/1999/xlink" x="0px" y="0px"
	 viewBox="0 0 20 20" style="enable-background:new 0 0 20 20;" xml:space="preserve">
<style type="text/css">
	.st0{fill:none;}
</style>
<g>
	<rect class="st0" width="20" height="20"/>
	<g>
		<circle cx="6.7964015" cy="13.2380676" r="0.8999939"/>
		<circle cx="13.1952057" cy="13.2380676" r="0.8999939"/>
		<path d="M17.9721832,6.2973633h-1.0283203v-2.496582c0-0.8823242-0.7177734-1.6000977-1.5996094-1.6000977H4.6557765
			c-0.8818359,0-1.5996094,0.7177734-1.5996094,1.6000977v2.496582H2.0278468c-0.3310546,0-0.5996093,0.2685547-0.5996093,0.6000977
			s0.2685547,0.6000977,0.5996093,0.6000977h1.0283203L3.0553126,17.7993164h1.4910278v-1.3973789h10.9074707v1.3973789h1.4910278
			L16.9438629,7.4975586h1.0283203c0.3310547,0,0.5996094-0.2685547,0.5996094-0.6000977S18.3032379,6.2973633,17.9721832,6.2973633
			z M4.2553859,5.4111328h11.4892578v4.7397461H4.2553859V5.4111328z M4.6557765,3.4008789h10.6884766
			c0.2207031,0,0.4003906,0.1791992,0.4003906,0.3999023v0.8105469H4.2553859V3.8007812
			C4.2553859,3.5800781,4.4350734,3.4008789,4.6557765,3.4008789z M4.6557765,15.2006836
			c-0.2207031,0-0.4003906-0.1791992-0.4003906-0.3999023v-3.8500977h11.4892578v3.8500977
			c0,0.2207031-0.1796875,0.3999023-0.4003906,0.3999023H4.6557765z"/>
	</g>
</g>
</svg>
