<?xml version="1.0" encoding="utf-8"?>
<!-- Generator: Adobe Illustrator 19.0.1, SVG Export Plug-In . SVG Version: 6.00 Build 0)  -->
<svg version="1.1" id="Layer_1" xmlns="http://www.w3.org/2000/svg" xmlns:xlink="http://www.w3.org/1999/xlink" x="0px" y="0px"
	 viewBox="0 0 20 20" style="enable-background:new 0 0 20 20;" xml:space="preserve">
<style type="text/css">
	.st0{fill:none;}
</style>
<g>
	<rect class="st0" width="20" height="20"/>
	<g>
		<circle cx="6.5261989" cy="12.6278381" r="0.8999939"/>
		<circle cx="13.5261993" cy="12.6278381" r="0.8999939"/>
		<path d="M18.0444489,7.5700684h-1.946106l-1.5529175-3.0219727H5.5102687L3.9266505,7.5700684H1.9555813
			c-0.3310547,0-0.5996094,0.2685547-0.5996094,0.6000977s0.2685547,0.6000977,0.5996094,0.6000977h1.3421019l-0.7356567,1.4038086
			v4.7192383l-0.0019531,2.5507812h1.5v-1.9038086H15.937027v1.9116211h1.5v-1.9116211l0.0009766-5.3632812l-0.7229004-1.4067383
			h1.3293457c0.3310547,0,0.5996094-0.2685547,0.5996094-0.6000977S18.3755035,7.5700684,18.0444489,7.5700684z M6.2368312,5.748291
			h7.5761724l2.1456299,4.1738281H4.0484767L6.2368312,5.748291z M3.7612453,10.7219238h12.4775391v3.6181641H3.7612453V10.7219238z
			"/>
	</g>
</g>
</svg>
