<?xml version="1.0" encoding="utf-8"?>
<!-- Generator: Adobe Illustrator 19.0.1, SVG Export Plug-In . SVG Version: 6.00 Build 0)  -->
<svg version="1.1" id="Layer_1" xmlns="http://www.w3.org/2000/svg" xmlns:xlink="http://www.w3.org/1999/xlink" x="0px" y="0px"
	 viewBox="0 0 20 20" style="enable-background:new 0 0 20 20;" xml:space="preserve">
<style type="text/css">
	.st0{fill:none;}
</style>
<g>
	<rect class="st0" width="20" height="20"/>
	<g>
		<path d="M6.647882,9.5561981h5.6376958V4.7563939H6.647882V9.5561981z M7.4486632,5.5561986h4.0361333v3.2001948H7.4486632
			V5.5561986z"/>
		<path d="M16.1361637,4.4204564c-0.2177734-0.2529297-0.5976562-0.2807617-0.8457031-0.065918
			c-0.2519531,0.215332-0.28125,0.5942383-0.0664062,0.8461914l1.4355469,1.6772461v5.7338862h-2.1184206V3.2475126
			c0-0.5522847-0.4477158-1-1-1H5.1411805c-0.5522847,0-1,0.4477153-1,1v13.3047791h-1v1.2001953h12.4068298v-1.2001953h-1.0068293
			v-2.7402344h2.7175417c0.3314247,0,0.6000977-0.2686729,0.6000977-0.6000977V6.8079371
			c0-0.2379475-0.0848484-0.4680977-0.2393017-0.6491041L16.1361637,4.4204564z M5.3411803,3.4475248h8v13.0087585h-8V3.4475248z"/>
	</g>
</g>
</svg>
