<?xml version="1.0" encoding="utf-8"?>
<!-- Generator: Adobe Illustrator 19.0.1, SVG Export Plug-In . SVG Version: 6.00 Build 0)  -->
<svg version="1.1" id="Layer_1" xmlns="http://www.w3.org/2000/svg" xmlns:xlink="http://www.w3.org/1999/xlink" x="0px" y="0px"
	 viewBox="0 0 20 20" style="enable-background:new 0 0 20 20;" xml:space="preserve">
<style type="text/css">
	.st0{fill:none;}
</style>
<g>
	<rect x="0.0000148" class="st0" width="20" height="20"/>
	<g>
		<path d="M9.9997864,7.000031c-1.6541128,0-3.0000005,1.3458867-3.0000005,2.9999995s1.3458877,3,3.0000005,3
			s2.999999-1.3458872,2.999999-3S11.6538992,7.000031,9.9997864,7.000031z M9.9997864,12.1009817
			c-1.1579971,0-2.1000009-0.9424782-2.1000009-2.1009512s0.9420037-2.1009512,2.1000009-2.1009512
			s2.0999994,0.9424782,2.0999994,2.1009512S11.1577835,12.1009817,9.9997864,12.1009817z"/>
		<path d="M9.9997854,1.5c-4.694458,0-8.5,3.805603-8.5,8.500061c0,4.694397,3.805542,8.5,8.5,8.5s8.500001-3.805603,8.500001-8.5
			C18.4997864,5.305603,14.6942434,1.5,9.9997854,1.5z M17.2693787,10.6001587
			c-0.2907104,3.5466309-3.1234751,6.3791504-6.670228,6.6694946v-1.5098267H9.3999319v1.5098267
			c-3.5465698-0.2905884-6.3790283-3.1230469-6.6697388-6.6694946h1.5193484V9.3999634H2.7301929
			c0.2907104-3.5465088,3.1231692-6.3789673,6.6697388-6.6695557v1.6612549h1.1992188V2.7304077
			c3.5467529,0.2903442,6.3795176,3.1228638,6.670228,6.6695557h-1.5198374v1.2001953H17.2693787z"/>
	</g>
</g>
</svg>
