<?xml version="1.0" encoding="utf-8"?>
<!-- Generator: Adobe Illustrator 19.0.1, SVG Export Plug-In . SVG Version: 6.00 Build 0)  -->
<svg version="1.1" id="Layer_1" xmlns="http://www.w3.org/2000/svg" xmlns:xlink="http://www.w3.org/1999/xlink" x="0px" y="0px"
	 viewBox="0 0 20 20" style="enable-background:new 0 0 20 20;" xml:space="preserve">
<style type="text/css">
	.st0{fill:none;}
</style>
<g>
	<rect class="st0" width="20" height="20"/>
	<g>
		<g>
			<path d="M12.749527,6.5644546c0-1.5187635-1.2312365-2.7499404-2.75-2.7499404c-1.5188227,0-2.75,1.2311769-2.75,2.7499404
				c0,1.5188222,1.2311773,2.7499995,2.75,2.7499995C11.5182905,9.3144541,12.749527,8.0832767,12.749527,6.5644546z
				 M8.0495272,6.5451913c0-1.0752134,0.8747864-1.9499412,1.9499998-1.9499412s1.9499998,0.8747277,1.9499998,1.9499412
				S11.0747404,8.4951906,9.999527,8.4951906S8.0495272,7.6204042,8.0495272,6.5451913z"/>
		</g>
		<g>
			<path d="M17.1401939,17.0909424l-0.6054688-2.3652344c-0.1884766-0.7333984-0.8486319-1.2451172-1.6054678-1.2451172h-1.8928223
				c1.3811646-2.1517334,2.7133789-4.7336426,2.7133789-6.8166504c0-3.1707153-2.5792847-5.75-5.75-5.75
				c-3.1707768,0-5.7500005,2.5792847-5.7500005,5.75c0,2.0256958,1.2581787,4.5276489,2.7296143,6.8166504H5.0708585
				c-0.7578125,0-1.4179685,0.5117188-1.6054685,1.2460938l-0.605957,2.3642578
				c-0.0922852,0.3613281-0.0136719,0.7382812,0.2148438,1.0322266c0.2290039,0.2949219,0.5737305,0.4628906,0.9462888,0.4628906
				h11.9594727c0.3720694,0,0.7167959-0.1679688,0.9453115-0.4628906
				C17.1548424,17.8292236,17.2329674,17.4522705,17.1401939,17.0909424z M9.999814,2.1139526
				c2.5088501,0,4.5499878,2.0411377,4.5499878,4.5499878c0,1.9329834-1.4404907,4.8590088-4.2803345,8.6953125
				c-0.0661011,0.0890503-0.1554565,0.1342163-0.2646484,0.1342163c-0.1110229-0.0004272-0.2004395-0.0457764-0.265564-0.1343994
				c-1.0609131-1.4451904-4.2894902-5.8431396-4.2894902-8.6951294C5.4497647,4.1550903,7.4909024,2.1139526,9.999814,2.1139526z
				 M4.0220304,17.3878174l0.6054688-2.3642578c0.0517578-0.2021484,0.234375-0.34375,0.4433594-0.34375h2.7093506
				c0.3329473,0.4818115,0.6672368,0.9473877,0.9916997,1.3894043c0.2901001,0.3949585,0.7374878,0.6223755,1.2283325,0.6242065
				h0.0037231c0.489502,0,0.9368286-0.2255249,1.2288208-0.6185913c0.3045044-0.411377,0.6463013-0.8821411,1.0019531-1.3950195
				h2.694519c0.2089844,0,0.3916016,0.1416016,0.4433594,0.34375l0.6074219,2.3632812L4.0220304,17.3878174z"/>
		</g>
	</g>
</g>
</svg>
