<?xml version="1.0" encoding="utf-8"?>
<!-- Generator: Adobe Illustrator 19.0.1, SVG Export Plug-In . SVG Version: 6.00 Build 0)  -->
<svg version="1.1" id="Layer_1" xmlns="http://www.w3.org/2000/svg" xmlns:xlink="http://www.w3.org/1999/xlink" x="0px" y="0px"
	 viewBox="0 0 20 20" style="enable-background:new 0 0 20 20;" xml:space="preserve">
<style type="text/css">
	.st0{fill:none;}
</style>
<g>
	<rect class="st0" width="20" height="20"/>
	<path d="M15.7696686,2.5287681L12.332901,3.8993125c-0.102066,0.0358222-0.2148075,0.0532472-0.3208008,0.0099487
		L7.9629054,2.0266318C7.8790312,1.9931847,7.7368436,1.9931847,7.6421046,2.0366416L3.2440333,3.8415122
		C3.0666041,3.9173789,2.9502711,4.1012778,2.9502711,4.3058677L2.9501491,16.4734898
		c0,0.9256344,0.8390954,1.1490631,1.2000122,0.9992924l3.4938354-1.3740673
		c0.1502624-0.055172,0.2124319-0.0445156,0.3170776-0.0083618l4.0509038,1.8849487
		c0.08424,0.0350704,0.2389278,0.0256958,0.321106-0.0100708l4.4154663-1.7924194
		c0.1771851-0.0758667,0.293396-0.2595215,0.2935181-0.4638672L17.049881,3.4583335
		C17.049881,2.8115811,16.4818192,2.2750177,15.7696686,2.5287681z M4.1501613,16.1880093L4.1502833,4.7667441l3.2201538-1.3215942
		v11.4873657L4.1501613,16.1880093z M8.1712189,14.9266567V3.4468589l3.5742188,1.616333v11.4645386L8.1712189,14.9266567z
		 M15.8423615,15.2455654l-3.2961426,1.3381958V5.0844932l3.3034668-1.2960815L15.8423615,15.2455654z"/>
</g>
</svg>
