<?xml version="1.0" encoding="utf-8"?>
<!-- Generator: Adobe Illustrator 19.0.1, SVG Export Plug-In . SVG Version: 6.00 Build 0)  -->
<svg version="1.1" id="Layer_1" xmlns="http://www.w3.org/2000/svg" xmlns:xlink="http://www.w3.org/1999/xlink" x="0px" y="0px"
	 viewBox="0 0 20 20" style="enable-background:new 0 0 20 20;" xml:space="preserve">
<style type="text/css">
	.st0{fill:none;}
</style>
<g>
	<rect class="st0" width="20" height="20"/>
	<g>
		<path d="M12.7440338,6.3970032l-4.4384766,1.940918l-1.9218755,4.4384766
			c-0.1701713,0.5396776,0.3501239,1.0158405,0.8408203,0.8388672l4.4775395-1.9550781l1.9130859-4.4345703
			C13.7842407,6.7489014,13.2916126,6.170599,12.7440338,6.3970032z M8.789444,9.2295227l1.9821167,1.9821167l-3.4943242,1.5105591
			L8.789444,9.2295227z M11.2907257,10.5989685l-1.887085-1.887085l3.3208618-1.4364624L11.2907257,10.5989685z"/>
		<path d="M10.0000153,2.6999817c4.0252075,0,7.2999878,3.2747803,7.2999878,7.3000488
			c0,4.025238-3.2747803,7.2999878-7.2999878,7.2999878S2.700027,14.0252686,2.700027,10.0000305
			C2.700027,5.974762,5.9748073,2.6999817,10.0000153,2.6999817 M10.0000153,1.4999695c-4.6944585,0-8.5,3.8056335-8.5,8.500061
			s3.805542,8.5,8.5,8.5s8.5-3.8055725,8.5-8.5S14.6944733,1.4999695,10.0000153,1.4999695L10.0000153,1.4999695z"/>
	</g>
</g>
</svg>
