<?xml version="1.0" encoding="utf-8"?>
<!-- Generator: Adobe Illustrator 19.0.1, SVG Export Plug-In . SVG Version: 6.00 Build 0)  -->
<svg version="1.1" id="Layer_1" xmlns="http://www.w3.org/2000/svg" xmlns:xlink="http://www.w3.org/1999/xlink" x="0px" y="0px"
	 viewBox="0 0 20 20" style="enable-background:new 0 0 20 20;" xml:space="preserve">
<style type="text/css">
	.st0{fill:none;}
</style>
<g>
	<rect class="st0" width="20" height="20"/>
	<path d="M16.3484192,3.6495361L10.3402395,17.285614l-1.9943848-4.979248l-0.1912231-0.477417l-0.4776001-0.1907654
		l-4.960083-1.9813843L16.3484192,3.6495361 M16.566803,2.342804c-0.1360474,0-0.2770996,0.0263367-0.4182129,0.0839539
		L2.023284,8.651123c-0.9088134,0.3710938-0.9038695,1.659729,0.0077515,2.0238953l5.2008667,2.0775452l2.0904541,5.2190552
		c0.1829834,0.4567871,0.5980835,0.6855774,1.0132446,0.6855774c0.4126587,0,0.8253784-0.2260437,1.0102539-0.678833
		l6.225709-14.1286316C17.8794861,3.0955505,17.2941589,2.3427734,16.566803,2.342804L16.566803,2.342804z"/>
</g>
</svg>
