<?xml version="1.0" encoding="utf-8"?>
<!-- Generator: Adobe Illustrator 19.0.1, SVG Export Plug-In . SVG Version: 6.00 Build 0)  -->
<svg version="1.1" id="Layer_1" xmlns="http://www.w3.org/2000/svg" xmlns:xlink="http://www.w3.org/1999/xlink" x="0px" y="0px"
	 viewBox="0 0 20 20" style="enable-background:new 0 0 20 20;" xml:space="preserve">
<style type="text/css">
	.st0{fill:none;}
</style>
<rect class="st0" width="20" height="20"/>
<g>
	<circle cx="6.5297389" cy="12.646637" r="0.8999939"/>
	<circle cx="13.5297394" cy="12.646637" r="0.8999939"/>
	<path d="M18.0479889,7.588623h-1.9463501l-1.5526733-3.0214844h-2.2567749L11.9425201,3.567627
		c-0.2080078-0.6206055-0.7480469-1.0380859-1.34375-1.0380859H9.393692c-0.6044922,0-1.1318359,0.4077148-1.3291016,1.0014648
		L7.640945,4.5671387H5.5138087L3.9304347,7.588623H1.9591213c-0.3310547,0-0.5996094,0.2685547-0.5996094,0.6000977
		s0.2685547,0.6000977,0.5996094,0.6000977h1.3423461l-0.7359009,1.4042969l-0.0019531,7.2695312h1.5v-1.9038086H15.940567
		v1.9116211h1.5l0.0009766-7.2744141L16.718399,8.7888184h1.3295898c0.3310547,0,0.5996094-0.2685547,0.5996094-0.6000977
		S18.3790436,7.588623,18.0479889,7.588623z M9.1895905,3.9484863c0.0478516-0.1435547,0.1386719-0.21875,0.2041016-0.21875
		h1.2050781c0.0654297,0,0.1572266,0.0751953,0.2080078,0.2265625l0.2137451,0.6108398h-2.083313L9.1895905,3.9484863z
		 M6.2403712,5.767334h7.5761724l2.1456299,4.1738281H4.0520167L6.2403712,5.767334z M3.7647853,10.7409668h12.4775391v3.6176758
		H3.7647853V10.7409668z"/>
</g>
</svg>
