<?xml version="1.0" encoding="utf-8"?>
<!-- Generator: Adobe Illustrator 19.0.1, SVG Export Plug-In . SVG Version: 6.00 Build 0)  -->
<svg version="1.1" id="Layer_1" xmlns="http://www.w3.org/2000/svg" xmlns:xlink="http://www.w3.org/1999/xlink" x="0px" y="0px"
	 viewBox="0 0 20 20" style="enable-background:new 0 0 20 20;" xml:space="preserve">
<style type="text/css">
	.st0{fill:none;}
</style>
<g>
	<rect class="st0" width="20" height="20"/>
	<g>
		<path d="M17.0996246,14.3270874V5.5360718c0-2.527832-2.0029297-4.362793-4.7636719-4.362793h-4.672852
			c-2.7597656,0-4.7626953,1.8349609-4.7626953,4.362793v8.7910156c0,0.8823242,0.7177734,1.6000977,1.5996094,1.6000977h1.7202148
			l-2.8995361,2.8995361h1.6962891l1.1534424-1.1534424h7.658936l1.1535645,1.1534424h1.6964111l-2.8999023-2.8995361h1.7205811
			C16.3818512,15.9271851,17.0996246,15.2094116,17.0996246,14.3270874z M4.0996242,5.5360718
			c0-0.1454468,0.0244751-0.2807007,0.0419312-0.4189453h11.7169189c0.0174561,0.1382446,0.0419312,0.2734985,0.0419312,0.4189453
			v3.9145508H4.0996242V5.5360718z M7.6631007,2.3734741h4.672852c1.6002808,0,2.8270874,0.7590332,3.3221436,1.9438477H4.3419337
			C4.8369288,3.1325073,6.0635524,2.3734741,7.6631007,2.3734741z M4.0996242,14.3270874v-4.0766602h11.8007812v4.0766602
			c0,0.2207031-0.1796875,0.3999023-0.4003906,0.3999023h-11C4.2793117,14.7269897,4.0996242,14.5477905,4.0996242,14.3270874z
			 M13.0294342,16.8734741H6.9702296l0.8071289-0.8071289c0.0410767-0.0410767,0.0657349-0.0906982,0.0924072-0.1391602h4.2132573
			L13.0294342,16.8734741z"/>
		<circle cx="6.4993434" cy="12.2733459" r="0.8999939"/>
		<circle cx="13.4993439" cy="12.2733459" r="0.8999939"/>
	</g>
</g>
</svg>
