<?xml version="1.0" encoding="utf-8"?>
<!-- Generator: Adobe Illustrator 19.0.1, SVG Export Plug-In . SVG Version: 6.00 Build 0)  -->
<svg version="1.1" id="Layer_1" xmlns="http://www.w3.org/2000/svg" xmlns:xlink="http://www.w3.org/1999/xlink" x="0px" y="0px"
	 viewBox="0 0 20 20" style="enable-background:new 0 0 20 20;" xml:space="preserve">
<style type="text/css">
	.st0{fill:none;}
</style>
<g>
	<rect class="st0" width="20" height="20"/>
	<path d="M14.7545166,2.9486694l-0.0119629,13.3002319l-4.7134094-4.0003052l-4.7824712,4.0020752l0.0122681-13.302002H14.7545166
		 M14.943634,1.7486572h-9.884491c-0.5522766,0-1,0.4476929-1,1l-0.013855,15.001709
		c0,0.2979736,0.2443237,0.5009766,0.5026245,0.5009766c0.1091003,0,0.2207642-0.0362549,0.3174744-0.1168823l5.1582952-4.3165894
		l5.0860291,4.3165894c0.096344,0.0803223,0.207428,0.1165771,0.3164673,0.1165771
		c0.2593994,0,0.5068665-0.2055054,0.514679-0.5117798l0.013855-15.001709
		C15.943634,2.1963501,15.4959412,1.7486572,14.943634,1.7486572L14.943634,1.7486572z"/>
</g>
</svg>
