<?xml version="1.0" encoding="utf-8"?>
<!-- Generator: Adobe Illustrator 19.0.1, SVG Export Plug-In . SVG Version: 6.00 Build 0)  -->
<svg version="1.1" id="Layer_1" xmlns="http://www.w3.org/2000/svg" xmlns:xlink="http://www.w3.org/1999/xlink" x="0px" y="0px"
	 viewBox="0 0 20 20" style="enable-background:new 0 0 20 20;" xml:space="preserve">
<style type="text/css">
	.st0{fill:none;}
</style>
<g>
	<rect class="st0" width="20" height="20"/>
	<g>
		<path d="M10.0000153,1.5c-4.6944585,0-8.5,3.805542-8.5,8.5c0,4.694397,3.805542,8.5,8.5,8.5c4.694397,0,8.5-3.805603,8.5-8.5
			C18.5000153,5.305542,14.6944122,1.5,10.0000153,1.5z M10.0000153,17.2999878
			c-4.025269,0-7.2999883-3.2747803-7.2999883-7.2999878c0-4.0252686,3.2747192-7.2999878,7.2999883-7.2999878
			c4.0252075,0,7.2999878,3.2747192,7.2999878,7.2999878C17.3000031,14.0252075,14.0252228,17.2999878,10.0000153,17.2999878z"/>
	</g>
	<polygon points="14.0000153,9.3999634 10.5999908,9.3999634 10.5999908,6 9.4000397,6 9.4000397,9.3999634 6.0000148,9.3999634 
		6.0000148,10.5999756 9.4000397,10.5999756 9.4000397,14 10.5999908,14 10.5999908,10.5999756 14.0000153,10.5999756 	"/>
</g>
</svg>
