<?xml version="1.0" encoding="utf-8"?>
<!-- Generator: Adobe Illustrator 19.0.1, SVG Export Plug-In . SVG Version: 6.00 Build 0)  -->
<svg version="1.1" id="Layer_1" xmlns="http://www.w3.org/2000/svg" xmlns:xlink="http://www.w3.org/1999/xlink" x="0px" y="0px"
	 viewBox="0 0 20 20" style="enable-background:new 0 0 20 20;" xml:space="preserve">
<style type="text/css">
	.st0{fill:none;}
</style>
<g>
	<rect class="st0" width="20" height="20"/>
	<path d="M10.0000153,1.5c-4.6943974,0-8.5,3.805603-8.5,8.5s3.805603,8.5,8.5,8.5c4.694458,0,8.5-3.805603,8.5-8.5
		S14.6944733,1.5,10.0000153,1.5z M10.0000153,2.7000122c1.8253784,0,3.4921875,0.6781616,4.7734985,1.7896729L4.4892726,14.7730103
		C3.3780055,13.4917603,2.700027,11.8251343,2.700027,10C2.700027,5.9747925,5.9748073,2.7000122,10.0000153,2.7000122z
		 M10.0000153,17.2999878c-1.7692871,0-3.3928838-0.6335449-4.6578374-1.6845703L15.615921,5.3425903
		C16.6667633,6.6074219,17.3000031,8.230896,17.3000031,10C17.3000031,14.0252075,14.0252838,17.2999878,10.0000153,17.2999878z"/>
</g>
</svg>
