<?xml version="1.0" encoding="utf-8"?>
<!-- Generator: Adobe Illustrator 19.0.1, SVG Export Plug-In . SVG Version: 6.00 Build 0)  -->
<svg version="1.1" id="Layer_1" xmlns="http://www.w3.org/2000/svg" xmlns:xlink="http://www.w3.org/1999/xlink" x="0px" y="0px"
	 viewBox="0 0 20 20" style="enable-background:new 0 0 20 20;" xml:space="preserve">
<style type="text/css">
	.st0{fill:none;}
</style>
<g>
	<rect class="st0" width="20" height="20"/>
	<g>
		<polygon points="12.7386475,6.3937378 9.980896,9.1514282 7.2232051,6.3937378 6.3746333,7.2422485 9.1323853,9.999939 
			6.3746333,12.7576904 7.2232051,13.6062012 9.980896,10.8485107 12.7386475,13.6062012 13.5871582,12.7576904 
			10.8294678,9.999939 13.5871582,7.2422485 		"/>
		<path d="M10,1.5c-4.6943974,0-8.5,3.805603-8.5,8.5s3.805603,8.5,8.5,8.5c4.694458,0,8.5-3.805603,8.5-8.5S14.694458,1.5,10,1.5z
			 M10,17.2999878c-4.025208,0-7.2999883-3.2747803-7.2999883-7.2999878S5.974792,2.7000122,10,2.7000122
			c4.0252686,0,7.2999878,3.2747803,7.2999878,7.2999878S14.0252686,17.2999878,10,17.2999878z"/>
	</g>
</g>
</svg>
