<?xml version="1.0" encoding="utf-8"?>
<!-- Generator: Adobe Illustrator 19.0.1, SVG Export Plug-In . SVG Version: 6.00 Build 0)  -->
<svg version="1.1" id="Layer_1" xmlns="http://www.w3.org/2000/svg" xmlns:xlink="http://www.w3.org/1999/xlink" x="0px" y="0px"
	 viewBox="0 0 20 20" style="enable-background:new 0 0 20 20;" xml:space="preserve">
<style type="text/css">
	.st0{fill:none;}
</style>
<g>
	<rect class="st0" width="20" height="20"/>
	<g>
		<polygon points="8.8823395,11.8730469 6.2495265,9.2392578 5.3999171,10.0869141 8.8823395,13.5703125 14.7485504,7.7021484 
			13.9008942,6.8544922 		"/>
		<path d="M10.0000153,1.5c-4.6943974,0-8.5,3.805603-8.5,8.5s3.805603,8.5,8.5,8.5c4.694458,0,8.5-3.805603,8.5-8.5
			S14.6944733,1.5,10.0000153,1.5z M10.0000153,17.2999878c-4.025208,0-7.2999883-3.2747803-7.2999883-7.2999878
			s3.2747803-7.2999878,7.2999883-7.2999878c4.0252686,0,7.2999878,3.2747803,7.2999878,7.2999878
			S14.0252838,17.2999878,10.0000153,17.2999878z"/>
	</g>
</g>
</svg>
