<?xml version="1.0" encoding="utf-8"?>
<!-- Generator: Adobe Illustrator 19.0.1, SVG Export Plug-In . SVG Version: 6.00 Build 0)  -->
<svg version="1.1" id="Layer_1" xmlns="http://www.w3.org/2000/svg" xmlns:xlink="http://www.w3.org/1999/xlink" x="0px" y="0px"
	 viewBox="0 0 20 20" style="enable-background:new 0 0 20 20;" xml:space="preserve">
<style type="text/css">
	.st0{fill:none;}
</style>
<g>
	<rect class="st0" width="20" height="20"/>
	<rect class="st0" width="20" height="20"/>
	<g>
		<path d="M9.9922638,4.8421631c-1.7680664,0-3.2000737,1.4320068-3.2000737,3.2000122s1.4320073,3.2000122,3.2000737,3.2000122
			c1.7680054,0,3.2000122-1.4320068,3.2000122-3.2000122S11.7602692,4.8421631,9.9922638,4.8421631z M9.9922638,10.0421753
			c-1.1028442,0-2.0000615-0.8972168-2.0000615-2c0-1.1028442,0.8972173-2,2.0000615-2c1.1027832,0,2,0.8971558,2,2
			C11.9922638,9.1449585,11.095047,10.0421753,9.9922638,10.0421753z"/>
		<path d="M10.0000153,1.5c-4.6943974,0-8.5,3.805603-8.5,8.5c0,4.694458,3.805603,8.5,8.5,8.5s8.5-3.805542,8.5-8.5
			C18.5000153,5.305603,14.6944122,1.5,10.0000153,1.5z M5.2746119,15.5540771
			c1.1146851-1.4561768,2.8331914-2.3231201,4.6787724-2.3231201c1.8763428,0,3.6027832,0.8847046,4.7160034,2.3740845
			c-1.2666626,1.0569458-2.8944702,1.6949463-4.6693726,1.6949463C8.1979523,17.2999878,6.5493312,16.6402588,5.2746119,15.5540771z
			 M15.5300446,14.7518921c-1.3418579-1.7109985-3.3743896-2.7201538-5.5766602-2.7201538
			c-2.1671147,0-4.1892095,0.9923706-5.5317388,2.6668701C3.3494411,13.4276733,2.700027,11.7890625,2.700027,10
			c0-4.0252075,3.2747803-7.2999878,7.2999883-7.2999878c4.0252686,0,7.2999878,3.2747803,7.2999878,7.2999878
			C17.3000031,11.8149414,16.6301422,13.4735107,15.5300446,14.7518921z"/>
	</g>
</g>
</svg>
