<?xml version="1.0" encoding="utf-8"?>
<!-- Generator: Adobe Illustrator 19.0.1, SVG Export Plug-In . SVG Version: 6.00 Build 0)  -->
<svg version="1.1" id="Layer_1" xmlns="http://www.w3.org/2000/svg" xmlns:xlink="http://www.w3.org/1999/xlink" x="0px" y="0px"
	 viewBox="0 0 20 20" style="enable-background:new 0 0 20 20;" xml:space="preserve">
<style type="text/css">
	.st0{fill:none;}
</style>
<g>
	<rect class="st0" width="20" height="20"/>
	<g>
		<path d="M14.0034332,13.7451172c-1.1347656,0-1.9072266-0.6357422-2.1992188-1.4775391
			C11.2368317,13.1611328,10.2407379,13.625,9.0200348,13.625c-1.7177739,0-2.9375005-1.3398438-2.9375005-3.3154297
			c0-2.4228516,1.6152344-4.2265625,3.6074224-4.2265625c1.2373047,0,1.9589844,0.5498047,2.4228516,1.3564453l0.1894531-1.1162109
			h1.2021484l-0.7558594,4.2607422c-0.0517578,0.3261719-0.0859375,0.6015625-0.0859375,0.7558594
			c0,0.6015625,0.5332031,1.3232422,1.3916016,1.3232422c1.4091797,0,2.4228516-1.1855469,2.4228516-3.2470703
			c0-3.5400391-2.0957031-6.3574219-6.3740234-6.3574219c-3.6943364,0-6.5810552,2.9384766-6.5810552,7.0097656
			c0,3.8662109,2.5429688,6.8730469,6.5810552,6.8730469c1.7011719,0,2.9892578-0.4121094,4.2949219-1.1855469l0.4296875,0.9794922
			c-1.3232422,0.8076172-2.9384766,1.2880859-4.7246094,1.2880859c-4.570313,0-7.8691411-3.3330078-7.8691411-7.9550781
			c0-4.6210938,3.5048828-8.0917969,7.8857427-8.0917969c4.7763672,0,7.6464844,3.109375,7.6464844,7.4560547
			C17.7661285,12.4912109,15.7729645,13.7451172,14.0034332,13.7451172z M9.827652,7.1650391
			c-1.3740234,0-2.4570317,1.203125-2.4570317,3.109375c0,1.5292969,0.773438,2.2509766,1.9931645,2.2509766
			c1.2373047,0,2.3710938-1.2373047,2.3710938-3.109375C11.7348785,8.1611328,11.0131989,7.1650391,9.827652,7.1650391z"/>
	</g>
</g>
</svg>
