<?xml version="1.0" encoding="utf-8"?>
<!-- Generator: Adobe Illustrator 19.0.1, SVG Export Plug-In . SVG Version: 6.00 Build 0)  -->
<svg version="1.1" id="Layer_1" xmlns="http://www.w3.org/2000/svg" xmlns:xlink="http://www.w3.org/1999/xlink" x="0px" y="0px"
	 viewBox="0 0 20 20" style="enable-background:new 0 0 20 20;" xml:space="preserve">
<style type="text/css">
	.st0{fill:none;}
</style>
<g>
	<rect class="st0" width="20" height="20"/>
	<g>
		<g>
			<polygon points="19.4299984,11.716259 16.5847836,8.940136 16.5847836,11.1513176 11.4299994,11.1513176 11.4299994,12.3512688 
				16.5847836,12.3512688 16.5847836,14.5624504 			"/>
		</g>
		<path d="M14.3034735,14.5692139v2.2307739H4.2000184V3.2000122h6.3907475v2.8883667v0.8007812h0.8007812h2.9119263v2.0578003
			h1.2000122V6L11.505744,2H4.0000062c-0.5522461,0-1,0.4476929-1,1v14c0,0.5523071,0.4477539,1,1,1h10.503479
			c0.5523071,0,1-0.4476929,1-1v-2.4307861H14.3034735z M11.3915472,3.583252l2.5037231,2.505127h-2.5037231V3.583252z"/>
	</g>
</g>
</svg>
