<?xml version="1.0" encoding="utf-8"?>
<!-- Generator: Adobe Illustrator 19.0.1, SVG Export Plug-In . SVG Version: 6.00 Build 0)  -->
<svg version="1.1" id="Layer_1" xmlns="http://www.w3.org/2000/svg" xmlns:xlink="http://www.w3.org/1999/xlink" x="0px" y="0px"
	 viewBox="0 0 20 20" style="enable-background:new 0 0 20 20;" xml:space="preserve">
<style type="text/css">
	.st0{fill:none;}
</style>
<g>
	<rect class="st0" width="20" height="20"/>
	<g>
		<path d="M17.8070107,2.2935238c-0.5437641-0.5437636-1.7641487-0.2656889-1.7641487-0.2656889
			c-2.3876953,0.265625-4.8638535,1.1624753-6.8218613,2.5531001C8.226738,5.2863793,7.3554616,6.1857324,6.600884,7.2416406
			L2.4778368,7.5907006C2.3372118,7.6024194,2.2043993,7.6639428,2.10479,7.7645288L1.1311572,8.738162
			c-0.2944718,0.296669-0.1757812,0.6617565,0,0.8486328l3.2308962,3.2299805l-1.3930056,0.5317383
			c-0.4239748,0.1593075-0.5006423,0.6756401-0.2099609,0.984375l2.9326174,2.9326162
			c0.3409081,0.3310547,0.8356533,0.1423302,0.984375-0.2099609l0.5430908-1.4226675l3.2362056,3.2361441
			c0.2681379,0.2537193,0.6341076,0.2099056,0.8476562,0l0.953125-0.953125
			c0.1005859-0.0996094,0.1621094-0.2324219,0.1738281-0.3730469l0.3484497-4.1161489
			c1.0584717-0.7554932,1.9589844-1.6277466,2.6652222-2.6231079c1.390625-1.9599609,2.2879524-4.5091929,2.5535774-6.8959117
			C17.9972343,3.90768,18.1957417,2.7573891,17.8070107,2.2935238z M2.7981493,8.7674589l2.9968874-0.2536621
			c-0.0422974,0.0759277-0.0914307,0.1431885-0.1326294,0.220459L4.369988,11.1276884L2.4036181,9.1619902L2.7981493,8.7674589z
			 M5.8850636,15.7625761l-1.6230469-1.6230469l1.0585938-0.4042969l0.96875,0.96875L5.8850636,15.7625761z M11.2532272,17.2225361
			l-0.3740234,0.3740234l-1.9595947-1.9589224l2.3677979-1.2744751c0.0767822-0.0409546,0.1434937-0.0896606,0.2189941-0.1316528
			L11.2532272,17.2225361z M14.4651413,10.1082792c-0.8929052,1.2952662-2.1689453,2.3583984-3.7441406,3.1972656
			l-2.6865234,1.4453125l-2.764648-2.7636719l1.4501953-2.6855469c0.8378906-1.5732427,1.8777061-2.884088,3.1962886-3.742188
			c4.0102568-2.6097715,6.9638672-2.4150388,6.9638672-2.4150388S16.8802319,6.6049013,14.4651413,10.1082792z"/>
		<path d="M12.6887741,5.3353295c-1.1045532,0-2,0.8953857-2,2c0,1.1045537,0.8954468,2.0000005,2,2.0000005
			s2-0.8954468,2-2.0000005C14.6887741,6.2307153,13.7933273,5.3353295,12.6887741,5.3353295z M12.6887741,8.1353302
			c-0.4418335,0-0.7999992-0.3581667-0.7999992-0.8000007c0-0.4418335,0.3581657-0.7999997,0.7999992-0.7999997
			c0.4418344,0,0.8000002,0.3581662,0.8000002,0.7999997C13.4887743,7.7771635,13.1306086,8.1353302,12.6887741,8.1353302z"/>
	</g>
</g>
</svg>
