<?xml version="1.0" encoding="utf-8"?>
<!-- Generator: Adobe Illustrator 19.0.1, SVG Export Plug-In . SVG Version: 6.00 Build 0)  -->
<svg version="1.1" id="Layer_1" xmlns="http://www.w3.org/2000/svg" xmlns:xlink="http://www.w3.org/1999/xlink" x="0px" y="0px"
	 viewBox="0 0 20 20" style="enable-background:new 0 0 20 20;" xml:space="preserve">
<style type="text/css">
	.st0{fill:none;}
</style>
<g>
	<rect class="st0" width="20" height="20"/>
	<path d="M16.0000057,2h-11c-0.5523071,0-1,0.4477539-1,1v2.8918457h-1.5v1.2000122h1.5v2.3081055h-1.5v1.2000122h1.5v2.3081665
		h-1.5v1.2000122h1.5V17c0,0.5523071,0.4476929,1,1,1h11c0.5522461,0,1-0.4476929,1-1V3
		C17.0000057,2.4477539,16.5522518,2,16.0000057,2z M15.7999935,16.7999878H5.2000184v-2.6918335h1.5v-1.2000122h-1.5v-2.3081665
		h1.5V9.3999634h-1.5V7.0918579h1.5V5.8918457h-1.5V3.2000122h10.5999756V16.7999878z"/>
</g>
</svg>
