<?xml version="1.0" encoding="utf-8"?>
<!-- Generator: Adobe Illustrator 19.0.1, SVG Export Plug-In . SVG Version: 6.00 Build 0)  -->
<svg version="1.1" id="Layer_1" xmlns="http://www.w3.org/2000/svg" xmlns:xlink="http://www.w3.org/1999/xlink" x="0px" y="0px"
	 viewBox="0 0 20 20" style="enable-background:new 0 0 20 20;" xml:space="preserve">
<style type="text/css">
	.st0{fill:none;}
</style>
<g>
	<rect class="st0" width="20" height="20"/>
	<path d="M16.5667591,2.3428345c-0.1360474,0-0.2770996,0.0263062-0.4181519,0.0839233L2.0233021,8.651123
		c-0.9088136,0.3710938-0.9039308,1.659729,0.0076904,2.0238647l5.2009277,2.0775757l2.0903931,5.2190552
		c0.1829834,0.4567871,0.5980835,0.6855469,1.0133057,0.6855469c0.4126587,0,0.8253784-0.2260132,1.0102539-0.678772
		l6.225708-14.1286621C17.8795033,3.0955811,17.2941151,2.3428345,16.5667591,2.3428345z M14.807848,4.3284912l-7.2581177,7.2587891
		l-4.8327637-1.930481L14.807848,4.3284912z M10.3402576,17.2857056l-1.9428711-4.850708l7.2944336-7.2952271L10.3402576,17.2857056
		z"/>
</g>
</svg>
