<?xml version="1.0" encoding="utf-8"?>
<!-- Generator: Adobe Illustrator 19.0.1, SVG Export Plug-In . SVG Version: 6.00 Build 0)  -->
<svg version="1.1" id="Layer_1" xmlns="http://www.w3.org/2000/svg" xmlns:xlink="http://www.w3.org/1999/xlink" x="0px" y="0px"
	 viewBox="0 0 20 20" style="enable-background:new 0 0 20 20;" xml:space="preserve">
<style type="text/css">
	.st0{fill:none;}
</style>
<g>
	<rect class="st0" width="20" height="20"/>
	<path d="M14.3994207,14.0395508c-0.8398438,0-1.5461426,0.5494995-1.7991333,1.3046875H7.2220521
		c-0.1772461-0.5289917-0.5739136-0.9562988-1.088501-1.1642456l0.2230835-0.8745117h8.8720093
		c0.5042725,0,0.9296865-0.3754883,0.9922476-0.8759155l0.8905029-7.1239624H5.5423646L5.2666078,3.1137695
		C5.1972718,2.5649414,4.7285218,2.1508789,4.1748109,2.1508789H1.5000062v1.1992188h2.5869141l1.0400391,8.2734375
		l0.0028687-0.0003662l0.1375122,1.1002197l-0.355896,1.3947754c-0.8005981,0.2251587-1.3928833,0.9542236-1.3928833,1.8256836
		c0,1.0507812,0.8544922,1.9052734,1.9042969,1.9052734c0.8400269,0,1.5464478-0.5497437,1.7993164-1.3056641h5.3779302
		c0.2528687,0.7559204,0.9592896,1.3056641,1.7993164,1.3056641c1.0498047,0,1.9042959-0.8544922,1.9042959-1.9052734
		C16.3037167,14.894043,15.4492254,14.0395508,14.3994207,14.0395508z M15.7520819,6.5056152l-0.7000122,5.5998535H6.3994203
		L5.6994081,6.5056152H15.7520819z M5.4228578,16.8491211c-0.4990234,0-0.9042969-0.40625-0.9042969-0.9052734
		s0.4052734-0.9042969,0.9042969-0.9042969s0.9052734,0.4052734,0.9052734,0.9042969S5.9218812,16.8491211,5.4228578,16.8491211z
		 M14.3994207,16.8491211c-0.4990234,0-0.9052734-0.40625-0.9052734-0.9052734s0.40625-0.9042969,0.9052734-0.9042969
		s0.9042969,0.4052734,0.9042969,0.9042969S14.8984442,16.8491211,14.3994207,16.8491211z"/>
</g>
</svg>
