<?xml version="1.0" encoding="utf-8"?>
<!-- Generator: Adobe Illustrator 19.0.1, SVG Export Plug-In . SVG Version: 6.00 Build 0)  -->
<svg version="1.1" id="Layer_1" xmlns="http://www.w3.org/2000/svg" xmlns:xlink="http://www.w3.org/1999/xlink" x="0px" y="0px"
	 viewBox="0 0 20 20" style="enable-background:new 0 0 20 20;" xml:space="preserve">
<style type="text/css">
	.st0{fill:none;}
</style>
<g>
	<rect class="st0" width="20" height="20"/>
	<path d="M16.0000153,4.9925537h-2.6501465V4.8496094C13.3498688,3.0019531,11.8479156,1.5,10.0002594,1.5
		S6.6506495,3.0019531,6.6506495,4.8496094v0.1429443H4.0000148l-1,13.0089054h14L16.0000153,4.9925537z M7.8498683,4.8496094
		c0-1.1855469,0.9648442-2.1503906,2.1503911-2.1503906S12.15065,3.6640625,12.15065,4.8496094v0.1429443H7.8498683V4.8496094z
		 M4.2958522,16.8014469l0.8154297-10.608881h1.5393677v1.1785278c0,0.3310547,0.2685547,0.5996094,0.5996094,0.5996094
		s0.5996094-0.2685547,0.5996094-0.5996094V6.1925659H12.15065v1.1785278c0,0.3310547,0.2685547,0.5996094,0.5996094,0.5996094
		s0.5996094-0.2685547,0.5996094-0.5996094V6.1925659h1.5389404l0.8153687,10.608881H4.2958522z"/>
</g>
</svg>
