<?xml version="1.0" encoding="utf-8"?>
<!-- Generator: Adobe Illustrator 19.0.1, SVG Export Plug-In . SVG Version: 6.00 Build 0)  -->
<svg version="1.1" id="Layer_1" xmlns="http://www.w3.org/2000/svg" xmlns:xlink="http://www.w3.org/1999/xlink" x="0px" y="0px"
	 viewBox="0 0 20 20" style="enable-background:new 0 0 20 20;" xml:space="preserve">
<style type="text/css">
	.st0{fill:none;}
</style>
<g>
	<rect class="st0" width="20" height="20"/>
	<g>
		<path d="M2.753459,2.7500262h13.0999756v9.0490112h1.2000132V2.550014c0-0.5522461-0.4476929-1-1-1H2.5534468
			c-0.5522461,0-1,0.4477539-1,1v13.5c0,0.5523071,0.4477539,1,1,1h9.2420654v-1.2000132H2.753459V2.7500262z"/>
		<rect x="5.5997725" y="9.2026625" width="1.2028198" height="4.5"/>
		<rect x="11.7955122" y="7.2024798" width="1.2044678" height="6.5001831"/>
		<rect x="8.6987715" y="4.7026629" width="1.2006226" height="9"/>
		<polygon points="19.4465752,15.8500013 17.0465508,15.8500013 17.0465508,13.4499769 15.8465986,13.4499769 
			15.8465986,15.8500013 13.4465742,15.8500013 13.4465742,17.0500145 15.8465986,17.0500145 15.8465986,19.4499779 
			17.0465508,19.4499779 17.0465508,17.0500145 19.4465752,17.0500145 		"/>
	</g>
</g>
</svg>
