<?xml version="1.0" encoding="utf-8"?>
<!-- Generator: Adobe Illustrator 19.0.1, SVG Export Plug-In . SVG Version: 6.00 Build 0)  -->
<svg version="1.1" id="Layer_1" xmlns="http://www.w3.org/2000/svg" xmlns:xlink="http://www.w3.org/1999/xlink" x="0px" y="0px"
	 viewBox="0 0 20 20" style="enable-background:new 0 0 20 20;" xml:space="preserve">
<style type="text/css">
	.st0{fill:none;}
</style>
<g>
	<rect class="st0" width="20" height="20"/>
	<g>
		<g>
			<polygon points="10.4697418,9.9669495 9.2697296,9.9669495 9.2697296,13.4669495 7.3697658,13.4669495 9.8697662,16.4669495 
				12.3697662,13.4669495 10.4697418,13.4669495 			"/>
		</g>
		<g>
			<g>
				<g>
					<path id="SVGID_2_" d="M13.5034189,14.0999756h1.446517c1.5999756,0,2.9000244-1.2999878,2.9000244-2.9000244
						c-0.2000122-3-3.0999756-2.9000244-3.0999756-2.9000244s-0.5-3.8999023-4.7000122-4.0999146
						c-3.2000127,0-4.2000127,2.7000122-4.2000127,2.7000122S2.5499721,7,2.3499599,10.5
						c0,2,1.5999756,3.5999756,3.5999756,3.5999756h0.2861023l0.9993286,1.2000122H5.8500209
						c-2.5999756,0-4.7999878-2.0999756-4.7999878-4.7999878c0-2.2999878,1.5999755-4.2999878,4-4.7000122
						C6.0500331,4,7.9500575,3,10.0500336,3c2.5999756,0,4.9000244,1.7999878,5.5999756,4.2000122
						c1.9000244,0.4000244,3.2999878,2.0999756,3.2999878,4c0,2.2999878-1.7999878,4.0999756-4.0999756,4.0999756h-2.3459167
						L13.5034189,14.0999756z"/>
				</g>
			</g>
		</g>
	</g>
</g>
</svg>
