<?xml version="1.0" encoding="utf-8"?>
<!-- Generator: Adobe Illustrator 19.0.1, SVG Export Plug-In . SVG Version: 6.00 Build 0)  -->
<svg version="1.1" id="Layer_1" xmlns="http://www.w3.org/2000/svg" xmlns:xlink="http://www.w3.org/1999/xlink" x="0px" y="0px"
	 viewBox="0 0 20 20" style="enable-background:new 0 0 20 20;" xml:space="preserve">
<style type="text/css">
	.st0{fill:none;}
</style>
<g>
	<rect class="st0" width="20" height="20"/>
	<g>
		<polygon points="9.2499847,12.7000122 6.7499843,10.2000122 7.5499721,9.4000244 9.2499847,11 12.4499969,7.9000244 
			13.3500214,8.7000122 		"/>
		<g>
			<g>
				<path id="SVGID_1_" d="M14.8500214,15.2999878h-9c-2.5999756,0-4.7999878-2.0999756-4.7999878-4.7999878
					c0-2.2999878,1.5999755-4.2999878,4-4.7000122C6.0500331,4,7.9500575,3,10.0500336,3
					c2.5999756,0,4.9000244,1.7999878,5.5999756,4.2000122c1.9000244,0.4000244,3.2999878,2.0999756,3.2999878,4
					C18.9499969,13.5,17.1500092,15.2999878,14.8500214,15.2999878z M10.0499725,4.2000122
					c-3.2000127,0-4.2000127,2.7000122-4.2000127,2.7000122S2.5499721,7,2.3499599,10.5
					c0,2,1.5999756,3.5999756,3.5999756,3.5999756h9c1.5999756,0,2.9000244-1.2999878,2.9000244-2.9000244
					c-0.2000122-3-3.0999756-2.9000244-3.0999756-2.9000244S14.2499847,4.4000244,10.0499725,4.2000122z"/>
			</g>
		</g>
	</g>
</g>
</svg>
