<?xml version="1.0" encoding="utf-8"?>
<!-- Generator: Adobe Illustrator 19.0.1, SVG Export Plug-In . SVG Version: 6.00 Build 0)  -->
<svg version="1.1" id="Layer_1" xmlns="http://www.w3.org/2000/svg" xmlns:xlink="http://www.w3.org/1999/xlink" x="0px" y="0px"
	 viewBox="0 0 20 20" style="enable-background:new 0 0 20 20;" xml:space="preserve">
<style type="text/css">
	.st0{fill:none;}
</style>
<g>
	<rect class="st0" width="20" height="20"/>
	<g>
		<rect x="6.8716426" y="11.3536806" width="1.1992188" height="3.9892578"/>
		<rect x="9.3716431" y="7.8507509" width="1.1992188" height="7.4921875"/>
		<rect x="11.8716431" y="9.7443056" width="1.1992188" height="5.5986328"/>
		<path d="M15.75,2.757098h-2.0918579V1.249957H6.2357783v1.507141H4.2499995c-0.5523071,0-1,0.4476929-1,1v13.9929457
			c0,0.5523071,0.4476929,1,1,1h11.5c0.5522461,0,1-0.4476929,1-1V3.757098C16.75,3.2047908,16.3022461,2.757098,15.75,2.757098z
			 M12.6581421,4.2582579H7.2357783v-2.008301h5.4223638V4.2582579z M15.5499878,17.5500317H4.4500117V3.9571102h1.7857666
			v1.3011477h7.4223638V3.9571102h1.8918457V17.5500317z"/>
	</g>
</g>
</svg>
