<?xml version="1.0" encoding="utf-8"?>
<!-- Generator: Adobe Illustrator 19.0.1, SVG Export Plug-In . SVG Version: 6.00 Build 0)  -->
<svg version="1.1" id="Layer_1" xmlns="http://www.w3.org/2000/svg" xmlns:xlink="http://www.w3.org/1999/xlink" x="0px" y="0px"
	 viewBox="0 0 20 20" style="enable-background:new 0 0 20 20;" xml:space="preserve">
<style type="text/css">
	.st0{fill:none;}
</style>
<g>
	<rect class="st0" width="20" height="20"/>
	<path d="M14.7500153,12c-1.5900269,0-2.913208,1.1419067-3.1945801,2.6503906h-5.955811V8.75h2.4003911V6.3496094h3.5554199
		C11.8368073,7.8580933,13.1599884,9,14.7500153,9c1.7949219,0,3.25-1.4550781,3.25-3.25s-1.4550781-3.25-3.25-3.25
		c-1.5900269,0-2.913208,1.1419067-3.1945801,2.6503906H8.0000153V2.75H2.0000148v6h2.4003906v7.0996094h7.1550298
		C11.8368073,17.3580933,13.1599884,18.5,14.7500153,18.5c1.7949219,0,3.25-1.4550781,3.25-3.25S16.5449371,12,14.7500153,12z
		 M14.7500153,3.7000122c1.1303711,0,2.0499878,0.9196167,2.0499878,2.0499878s-0.9196167,2.0499878-2.0499878,2.0499878
		S12.7000275,6.8803711,12.7000275,5.75S13.6196442,3.7000122,14.7500153,3.7000122z M3.200027,3.9500122h3.5999756v3.5999756
		H3.200027V3.9500122z M14.7500153,17.2999878c-1.1303711,0-2.0499878-0.9196167-2.0499878-2.0499878
		s0.9196167-2.0499878,2.0499878-2.0499878S16.8000031,14.1196289,16.8000031,15.25S15.8803864,17.2999878,14.7500153,17.2999878z"
		/>
</g>
</svg>
