<?xml version="1.0" encoding="utf-8"?>
<!-- Generator: Adobe Illustrator 19.0.1, SVG Export Plug-In . SVG Version: 6.00 Build 0)  -->
<svg version="1.1" id="Layer_1" xmlns="http://www.w3.org/2000/svg" xmlns:xlink="http://www.w3.org/1999/xlink" x="0px" y="0px"
	 viewBox="0 0 20 20" style="enable-background:new 0 0 20 20;" xml:space="preserve">
<style type="text/css">
	.st0{fill:none;}
</style>
<g>
	<rect class="st0" width="20" height="20"/>
	<g>
		<path d="M17.5000153,3h-15c-0.5523071,0-1,0.4476929-1,1v12c0,0.5523071,0.4476929,1,1,1h15c0.5523071,0,1-0.4476929,1-1V4
			C18.5000153,3.4476929,18.0523224,3,17.5000153,3z M17.3000031,4.2000122v5.3995972H2.700027V4.2000122H17.3000031z
			 M2.700027,15.7999878v-5.3995972h14.5999756v5.3995972H2.700027z"/>
		<rect x="6.4271388" y="6.5009766" width="6.0732422" height="0.8007812"/>
		<rect x="13.501358" y="6.5009766" width="1.9941406" height="0.8007812"/>
		<rect x="6.4271388" y="12.8554688" width="6.0732422" height="0.8007812"/>
		<rect x="13.501358" y="12.8554688" width="1.9941406" height="0.8007812"/>
	</g>
</g>
</svg>
