<?xml version="1.0" encoding="utf-8"?>
<!-- Generator: Adobe Illustrator 19.0.1, SVG Export Plug-In . SVG Version: 6.00 Build 0)  -->
<svg version="1.1" id="Layer_1" xmlns="http://www.w3.org/2000/svg" xmlns:xlink="http://www.w3.org/1999/xlink" x="0px" y="0px"
	 viewBox="0 0 20 20" style="enable-background:new 0 0 20 20;" xml:space="preserve">
<style type="text/css">
	.st0{fill:none;}
</style>
<g>
	<g>
		<rect x="-0.0000004" class="st0" width="20" height="20"/>
		<path d="M11.3773804,16.4981689v-1.1981812H2.9500122V4.7000122h4.4194336L9.230835,6.0724487l0.3175659,0.2341919h0.3945923
			h7.1069946v3.1915283H18.25V6.1091919c0-0.5537109-0.4489746-1.0025635-1.0028076-1.0025635H9.9429932L7.7640381,3.5H2.7528076
			C2.1989746,3.5,1.75,3.9488525,1.75,4.5025024v10.9949951C1.75,16.0510864,2.1989746,16.5,2.7528076,16.5"/>
		<polygon points="18.25,12.9000244 15.8499765,12.9000244 15.8499765,10.5 14.6499643,10.5 14.6499643,12.9000244 
			12.250001,12.9000244 12.250001,14.1000366 14.6499643,14.1000366 14.6499643,16.5 15.8499765,16.5 15.8499765,14.1000366 
			18.25,14.1000366 		"/>
	</g>
</g>
</svg>
