<?xml version="1.0" encoding="utf-8"?>
<!-- Generator: Adobe Illustrator 19.0.1, SVG Export Plug-In . SVG Version: 6.00 Build 0)  -->
<svg version="1.1" id="Layer_1" xmlns="http://www.w3.org/2000/svg" xmlns:xlink="http://www.w3.org/1999/xlink" x="0px" y="0px"
	 viewBox="0 0 20 20" style="enable-background:new 0 0 20 20;" xml:space="preserve">
<style type="text/css">
	.st0{fill:none;}
</style>
<g>
	<rect class="st0" width="20" height="20"/>
	<g>
		<path d="M16.75,2.25h-4.2164917v1.2000122h4.0164795v8.4032593h-4.5501099c0,1.1046143-0.8952637,2-2,2
			c-1.1044922,0-2.0000005-0.8953857-2.0000005-2H3.4500117V3.4500122h4.0758667V2.25H3.2499995c-0.5523071,0-1,0.4476929-1,1
			v8.6032715V16.75c0,0.5523071,0.4476929,1,1,1h13.5c0.5522461,0,1-0.4476929,1-1v-4.8967285V3.25
			C17.75,2.6976929,17.3022461,2.25,16.75,2.25z M16.5499878,16.5499878H3.4500117v-3.4967041h3.583313
			c0.475647,1.1716919,1.6261601,2,2.9665532,2s2.4909058-0.8283081,2.9665527-2h3.5835571V16.5499878z"/>
		<polygon points="6.7676387,7.9335938 10.0205688,11.1875 13.2734985,7.9335938 12.4238892,7.0859375 10.6208496,8.8897095 
			10.6208496,2.25 9.4208374,2.25 9.4208374,8.8902588 7.6172481,7.0859375 		"/>
	</g>
</g>
</svg>
