<?xml version="1.0" encoding="utf-8"?>
<!-- Generator: Adobe Illustrator 19.0.1, SVG Export Plug-In . SVG Version: 6.00 Build 0)  -->
<svg version="1.1" id="Layer_1" xmlns="http://www.w3.org/2000/svg" xmlns:xlink="http://www.w3.org/1999/xlink" x="0px" y="0px"
	 viewBox="0 0 20 20" style="enable-background:new 0 0 20 20;" xml:space="preserve">
<style type="text/css">
	.st0{fill:none;}
</style>
<g>
	<rect class="st0" width="20" height="20"/>
	<g>
		<path d="M18.4741364,4.449707l-2.9238281-2.9238281L8.2758942,8.8012695c-0.570313-0.21875-1.157227-0.328125-1.7500005-0.328125
			c-2.7568359,0-5,2.2431641-5,5c0,2.7578125,2.2431641,5.0009766,5,5.0009766c2.757813,0,5.000977-2.2431641,5.000977-5.0009766
			c0-0.5917969-0.109375-1.1787109-0.328125-1.7490234l2.6855469-2.6855469l1.8144531,1.8154297l2.515625-2.515625
			L16.398941,6.5239258L18.4741364,4.449707z M16.5171051,8.3383789l-0.8183594,0.8183594l-1.8144531-1.8154297
			l-4.1201172,4.1220703l0.1816406,0.3828125c0.2529297,0.5292969,0.3818359,1.0771484,0.3818359,1.6269531
			c0,2.0957031-1.7060547,3.8017578-3.8017583,3.8017578s-3.8007812-1.7060547-3.8007812-3.8017578
			s1.7050781-3.8007812,3.8007812-3.8007812c0.5507812,0,1.0986328,0.1289062,1.6279302,0.3818359l0.3828125,0.1816406
			l7.0136719-7.0126953l1.2265625,1.2265625l-2.0751953,2.0742188L16.5171051,8.3383789z"/>
		<path d="M6.5258937,11.5727539c-1.0478516,0-1.9003906,0.8525391-1.9003906,1.9003906s0.8525391,1.9003906,1.9003906,1.9003906
			s1.9003911-0.8525391,1.9003911-1.9003906S7.5737453,11.5727539,6.5258937,11.5727539z M6.5258937,14.5727539
			c-0.6064453,0-1.0996094-0.4931641-1.0996094-1.0996094s0.4931641-1.0996094,1.0996094-1.0996094
			s1.0996094,0.4931641,1.0996094,1.0996094S7.132339,14.5727539,6.5258937,14.5727539z"/>
	</g>
</g>
</svg>
