<?xml version="1.0" encoding="utf-8"?>
<!-- Generator: Adobe Illustrator 19.0.1, SVG Export Plug-In . SVG Version: 6.00 Build 0)  -->
<svg version="1.1" id="Layer_1" xmlns="http://www.w3.org/2000/svg" xmlns:xlink="http://www.w3.org/1999/xlink" x="0px" y="0px"
	 viewBox="0 0 20 20" style="enable-background:new 0 0 20 20;" xml:space="preserve">
<style type="text/css">
	.st0{fill:none;}
</style>
<g>
	<rect class="st0" width="20" height="20"/>
	<g>
		<polygon points="18.8965473,11.9966431 16.4965229,11.9966431 16.4965229,9.5966797 15.2965717,9.5966797 15.2965717,11.9966431 
			12.8965473,11.9966431 12.8965473,13.1966553 15.2965717,13.1966553 15.2965717,15.5966797 16.4965229,15.5966797 
			16.4965229,13.1966553 18.8965473,13.1966553 		"/>
		<path d="M15.5,1.5h-11c-0.5523071,0-1,0.4476929-1,1v13.9666138h0.0122681C3.5487056,17.5931396,4.4708858,18.5,5.6060786,18.5
			h10.0876465c0.3310547,0,0.5996094-0.2685547,0.5996094-0.5996094s-0.2685547-0.5996094-0.5996094-0.5996094H5.6060786
			c-0.4970703,0-0.9013672-0.4042969-0.9013672-0.9013672c0-0.4959717,0.4042358-0.9002075,0.901062-0.9003296h7.3052983v-1.2000122
			H4.7014766L4.7000117,2.7000122h10.5999756v5.7677002H16.5V2.5C16.5,1.9476929,16.0522461,1.5,15.5,1.5z"/>
	</g>
</g>
</svg>
