<?xml version="1.0" encoding="utf-8"?>
<!-- Generator: Adobe Illustrator 19.0.1, SVG Export Plug-In . SVG Version: 6.00 Build 0)  -->
<svg version="1.1" id="Layer_1" xmlns="http://www.w3.org/2000/svg" xmlns:xlink="http://www.w3.org/1999/xlink" x="0px" y="0px"
	 viewBox="0 0 20 20" style="enable-background:new 0 0 20 20;" xml:space="preserve">
<style type="text/css">
	.st0{fill:none;}
</style>
<g>
	<rect class="st0" width="20" height="20"/>
	<g>
		<path d="M5.6057739,15.4990845H15.5c0.5522461,0,1-0.4476929,1-1V2.5c0-0.5523071-0.4477539-1-1-1h-11
			c-0.5523071,0-1,0.4476929-1,1v13.9666138h0.0122681C3.5487061,17.5931396,4.4708862,18.5,5.6060791,18.5h10.0876465
			c0.3310547,0,0.5996094-0.2685547,0.5996094-0.5996094s-0.2685547-0.5996094-0.5996094-0.5996094H5.6060791
			c-0.4970703,0-0.9013672-0.4042969-0.9013672-0.9013672C4.7047119,15.9034424,5.1089478,15.4992065,5.6057739,15.4990845z
			 M4.7000122,2.7000122h10.5999756v11.5990601H4.7014771L4.7000122,2.7000122z"/>
		<rect x="6.0489502" y="4.9541016" width="8" height="1.1992188"/>
		<rect x="6.0489502" y="7.9541016" width="8" height="1.1992188"/>
		<rect x="6.0489502" y="10.9541016" width="3.1713758" height="1.1992188"/>
	</g>
</g>
</svg>
