<?xml version="1.0" encoding="utf-8"?>
<!-- Generator: Adobe Illustrator 19.0.1, SVG Export Plug-In . SVG Version: 6.00 Build 0)  -->
<svg version="1.1" id="Layer_1" xmlns="http://www.w3.org/2000/svg" xmlns:xlink="http://www.w3.org/1999/xlink" x="0px" y="0px"
	 viewBox="0 0 20 20" style="enable-background:new 0 0 20 20;" xml:space="preserve">
<style type="text/css">
	.st0{fill:none;}
</style>
<g>
	<rect class="st0" width="20" height="20"/>
	<path d="M14,1.5h-9.5c-0.5522461,0-1,0.4476929-1,1v15c0,0.5523071,0.4477539,1,1,1h11c0.5523071,0,1-0.4476929,1-1V4L14,1.5z
		 M7.271728,17.2999878v-6.3395996h5.4707036v6.3395996H7.271728z M15.2999878,17.2999878h-1.7567749v-7.1403809H6.4709468
		v7.1403809H4.7000117V2.7000122h2.2855835v2.5240479h0.8007812V2.7000122h1.813477v2.5240479h0.8007812V2.7000122h1.8134766
		v2.5240479h0.8007812V2.7000122h0.5844116l1.7006836,1.677865V17.2999878z"/>
</g>
</svg>
