<?xml version="1.0" encoding="utf-8"?>
<!-- Generator: Adobe Illustrator 19.0.1, SVG Export Plug-In . SVG Version: 6.00 Build 0)  -->
<svg version="1.1" id="Layer_1" xmlns="http://www.w3.org/2000/svg" xmlns:xlink="http://www.w3.org/1999/xlink" x="0px" y="0px"
	 viewBox="0 0 20 20" style="enable-background:new 0 0 20 20;" xml:space="preserve">
<style type="text/css">
	.st0{fill:none;}
</style>
<g>
	<rect class="st0" width="20" height="20"/>
	<path d="M4.9526515,18.2197266c-0.1533203,0-0.3066406-0.0585938-0.4238281-0.1757812l-2.6347656-2.6347656
		c-0.234375-0.2333984-0.234375-0.6142578,0-0.8476562l6.0849609-6.0859375
		c-0.1425781-0.4853516-0.2138672-0.9667969-0.2138672-1.4375c0-2.8994141,2.3583989-5.2578125,5.2587895-5.2578125
		c0.7382812,0,1.3671875,0.1777344,2.171875,0.6152344c0.1660156,0.0908203,0.2792969,0.2539062,0.3066406,0.4414062
		s-0.0361328,0.3759766-0.1699219,0.5097656l-1.8310547,1.8320312l1.2470703,1.2958984l1.8798828-1.8789062
		c0.1279297-0.1289062,0.3115234-0.1875,0.4882812-0.1728516c0.1806641,0.0195312,0.3427734,0.1201172,0.4404297,0.2724609
		c0.5078125,0.7929688,0.7246094,1.4931641,0.7246094,2.3427734c0,2.9003906-2.3583984,5.2587891-5.2578125,5.2587891
		c-0.5595703,0-1.1083984-0.0878906-1.6376953-0.2617188l-6.0097661,6.0087891
		C5.2592921,18.1611328,5.1059718,18.2197266,4.9526515,18.2197266z M3.1665187,14.9853516l1.7861328,1.7861328l5.8574224-5.8564453
		c0.1708984-0.1738281,0.4316406-0.2236328,0.6542969-0.1298828c0.4980469,0.2070312,1.0234375,0.3125,1.5595703,0.3125
		c2.2373047,0,4.0585938-1.8212891,4.0585938-4.0595703c0-0.3310547-0.0380859-0.6494141-0.1816406-1.0185547l-1.7373047,1.7363281
		c-0.1142578,0.1152344-0.3007812,0.2158203-0.4296875,0.1757812c-0.1611328-0.0009766-0.3154297-0.0673828-0.4267578-0.1835938
		l-2.078125-2.1621094c-0.2265625-0.2353516-0.2226562-0.609375,0.0087891-0.8398438l1.6318359-1.6328125
		c-0.3212891-0.1054688-0.5830078-0.1337891-0.8457031-0.1337891c-2.2382812,0-4.0595703,1.8212891-4.0595703,4.0585938
		c0,0.4550781,0.0869141,0.9111328,0.2636719,1.3945312C9.3081207,8.6513672,9.2544098,8.8974609,9.0883942,9.0625
		L3.1665187,14.9853516z"/>
</g>
</svg>
