<?xml version="1.0" encoding="utf-8"?>
<!-- Generator: Adobe Illustrator 19.0.1, SVG Export Plug-In . SVG Version: 6.00 Build 0)  -->
<svg version="1.1" id="Layer_1" xmlns="http://www.w3.org/2000/svg" xmlns:xlink="http://www.w3.org/1999/xlink" x="0px" y="0px"
	 viewBox="0 0 20 20" style="enable-background:new 0 0 20 20;" xml:space="preserve">
<style type="text/css">
	.st0{fill:none;}
</style>
<g>
	<rect class="st0" width="20" height="20"/>
	<path d="M17.5,5.0001526h-3.75V3.4998474c0-0.5523071-0.4476929-1-1-1H7.2499995c-0.5523071,0-1,0.4476929-1,1v1.5003052h-3.75
		c-0.552307,0-0.9999999,0.4476929-0.9999999,1v10.5c0,0.5522461,0.4476929,1,0.9999999,1h15c0.5523071,0,1-0.4477539,1-1v-10.5
		C18.5,5.4478455,18.0523071,5.0001526,17.5,5.0001526z M7.4500117,3.6998596h5.0999761v1.300293H7.4500117V3.6998596z
		 M17.2999878,16.3001404H2.7000117V10.349762h4.928894v1.25c0,0.276123,0.223877,0.5,0.5000005,0.5h3.8128662
		c0.276123,0,0.5-0.223877,0.5-0.5v-1.25h4.8582153V16.3001404z M8.428894,11.2997742V10.349762h3.2128906v0.9500122H8.428894z
		 M17.2999878,9.1497498H2.7000117v-2.949585h14.5999756V9.1497498z"/>
</g>
</svg>
