<?xml version="1.0" encoding="utf-8"?>
<!-- Generator: Adobe Illustrator 19.0.1, SVG Export Plug-In . SVG Version: 6.00 Build 0)  -->
<svg version="1.1" id="Layer_1" xmlns="http://www.w3.org/2000/svg" xmlns:xlink="http://www.w3.org/1999/xlink" x="0px" y="0px"
	 viewBox="0 0 20 20" style="enable-background:new 0 0 20 20;" xml:space="preserve">
<style type="text/css">
	.st0{fill:none;}
</style>
<g>
	<rect x="0.0000148" class="st0" width="20" height="20"/>
	<path d="M10.0000095,1.499979c-4.694397,0-8.5,3.805603-8.5,8.5c0,4.694458,3.805603,8.5,8.5,8.5c4.694458,0,8.5-3.805542,8.5-8.5
		C18.5000095,5.305582,14.6944675,1.499979,10.0000095,1.499979z M9.990366,14.3030844c-0.4832153,0-0.875-0.3917236-0.875-0.875
		c0-0.4832153,0.3917847-0.875,0.875-0.875c0.4832764,0,0.875,0.3917847,0.875,0.875
		C10.865366,13.9113607,10.4736423,14.3030844,9.990366,14.3030844z M12.0435276,9.3039951
		c-0.5658569,0.5454712-1.1768799,0.9881592-1.2616577,1.5272827c-0.0847168,0.5391235-0.1015625,0.8056641-0.1015625,0.8056641
		H9.2252293c0,0-0.1098633-0.8122559,0.2578125-1.5493164c0.4264526-0.7632446,0.9046631-1.2237549,1.2252808-1.4562988
		c0.4003296-0.2489624,0.8061523-1.5974121-0.6237183-1.5974121c-1.1012573,0-1.1337891,1.0419922-1.1337891,1.0419922
		c-0.0869141,0-1.4072266,0-1.4072266,0s-0.0350342-2.3284912,2.5321655-2.3847656
		c2.5671997-0.0562134,2.5322876,2.1914062,2.5322876,2.1914062S12.6939182,8.7574863,12.0435276,9.3039951z"/>
</g>
</svg>
