<?xml version="1.0" encoding="utf-8"?>
<!-- Generator: Adobe Illustrator 19.0.1, SVG Export Plug-In . SVG Version: 6.00 Build 0)  -->
<svg version="1.1" id="Layer_1" xmlns="http://www.w3.org/2000/svg" xmlns:xlink="http://www.w3.org/1999/xlink" x="0px" y="0px"
	 viewBox="0 0 20 20" style="enable-background:new 0 0 20 20;" xml:space="preserve">
<style type="text/css">
	.st0{fill:none;}
</style>
<g>
	<rect x="0.0000148" class="st0" width="20" height="20"/>
	<path d="M10.0000095,1.5c-4.6943965,0-8.5,3.805542-8.5,8.5c0,4.694397,3.805603,8.5,8.5,8.5s8.5-3.805603,8.5-8.5
		C18.5000095,5.305542,14.6944065,1.5,10.0000095,1.5z M9.2587986,5.8630371h1.4824219v5.7739258H9.2587986V5.8630371z
		 M10.0000095,14.3000412c-0.4832153,0-0.875-0.3917847-0.875-0.875c0-0.4832764,0.3917847-0.875,0.875-0.875
		c0.4832764,0,0.875,0.3917236,0.875,0.875C10.8750095,13.9082565,10.4832859,14.3000412,10.0000095,14.3000412z"/>
</g>
</svg>
