<?xml version="1.0" encoding="utf-8"?>
<!-- Generator: Adobe Illustrator 19.0.1, SVG Export Plug-In . SVG Version: 6.00 Build 0)  -->
<svg version="1.1" id="Layer_1" xmlns="http://www.w3.org/2000/svg" xmlns:xlink="http://www.w3.org/1999/xlink" x="0px" y="0px"
	 viewBox="0 0 20 20" style="enable-background:new 0 0 20 20;" xml:space="preserve">
<style type="text/css">
	.st0{fill:none;}
</style>
<g>
	<rect x="0.0000148" class="st0" width="20" height="20"/>
	<path d="M10.0000153,1.5c-4.6943974,0-8.5,3.805542-8.5,8.5c0,4.694397,3.805603,8.5,8.5,8.5c4.694458,0,8.5-3.805603,8.5-8.5
		C18.5000153,5.305542,14.6944733,1.5,10.0000153,1.5z M10.2103424,5.8756714c0.5523071,0,1,0.4476929,1,1s-0.4476929,1-1,1
		c-0.5522461,0-1-0.4476929-1-1S9.6580963,5.8756714,10.2103424,5.8756714z M11.4386749,13.3595581
		c-0.1287231,0.2103882-0.3999634,0.6221924-1.6739502,0.6073608s-1.2221069-0.9777222-1.1702881-1.2739868
		S9.1712189,9.555603,9.1712189,9.555603s0.0549316-0.421936-0.3407593-0.4888916
		C8.355545,8.9863892,8.3133698,8.5556641,8.7489777,8.5556641h1.8220825c0,0,0.5522461,0.0339966,0.4666748,0.5258789
		c-0.1069336,0.6142578-0.6508179,3.411438-0.6508179,3.411438s-0.2816772,0.9768677,0.5036621,0.6740112
		C11.5623932,12.9078979,11.520401,13.2258911,11.4386749,13.3595581z"/>
</g>
</svg>
