<?xml version="1.0" encoding="utf-8"?>
<!-- Generator: Adobe Illustrator 19.0.1, SVG Export Plug-In . SVG Version: 6.00 Build 0)  -->
<svg version="1.1" id="Layer_1" xmlns="http://www.w3.org/2000/svg" xmlns:xlink="http://www.w3.org/1999/xlink" x="0px" y="0px"
	 viewBox="0 0 20 20" style="enable-background:new 0 0 20 20;" xml:space="preserve">
<style type="text/css">
	.st0{fill:none;}
</style>
<g>
	<rect x="0.0000148" class="st0" width="20" height="20"/>
	<g>
		<path d="M1.6453954,3.9519653l2.8357544,2.8357544C4.4281712,7.0936279,4.3971043,7.4068604,4.3971043,7.7277832
			l0.0039062,3.3642578c0,1.6538086-1.7265625,2.8813477-1.7441406,2.8930664
			c-0.2148438,0.1503906-0.3076172,0.4228516-0.2285156,0.6723633c0.078125,0.25,0.3095703,0.4204102,0.5712891,0.4204102h4.5007324
			c0.001709,1.3791504,1.1200562,2.4968262,2.4996948,2.4968262c1.3795776,0,2.4979858-1.1176758,2.4996948-2.4968262h0.2715454
			l3.7227173,3.7227173l0.8476562-0.8486328L2.4930515,3.1033325L1.6453954,3.9519653z"/>
		<path d="M17.3414402,13.9846191c-0.0175781-0.012207-1.7412109-1.2260742-1.7412109-2.8925781l-0.0029297-3.3652344
			c0-3.0878906-2.5117188-5.6000977-5.6005859-5.6000977c-1.8948364,0-3.5591431,0.9557495-4.5722656,2.4008179l10.550354,10.550354
			h1.0248413c0.2626953,0,0.4941406-0.1704102,0.5722656-0.4208984
			C17.6510105,14.4064941,17.5572605,14.1340332,17.3414402,13.9846191z"/>
	</g>
</g>
</svg>
