<?xml version="1.0" encoding="utf-8"?>
<!-- Generator: Adobe Illustrator 19.0.1, SVG Export Plug-In . SVG Version: 6.00 Build 0)  -->
<svg version="1.1" id="Layer_1" xmlns="http://www.w3.org/2000/svg" xmlns:xlink="http://www.w3.org/1999/xlink" x="0px" y="0px"
	 viewBox="0 0 20 20" style="enable-background:new 0 0 20 20;" xml:space="preserve">
<style type="text/css">
	.st0{fill:none;}
</style>
<g>
	<g>
		<rect x="0.0000148" class="st0" width="20" height="20"/>
		<path d="M17.3414154,13.9846191c-0.0175781-0.012207-1.7412119-1.2260742-1.7412119-2.8925781l-0.0029297-3.3652344
			c0-3.0878906-2.5117188-5.6000977-5.6005859-5.6000977c-3.0878906,0-5.5996094,2.512207-5.5996094,5.6010742l0.0039062,3.3642578
			c0,1.6538086-1.7265625,2.8813477-1.7441406,2.8930664C2.4420004,14.135498,2.349227,14.407959,2.4283285,14.6574707
			c0.078125,0.25,0.3095703,0.4204102,0.5712891,0.4204102h14.000001c0.2626953,0,0.4941406-0.1704102,0.5722656-0.4208984
			C17.6509857,14.4064941,17.5572357,14.1340332,17.3414154,13.9846191z"/>
	</g>
	<path d="M7.5202732,15.8757935c0.104126,1.2850342,1.1679688,2.2987671,2.4797363,2.2987671
		c1.3118286,0,2.3756104-1.0137329,2.4797363-2.2987671H7.5202732z"/>
</g>
</svg>
