<?xml version="1.0" encoding="utf-8"?>
<!-- Generator: Adobe Illustrator 19.0.1, SVG Export Plug-In . SVG Version: 6.00 Build 0)  -->
<svg version="1.1" id="Layer_1" xmlns="http://www.w3.org/2000/svg" xmlns:xlink="http://www.w3.org/1999/xlink" x="0px" y="0px"
	 viewBox="0 0 20 20" style="enable-background:new 0 0 20 20;" xml:space="preserve">
<style type="text/css">
	.st0{fill:none;}
</style>
<g>
	<g>
		<rect x="0.0000148" class="st0" width="20" height="20"/>
	</g>
	<path d="M18.3668976,16.3811035L10.8935089,2.5742798C10.6975861,2.2122192,10.3488312,2.03125,10.0000153,2.03125
		c-0.3487549,0-0.6975098,0.1809692-0.8934326,0.5430298L1.6331936,16.3811035
		c-0.3843994,0.710144,0.109436,1.5876465,0.8934935,1.5876465h14.9467163
		C18.2574615,17.96875,18.751297,17.0912476,18.3668976,16.3811035z M9.3943634,7.9992676h1.2069702v4.7011719H9.3943634V7.9992676z
		 M10.0000153,14.9182129c-0.4141846,0-0.75-0.3358154-0.75-0.75s0.3358154-0.75,0.75-0.75c0.4142456,0,0.75,0.3358154,0.75,0.75
		S10.4142609,14.9182129,10.0000153,14.9182129z"/>
</g>
</svg>
