<?xml version="1.0" encoding="utf-8"?>
<!-- Generator: Adobe Illustrator 19.0.1, SVG Export Plug-In . SVG Version: 6.00 Build 0)  -->
<svg version="1.1" id="Layer_1" xmlns="http://www.w3.org/2000/svg" xmlns:xlink="http://www.w3.org/1999/xlink" x="0px" y="0px"
	 viewBox="0 0 20 20" style="enable-background:new 0 0 20 20;" xml:space="preserve">
<style type="text/css">
	.st0{fill:none;}
</style>
<g>
	<rect x="-0.0000004" class="st0" width="20" height="20"/>
	<rect x="-0.0000004" class="st0" width="20" height="20"/>
	<path d="M10,1.4999752c-4.6943974,0-8.5,3.805603-8.5,8.5c0,4.694458,3.805603,8.5,8.5,8.5s8.5-3.805542,8.5-8.5
		C18.5,5.3055782,14.694397,1.4999752,10,1.4999752z M9.9922485,5.0422115c1.6574707,0,3,1.3424683,3,2.999939s-1.3425293,3-3,3
		c-1.6575317,0-3.0000005-1.3425293-3.0000005-3S8.3347168,5.0422115,9.9922485,5.0422115z M10,17.4999752
		c-2.0866094,0-3.9752812-0.8581543-5.3361821-2.2380981c1.1784668-1.6530762,3.1069946-2.7346191,5.2918096-2.7346191
		c2.2081909,0,4.1560669,1.1035767,5.3307495,2.7866821C13.9294434,16.6639156,12.06073,17.4999752,10,17.4999752z"/>
</g>
</svg>
