<?xml version="1.0" encoding="utf-8"?>
<!-- Generator: Adobe Illustrator 19.0.1, SVG Export Plug-In . SVG Version: 6.00 Build 0)  -->
<svg version="1.1" id="Layer_1" xmlns="http://www.w3.org/2000/svg" xmlns:xlink="http://www.w3.org/1999/xlink" x="0px" y="0px"
	 viewBox="0 0 20 20" style="enable-background:new 0 0 20 20;" xml:space="preserve">
<style type="text/css">
	.st0{fill:none;}
</style>
<g>
	<rect x="0.0000148" class="st0" width="20" height="20"/>
	<path d="M13.6028767,6.3407192l0.020874-0.1174316H13.504427h-1.2021484h-0.0844116l-0.0141602,0.083252l-0.1455078,0.8573608
		c-0.5415039-0.7939453-1.3189087-1.1808472-2.3682251-1.1808472c-2.0789189,0-3.7073979,1.9004517-3.7073979,4.3265381
		c0,2.0109253,1.2490845,3.4154053,3.0374761,3.4154053c1.1984863,0,2.1705322-0.4404297,2.7603149-1.2451172
		c0.3739624,0.8471069,1.2086182,1.3652344,2.2230835,1.3652344c1.9226685,0,3.8627319-1.3643799,3.8627319-4.4124756
		c0-4.5901489-3.0407104-7.5560303-7.746521-7.5560303c-4.4779668,0-7.9857183,3.5982666-7.9857183,8.1917725
		c0,4.6674194,3.3515015,8.0550537,7.9691167,8.0550537c1.7285767,0,3.3803101-0.4504395,4.7767334-1.3026733l0.074585-0.0455322
		l-0.0350952-0.0800171l-0.4296875-0.9794922l-0.0454102-0.1034546l-0.097168,0.0575562
		c-1.3862915,0.821228-2.6555176,1.1716309-4.2439575,1.1716309c-3.8159184,0-6.4810185-2.7852173-6.4810185-6.7730713
		c0-3.939209,2.7862549-6.90979,6.4810185-6.90979c3.8699951,0,6.2740479,2.3977051,6.2740479,6.2574463
		c0,1.9118042-0.9118042,3.1470947-2.322876,3.1470947c-0.8427124,0-1.2915649-0.7104492-1.2915649-1.2232666
		c0-0.1369629,0.0285034-0.3859863,0.0846558-0.7401733L13.6028767,6.3407192z M11.6349201,9.4160366
		c0,1.883728-1.1547241,3.0093994-2.2711182,3.0093994c-1.2385254,0-1.8931279-0.7438354-1.8931279-2.151001
		c0-1.7718506,0.9692388-3.0093994,2.3569951-3.0093994C10.8917561,7.2650356,11.6349201,8.1495571,11.6349201,9.4160366z"/>
</g>
</svg>
