<svg xmlns="http://www.w3.org/2000/svg" width="20" height="20" viewBox="0 0 20 20">
    <path fill="#2A2C2E" fill-rule="evenodd" d="M9.014 1h1.972c1.568.004 1.912.017 2.725.054.958.044 1.612.196 2.184.418.592.23 1.094.538 1.594 1.039.5.5.809 1.002 1.039 1.594.222.572.374 1.226.418 2.184C18.99 7.25 19 7.556 19 10s-.01 2.75-.054 3.71c-.044.959-.196 1.613-.418 2.185a4.412 4.412 0 0 1-1.039 1.595c-.5.5-1.002.808-1.594 1.038-.572.222-1.226.374-2.184.418-.923.042-1.242.053-3.438.054h-.546c-2.196 0-2.515-.012-3.438-.054-.958-.044-1.612-.196-2.184-.418A4.411 4.411 0 0 1 2.51 17.49c-.5-.5-.809-1.003-1.038-1.595-.223-.572-.375-1.226-.419-2.184-.037-.813-.05-1.157-.053-2.724V9.014c.003-1.568.016-1.912.053-2.725.044-.958.196-1.612.419-2.184A4.411 4.411 0 0 1 2.51 2.51c.5-.5 1.002-.809 1.594-1.039.572-.222 1.226-.374 2.184-.418.813-.037 1.157-.05 2.725-.053h1.972zm1.523 1.622H9.463c-1.916.001-2.227.012-3.1.052-.877.04-1.354.187-1.67.31-.421.163-.72.358-1.036.673a2.79 2.79 0 0 0-.673 1.035c-.123.317-.27.794-.31 1.671-.04.873-.05 1.184-.052 3.1v1.075c.001 1.915.012 2.226.052 3.099.04.877.187 1.354.31 1.671.163.42.358.72.673 1.035.315.315.615.51 1.035.673.317.123.794.27 1.671.31.873.04 1.184.05 3.1.052h1.075c1.915-.001 2.226-.012 3.099-.052.877-.04 1.354-.187 1.67-.31.421-.163.72-.358 1.036-.673.315-.315.51-.615.673-1.035.123-.317.27-.794.31-1.671.04-.873.05-1.184.052-3.1V9.464c-.001-1.916-.012-2.227-.052-3.1-.04-.877-.187-1.354-.31-1.67a2.787 2.787 0 0 0-.673-1.036 2.788 2.788 0 0 0-1.035-.673c-.317-.123-.794-.27-1.671-.31-.873-.04-1.184-.05-3.1-.052zM10 5.378a4.622 4.622 0 1 1 0 9.244 4.622 4.622 0 0 1 0-9.244zM10 7a3 3 0 1 0 0 6 3 3 0 0 0 0-6zm4.804-2.884a1.08 1.08 0 1 1 0 2.16 1.08 1.08 0 0 1 0-2.16z"/>
</svg>
