<?xml version="1.0" encoding="utf-8"?>
<!-- Generator: Adobe Illustrator 19.0.1, SVG Export Plug-In . SVG Version: 6.00 Build 0)  -->
<svg version="1.1" id="Layer_1" xmlns="http://www.w3.org/2000/svg" xmlns:xlink="http://www.w3.org/1999/xlink" x="0px" y="0px"
	 viewBox="0 0 20 20" style="enable-background:new 0 0 20 20;" xml:space="preserve">
<style type="text/css">
	.st0{fill:none;}
</style>
<g>
	<rect x="-0.0000004" class="st0" width="20" height="20"/>
	<g>
		<circle cx="12.6887608" cy="7.3353271" r="1"/>
		<path d="M17.8069859,2.2935181c-0.5437622-0.5437622-1.7640991-0.265686-1.7640991-0.265686
			c-2.3876953,0.265625-4.8638916,1.1624756-6.8218994,2.5531006C8.2267246,5.286377,7.3554478,6.18573,6.6008701,7.2416382
			L2.477823,7.5906982C2.337198,7.602417,2.2043855,7.6639404,2.1047761,7.7645264L1.1311435,8.7381592
			c-0.2944337,0.2966309-0.1757813,0.6617432,0,0.8486328l3.230896,3.2299805L2.969034,13.3485107
			c-0.4239502,0.1593018-0.5006104,0.6755981-0.2099609,0.984375l2.9326174,2.9326172
			c0.3409424,0.3310547,0.8356934,0.142334,0.984375-0.2099609l0.5430908-1.4226685l3.2362061,3.236145
			c0.2681274,0.2537231,0.6340942,0.2098999,0.8476562,0l0.953125-0.953125
			c0.1005859-0.0996094,0.1621094-0.2324219,0.1738281-0.3730469l0.3484497-4.1161499
			c1.0584717-0.7554932,1.9589844-1.6277466,2.6652222-2.6231079c1.390625-1.9599609,2.2879639-4.5092163,2.5535889-6.8959351
			C17.9972324,3.9076538,18.1957188,2.7573853,17.8069859,2.2935181z M12.6887608,9.4353275
			c-1.1597815,0-2.1000004-0.9402199-2.1000004-2.1000004c0-1.1598449,0.9402189-2.0999999,2.1000004-2.0999999
			s2.0999994,0.940155,2.0999994,2.0999999C14.7887602,8.4951077,13.8485413,9.4353275,12.6887608,9.4353275z"/>
	</g>
</g>
</svg>
