<?xml version="1.0" encoding="utf-8"?>
<!-- Generator: Adobe Illustrator 19.0.1, SVG Export Plug-In . SVG Version: 6.00 Build 0)  -->
<svg version="1.1" id="Layer_1" xmlns="http://www.w3.org/2000/svg" xmlns:xlink="http://www.w3.org/1999/xlink" x="0px" y="0px"
	 viewBox="0 0 20 20" style="enable-background:new 0 0 20 20;" xml:space="preserve">
<style type="text/css">
	.st0{fill:none;}
</style>
<g>
	<rect x="-0.0000004" class="st0" width="20" height="20"/>
	<rect x="-0.0000004" class="st0" width="20" height="20"/>
	<g>
		<path d="M5.7368159,18.1323242c-0.9960938,0-1.9912109-0.3789062-2.7490234-1.1376953
			c-1.5166014-1.515625-1.5166014-3.9833984,0-5.4990234l1.9736328-1.9746094l0.8486328,0.8486328l-1.9746094,1.9736328
			c-1.0478516,1.0488281-1.0478516,2.7548828,0,3.8037109c1.0488281,1.046875,2.7539062,1.046875,3.8027344,0l3.1005864-3.1005859
			c1.0478516-1.0488281,1.0478516-2.7548828-0.0009766-3.8037109l-0.4238281-0.4238281l0.8486328-0.8486328l0.4248047,0.4248047
			c1.515625,1.5166016,1.515625,3.9833984-0.0009766,5.4990234l-3.1005859,3.1005859
			C7.7280269,17.753418,6.7329097,18.1323242,5.7368159,18.1323242z"/>
		<path d="M8.8374023,11.9936523l-0.4248047-0.4248047c-1.5156255-1.5166016-1.5156255-3.9833984,0.0009766-5.4990234
			l3.1005859-3.1005859c1.46875-1.46875,4.0292969-1.46875,5.4980469,0c1.5166016,1.515625,1.5166016,3.9833984,0,5.4990234
			l-1.9736328,1.9746094l-0.8486328-0.8486328l1.9746094-1.9736328c1.0478516-1.0488281,1.0478516-2.7548828,0-3.8037109
			c-1.0488281-1.046875-2.7539062-1.046875-3.8027344,0L9.2612305,6.9174805
			C8.2133789,7.9663086,8.2133789,9.6723633,9.262207,10.7211914l0.4238281,0.4238281L8.8374023,11.9936523z"/>
	</g>
</g>
</svg>
