<svg xmlns="http://www.w3.org/2000/svg" width="20" height="20" viewBox="0 0 20 20">
    <path fill="#2A2C2E" fill-rule="evenodd" d="M17.668 1c.734 0 1.331.581 1.331 1.298v15.403c0 .717-.597 1.299-1.331 1.299H2.328C1.594 19 1 18.418 1 17.701V2.298C1 1.581 1.595 1 2.327 1zM6.339 7.748H3.667v8.59h2.672v-8.59zm6.797-.213c-1.299 0-2.17.712-2.526 1.388h-.037V7.748H8.014v8.59h2.667V12.09c0-1.121.212-2.207 1.6-2.207 1.37 0 1.388 1.282 1.388 2.278v4.177h2.67v-4.71c0-2.314-.5-4.093-3.203-4.093zM5.004 3.478A1.547 1.547 0 1 0 5 6.573a1.547 1.547 0 0 0 .003-3.095z"/>
</svg>
