<?xml version="1.0" encoding="utf-8"?>
<!-- Generator: Adobe Illustrator 19.0.1, SVG Export Plug-In . SVG Version: 6.00 Build 0)  -->
<svg version="1.1" id="Layer_1" xmlns="http://www.w3.org/2000/svg" xmlns:xlink="http://www.w3.org/1999/xlink" x="0px" y="0px"
	 viewBox="0 0 20 20" style="enable-background:new 0 0 20 20;" xml:space="preserve">
<style type="text/css">
	.st0{fill:none;}
</style>
<g>
	<rect x="-0.0000004" class="st0" width="20" height="20"/>
	<path d="M16.5667515,2.3428116c-0.1360474,0-0.2770996,0.0263062-0.4181519,0.0839233L2.023294,8.6511002
		c-0.9088134,0.3710938-0.9039305,1.659729,0.0076904,2.0238647l4.8292236,1.9290771
		c0.0195312-0.0490112,0.0487061-0.0950317,0.0883179-0.1346436l4.1451411-4.1451406c0.15625-0.15625,0.4101562-0.15625,0.5664062,0
		s0.15625,0.4101562,0,0.5664062l-4.1451411,4.1451406c-0.0395508,0.0395508-0.0853882,0.0687256-0.1342163,0.0882568
		l1.9415898,4.8475342c0.1829834,0.4567871,0.5980835,0.6855469,1.0133057,0.6855469
		c0.4126587,0,0.8253784-0.2260132,1.0102539-0.678772l6.225708-14.1286621
		C17.8794956,3.0955582,17.2941074,2.3428116,16.5667515,2.3428116z"/>
</g>
</svg>
