<?xml version="1.0" encoding="utf-8"?>
<!-- Generator: Adobe Illustrator 19.0.1, SVG Export Plug-In . SVG Version: 6.00 Build 0)  -->
<svg version="1.1" id="Layer_1" xmlns="http://www.w3.org/2000/svg" xmlns:xlink="http://www.w3.org/1999/xlink" x="0px" y="0px"
	 viewBox="0 0 20 20" style="enable-background:new 0 0 20 20;" xml:space="preserve">
<style type="text/css">
	.st0{fill:none;}
</style>
<g>
	<rect x="0.0000148" class="st0" width="20" height="20"/>
	<path d="M14.399436,14.0395508c-0.8398438,0-1.5461426,0.5494995-1.7991333,1.3046875H7.2220669
		c-0.1772461-0.5289917-0.5739136-0.9562988-1.088501-1.1642456l0.2230835-0.8745117h8.8720093
		c0.5042725,0,0.9296856-0.3754883,0.9922466-0.8759155l0.8905029-7.1239624H5.5423794L5.2666225,3.1137695
		C5.1972866,2.5649414,4.7285366,2.1508789,4.1748257,2.1508789H1.5000211v1.1992188H4.086935l1.1804199,9.373291
		l-0.355896,1.3947754c-0.8005981,0.2251587-1.3928833,0.9542236-1.3928833,1.8256836
		c0,1.0507812,0.8544922,1.9052734,1.9042969,1.9052734c0.8400269,0,1.5464478-0.5497437,1.7993164-1.3056641h5.3779306
		c0.2528687,0.7559204,0.9592896,1.3056641,1.7993164,1.3056641c1.0498047,0,1.9042959-0.8544922,1.9042959-1.9052734
		C16.3037319,14.894043,15.4492407,14.0395508,14.399436,14.0395508z"/>
</g>
</svg>
