<?xml version="1.0" encoding="utf-8"?>
<!-- Generator: Adobe Illustrator 19.0.1, SVG Export Plug-In . SVG Version: 6.00 Build 0)  -->
<svg version="1.1" id="Layer_1" xmlns="http://www.w3.org/2000/svg" xmlns:xlink="http://www.w3.org/1999/xlink" x="0px" y="0px"
	 viewBox="0 0 20 20" style="enable-background:new 0 0 20 20;" xml:space="preserve">
<style type="text/css">
	.st0{fill:none;}
</style>
<g>
	<rect x="0.0000148" class="st0" width="20" height="20"/>
	<path d="M16.0000153,4.9925556h-2.6501465V4.8496113c0-1.8476562-1.5019531-3.3496094-3.3496094-3.3496094
		S6.6506495,3.001955,6.6506495,4.8496113v0.1429443H4.0000148l-1,13.0089111h14L16.0000153,4.9925556z M7.2498927,7.970583
		c-0.3313599,0-0.6000366-0.2686157-0.6000366-0.5999756s0.2686768-0.6000366,0.6000366-0.6000366
		s0.5999756,0.2686768,0.5999756,0.6000366S7.5812526,7.970583,7.2498927,7.970583z M12.15065,4.9925556H7.8498683V4.8496113
		c0-1.1855469,0.9648442-2.1503906,2.1503911-2.1503906S12.15065,3.6640644,12.15065,4.8496113V4.9925556z M12.7521515,7.970583
		c-0.3313599,0-0.5999756-0.2686157-0.5999756-0.5999756s0.2686157-0.6000366,0.5999756-0.6000366
		c0.3314209,0,0.6000366,0.2686768,0.6000366,0.6000366S13.0835724,7.970583,12.7521515,7.970583z"/>
</g>
</svg>
