<svg xmlns="http://www.w3.org/2000/svg" width="20" height="20" viewBox="0 0 20 20">
    <path fill="#2A2C2E" fill-rule="evenodd" d="M6.653 17.609c6.784 0 10.493-5.62 10.493-10.493 0-.16-.003-.319-.01-.477a7.506 7.506 0 0 0 1.84-1.91 7.362 7.362 0 0 1-2.118.581 3.7 3.7 0 0 0 1.621-2.04 7.39 7.39 0 0 1-2.342.895 3.689 3.689 0 0 0-6.285 3.363 10.47 10.47 0 0 1-7.6-3.853 3.685 3.685 0 0 0 1.142 4.923 3.66 3.66 0 0 1-1.672-.46v.047A3.69 3.69 0 0 0 4.68 11.8a3.7 3.7 0 0 1-1.665.063 3.692 3.692 0 0 0 3.445 2.562 7.401 7.401 0 0 1-4.58 1.578 7.53 7.53 0 0 1-.88-.05 10.44 10.44 0 0 0 5.653 1.656"/>
</svg>
