<?xml version="1.0" encoding="utf-8"?>
<!-- Generator: Adobe Illustrator 19.0.1, SVG Export Plug-In . SVG Version: 6.00 Build 0)  -->
<svg version="1.1" id="Layer_1" xmlns="http://www.w3.org/2000/svg" xmlns:xlink="http://www.w3.org/1999/xlink" x="0px" y="0px"
	 viewBox="0 0 20 20" style="enable-background:new 0 0 20 20;" xml:space="preserve">
<style type="text/css">
	.st0{fill:none;}
</style>
<g>
	<g>
		<g>
			<path id="SVGID_1_" d="M14.8999996,16.1000004h-9c-2.5999999,0-4.8000002-2.1000004-4.8000002-4.8000002
				c0-2.3000002,1.5999999-4.3000002,4-4.6999998c1-1.8000002,2.9000001-2.8,5-2.8c2.5999994,0,4.9000006,1.8,5.5999994,4.1999998
				c1.8999996,0.3999996,3.2999992,2.1000004,3.2999992,4C18.8999996,14.3999996,17.1000004,16.1000004,14.8999996,16.1000004z
				 M10,5.0999999C8.3000002,5.0999999,6.6999998,6,6,7.5L5.8000002,7.8000002H5.5C3.5999999,8,2.3,9.5,2.3,11.3999996
				C2.3,13.3999996,3.9000001,15,5.8999996,15h9c1.6000004,0,2.8999996-1.3000002,2.8999996-2.8999996
				c0-1.5-1.2000008-2.8000002-2.6000004-2.8999996h-0.3999996l-0.1000004-0.3999996
				C14.1000004,6.5999999,12.1999998,5.0999999,10,5.0999999z"/>
		</g>
	</g>
	<rect class="st0" width="20" height="20"/>
</g>
</svg>
