<?xml version="1.0" encoding="utf-8"?>
<!-- Generator: Adobe Illustrator 19.0.1, SVG Export Plug-In . SVG Version: 6.00 Build 0)  -->
<svg version="1.1" id="Layer_1" xmlns="http://www.w3.org/2000/svg" xmlns:xlink="http://www.w3.org/1999/xlink" x="0px" y="0px"
	 viewBox="0 0 20 20" style="enable-background:new 0 0 20 20;" xml:space="preserve">
<style type="text/css">
	.st0{fill:none;}
</style>
<g>
	<g>
		<g>
			<defs>
				<path id="SVGID_1_" d="M14.3310547,13.1228027H6.2871094c-2.3779297,0-4.3115234-1.9345703-4.3115234-4.3125
					c0-2.1035156,1.4755859-3.8476562,3.5527344-4.2568359C6.4375,2.9851074,8.1230469,2.0231934,10,2.0231934
					c2.3496094,0,4.4140625,1.5644531,5.0634766,3.7773438c1.6679688,0.3505859,2.9609375,1.8925781,2.9609375,3.6289062
					C18.0244141,11.5007324,16.4023438,13.1228027,14.3310547,13.1228027z M10,3.2224121
					c-1.5273438,0-2.8867188,0.8222656-3.546875,2.1445312L6.3095703,5.6530762L5.9921875,5.6931152
					C4.3603516,5.9040527,3.1748047,7.2145996,3.1748047,8.8103027c0,1.7167969,1.3964844,3.1132812,3.1123047,3.1132812h8.0439453
					c1.3984375,0,2.4941406-1.0957031,2.4941406-2.4941406c0-1.2744141-1.0292969-2.3945312-2.2939453-2.4960938
					l-0.4492188-0.0351562l-0.0908203-0.4414062C13.6054688,4.5827637,11.9267578,3.2224121,10,3.2224121z"/>
			</defs>
			<use xlink:href="#SVGID_1_"  style="overflow:visible;"/>
			<clipPath id="SVGID_2_">
				<use xlink:href="#SVGID_1_"  style="overflow:visible;"/>
			</clipPath>
		</g>
		<path d="M15.7700195,15.5031738H4.2299805c-0.3310547,0-0.5996094-0.2685547-0.5996094-0.5996094
			s0.2685547-0.5996094,0.5996094-0.5996094h11.5400391c0.3310547,0,0.5996094,0.2685547,0.5996094,0.5996094
			S16.1010742,15.5031738,15.7700195,15.5031738z"/>
		<path d="M15.7836914,17.9768066H4.2436523c-0.3310547,0-0.5996094-0.2685547-0.5996094-0.5996094
			s0.2685547-0.5996094,0.5996094-0.5996094h11.5400391c0.3310547,0,0.5996094,0.2685547,0.5996094,0.5996094
			S16.1147461,17.9768066,15.7836914,17.9768066z"/>
	</g>
	<rect class="st0" width="20" height="20"/>
</g>
</svg>
