<?xml version="1.0" encoding="utf-8"?>
<!-- Generator: Adobe Illustrator 19.0.1, SVG Export Plug-In . SVG Version: 6.00 Build 0)  -->
<svg version="1.1" id="Layer_1" xmlns="http://www.w3.org/2000/svg" xmlns:xlink="http://www.w3.org/1999/xlink" x="0px" y="0px"
	 viewBox="0 0 20 20" style="enable-background:new 0 0 20 20;" xml:space="preserve">
<style type="text/css">
	.st0{fill:none;}
</style>
<g>
	<rect class="st0" width="20" height="20"/>
	<g id="icon_1_">
		<path d="M10.941844,17.7810268c-0.6875,0-1.3828125-0.0917969-2.0693359-0.2802734
			C4.754344,16.369894,2.3227034,12.0984097,3.4545393,7.979269c0.546875-1.9951172,1.8398438-3.6582031,3.6376953-4.6816406
			c1.7988119-1.0234375,3.8867188-1.2841797,5.8837891-0.7363281c0.2197266,0.0585938,0.4375,0.1318359,0.6533203,0.2138672
			c0.2128906,0.0820312,0.3613281,0.2773438,0.3828125,0.5039062s-0.0878906,0.4462891-0.28125,0.5664062
			c-1.2089844,0.75-2.0820312,1.9179688-2.4580078,3.2900391c-0.8203125,2.9902344,0.9443359,6.0898438,3.9345703,6.9101562
			h0.0009766c0.3466797,0.0957031,0.7021484,0.1572266,1.057601,0.1826172c0.2285328,0.0166016,0.4287281,0.1621094,0.513689,0.375
			c0.0859375,0.2128906,0.0419922,0.4560547-0.1123047,0.6259766C15.1723127,16.8816128,13.0951643,17.7810268,10.941844,17.7810268
			z M10.9125471,3.4812222c-1.1201172,0-2.2265625,0.2900391-3.2265625,0.859375
			C6.1664534,5.2058315,5.0746565,6.611105,4.6107893,8.2976284c-0.9550781,3.4804688,1.0986328,7.0908203,4.5800781,8.046875
			c2.0126953,0.5537109,4.125,0.1191406,5.7373047-1.1318359c-0.0136719-0.0029297-0.0263672-0.0068359-0.0400391-0.0107422
			c-3.6269531-0.9960938-5.7675781-4.7558594-4.7734375-8.3837891C10.4594221,5.56423,11.144969,4.4509487,12.0893049,3.588644
			C11.6986799,3.5163784,11.3041487,3.4812222,10.9125471,3.4812222z"/>
	</g>
</g>
</svg>
