<?xml version="1.0" encoding="utf-8"?>
<!-- Generator: Adobe Illustrator 19.0.1, SVG Export Plug-In . SVG Version: 6.00 Build 0)  -->
<svg version="1.1" id="Layer_1" xmlns="http://www.w3.org/2000/svg" xmlns:xlink="http://www.w3.org/1999/xlink" x="0px" y="0px"
	 viewBox="0 0 20 20" style="enable-background:new 0 0 20 20;" xml:space="preserve">
<style type="text/css">
	.st0{fill:none;}
</style>
<g>
	<rect class="st0" width="20" height="20"/>
	<g>
		<g>
			<defs>
				<path id="SVGID_1_" d="M14.3310699,13.1228027H6.2871242c-2.3779297,0-4.3115234-1.9345703-4.3115234-4.3125
					c0-2.1035156,1.4755858-3.8476562,3.5527344-4.2568359c0.9091797-1.5683594,2.594727-2.5302734,4.4716802-2.5302734
					c2.3496094,0,4.4140625,1.5644531,5.0634766,3.7773438c1.6679688,0.3505859,2.9609375,1.8925781,2.9609375,3.6289062
					C18.0244293,11.5007324,16.402359,13.1228027,14.3310699,13.1228027z M10.0000153,3.2224121
					c-1.5273438,0-2.8867192,0.8222656-3.5468755,2.1445312L6.3095851,5.6530762L5.9922023,5.6931152
					C4.3603663,5.9040527,3.1748195,7.2145996,3.1748195,8.8103027c0,1.7167969,1.3964844,3.1132812,3.1123047,3.1132812h8.0439453
					c1.3984375,0,2.4941406-1.0957031,2.4941406-2.4941406c0-1.2744141-1.0292969-2.3945312-2.2939453-2.4960938
					l-0.4492188-0.0351562l-0.0908203-0.4414062C13.605484,4.5827637,11.9267731,3.2224121,10.0000153,3.2224121z"/>
			</defs>
			<use xlink:href="#SVGID_1_"  style="overflow:visible;"/>
			<clipPath id="SVGID_2_">
				<use xlink:href="#SVGID_1_"  style="overflow:visible;"/>
			</clipPath>
		</g>
		<path d="M5.675139,17.2800293c-0.0703125,0-0.140625-0.0126953-0.2099609-0.0380859
			c-0.3105469-0.1162109-0.4677734-0.4619141-0.3525391-0.7724609l0.7871094-2.1064453
			c0.1171875-0.3105469,0.4638672-0.4658203,0.7724609-0.3525391c0.3105469,0.1162109,0.4677734,0.4619141,0.3525391,0.7724609
			L6.237639,16.8894043C6.1468186,17.1306152,5.918303,17.2800293,5.675139,17.2800293z"/>
		<path d="M9.2796307,17.2800293c-0.0703125,0-0.1416016-0.0126953-0.2109375-0.0390625
			c-0.3105469-0.1162109-0.4667969-0.4619141-0.3505859-0.7724609l0.7910156-2.1064453
			c0.1162109-0.3095703,0.4638672-0.4667969,0.7724609-0.3505859c0.3105469,0.1162109,0.4667969,0.4619141,0.3505859,0.7724609
			l-0.7910156,2.1064453C9.7513103,17.1306152,9.5227947,17.2800293,9.2796307,17.2800293z"/>
		<path d="M12.8870525,17.2800293c-0.0703125,0-0.140625-0.0126953-0.2099609-0.0390625
			c-0.3105469-0.1152344-0.4677734-0.4609375-0.3515625-0.7714844l0.7880859-2.1064453
			c0.1162109-0.3105469,0.4619141-0.4677734,0.7714844-0.3515625c0.3105469,0.1152344,0.4677734,0.4609375,0.3515625,0.7714844
			l-0.7880859,2.1064453C13.3587322,17.1306152,13.1302166,17.2800293,12.8870525,17.2800293z"/>
	</g>
</g>
</svg>
