<?xml version="1.0" encoding="utf-8"?>
<!-- Generator: Adobe Illustrator 19.0.1, SVG Export Plug-In . SVG Version: 6.00 Build 0)  -->
<svg version="1.1" id="Layer_1" xmlns="http://www.w3.org/2000/svg" xmlns:xlink="http://www.w3.org/1999/xlink" x="0px" y="0px"
	 viewBox="0 0 20 20" style="enable-background:new 0 0 20 20;" xml:space="preserve">
<style type="text/css">
	.st0{fill:none;}
</style>
<g>
	<rect class="st0" width="20" height="20"/>
	<g>
		<path d="M15.0635061,6.8005371c-0.6494141-2.2128906-2.7138672-3.7773438-5.0634766-3.7773438
			c-1.8769531,0-3.5625,0.9619141-4.4716797,2.5302734C3.4512017,5.9626465,1.9756156,7.7067871,1.9756156,9.8103027
			c0,2.3286133,1.8576051,4.2200928,4.1676025,4.2979736v-1.1992798c-1.6478882-0.0770874-2.9683836-1.4312134-2.9683836-3.0986938
			c0-1.5957031,1.1855466-2.90625,2.8173826-3.1171875l0.3173828-0.0400391l0.1435547-0.2861328
			c0.6601562-1.3222656,2.0195312-2.1445312,3.546875-2.1445312c1.9267578,0,3.6054688,1.3603516,3.9912109,3.234375
			l0.0908203,0.4414062l0.4492188,0.0351562c1.2646484,0.1015625,2.2939463,1.2216797,2.2939463,2.4960938
			c0,1.3984375-1.0957041,2.4941406-2.4941416,2.4941406h-0.4984741v1.1992188h0.4984741
			c2.07129,0,3.6933603-1.6220703,3.6933603-3.6933594C18.0244446,8.6931152,16.7314758,7.151123,15.0635061,6.8005371z"/>
		<path d="M12.6728811,12.5251465c-0.1660156-0.2861328-0.5302734-0.3867188-0.8193359-0.2197266l-1.265625,0.7307129v-1.4611816
			c0-0.3310547-0.2685547-0.5996094-0.5996094-0.5996094s-0.5996094,0.2685547-0.5996094,0.5996094v1.4611816l-1.265625-0.7307129
			c-0.2890625-0.1669922-0.6533203-0.0664062-0.8193359,0.2197266c-0.1660156,0.2871094-0.0673828,0.6533203,0.2197266,0.8193359
			l1.2651978,0.7304688l-1.2651978,0.7304688c-0.2871094,0.1660156-0.3857422,0.5322266-0.2197266,0.8193359
			c0.1113281,0.1923828,0.3125,0.3007812,0.5205078,0.3007812c0.1015625,0,0.2041016-0.0263672,0.2988281-0.0810547
			l1.265625-0.7307129v1.4611816c0,0.3310547,0.2685547,0.5996094,0.5996094,0.5996094s0.5996094-0.2685547,0.5996094-0.5996094
			v-1.4611816l1.265625,0.7307129c0.0947266,0.0546875,0.1972656,0.0810547,0.2988281,0.0810547
			c0.2080078,0,0.4091797-0.1083984,0.5205078-0.3007812c0.1660156-0.2871094,0.0673828-0.6533203-0.2197266-0.8193359
			l-1.2651978-0.7304688l1.2651978-0.7304688C12.7402639,13.1784668,12.8388968,12.8122559,12.6728811,12.5251465z"/>
	</g>
</g>
</svg>
