<?xml version="1.0" encoding="utf-8"?>
<!-- Generator: Adobe Illustrator 19.0.1, SVG Export Plug-In . SVG Version: 6.00 Build 0)  -->
<svg version="1.1" id="Layer_1" xmlns="http://www.w3.org/2000/svg" xmlns:xlink="http://www.w3.org/1999/xlink" x="0px" y="0px"
	 viewBox="0 0 20 20" style="enable-background:new 0 0 20 20;" xml:space="preserve">
<style type="text/css">
	.st0{fill:none;}
</style>
<g>
	<rect class="st0" width="20" height="20"/>
	<g>
		<g>
			<path d="M10.0000153,5.7380371c2.3499756,0,4.2617798,1.9118042,4.2617798,4.2617493s-1.9118042,4.2617493-4.2617798,4.2617493
				c-2.349915,0-4.2617192-1.9118042-4.2617192-4.2617493S7.6501002,5.7380371,10.0000153,5.7380371 M10.0000153,4.5380249
				c-3.0164189,0-5.4617314,2.445282-5.4617314,5.4617615c0,3.016449,2.4453125,5.4617615,5.4617314,5.4617615
				c3.0164795,0,5.461792-2.4453125,5.461792-5.4617615C15.4618073,6.9833069,13.0164948,4.5380249,10.0000153,4.5380249
				L10.0000153,4.5380249z"/>
		</g>
		<g>
			<rect x="9.4004059" y="0.9799805" width="1.1992188" height="2.1923828"/>
		</g>
		<g>
			<rect x="9.4004059" y="16.8266602" width="1.1992188" height="2.1933594"/>
		</g>
		<g>
			
				<rect x="3.7974014" y="14.5063162" transform="matrix(0.7062926 0.70792 -0.70792 0.7062926 12.3369207 1.4695199)" width="1.2001488" height="2.1924455"/>
		</g>
		<g>
			
				<rect x="15.00317" y="3.3004048" transform="matrix(0.7071068 0.7071068 -0.7071068 0.7071068 7.6790113 -9.7448282)" width="1.1987669" height="2.193136"/>
		</g>
		<g>
			
				<rect x="3.3009079" y="3.7975891" transform="matrix(0.7071068 0.7071068 -0.7071068 0.7071068 4.39712 -1.8216414)" width="2.193136" height="1.1987669"/>
		</g>
		<g>
			
				<rect x="14.5063314" y="15.0024643" transform="matrix(0.7073295 0.706884 -0.706884 0.7073295 15.5955935 -6.4627929)" width="2.1924455" height="1.2001488"/>
		</g>
		<g>
			<rect x="0.9804836" y="9.3999023" width="2.1923828" height="1.1992188"/>
		</g>
		<g>
			<rect x="16.8271637" y="9.3999023" width="2.1923828" height="1.1992188"/>
		</g>
	</g>
</g>
</svg>
