<?xml version="1.0" encoding="utf-8"?>
<!-- Generator: Adobe Illustrator 19.0.1, SVG Export Plug-In . SVG Version: 6.00 Build 0)  -->
<svg version="1.1" id="Layer_1" xmlns="http://www.w3.org/2000/svg" xmlns:xlink="http://www.w3.org/1999/xlink" x="0px" y="0px"
	 viewBox="0 0 20 20" style="enable-background:new 0 0 20 20;" xml:space="preserve">
<style type="text/css">
	.st0{fill:none;}
</style>
<path d="M15.6374054,10.2304688l-1.0878906-0.5058594c0.1699219-0.3652344,0.2558594-0.7548828,0.2558594-1.1591797
	c0-1.5136719-1.2324219-2.7460938-2.7470703-2.7460938c-0.7988281,0-1.5566406,0.3476562-2.0791016,0.9521484L9.0709991,5.9882812
	c0.75-0.8701172,1.8388672-1.3681641,2.9873047-1.3681641c2.1757812,0,3.9462891,1.7695312,3.9462891,3.9453125
	C16.0045929,9.1455078,15.881546,9.7060547,15.6374054,10.2304688z"/>
<g>
	<rect x="17.0094757" y="8.0136719" width="1.8076172" height="1.1992188"/>
</g>
<g>
	
		<rect x="15.6923189" y="3.3589385" transform="matrix(0.7071068 0.7071068 -0.7071068 0.7071068 7.8646307 -10.2388515)" width="1.1987669" height="2.03017"/>
</g>
<g>
	<rect x="11.4528351" y="1.7041016" width="1.1992188" height="1.734375"/>
</g>
<g>
	
		<rect x="6.973948" y="3.847882" transform="matrix(0.7071068 0.7071068 -0.7071068 0.7071068 5.4542875 -4.273283)" width="1.8230097" height="1.1987669"/>
</g>
<g>
	<rect class="st0" width="20" height="20"/>
	<g>
		<defs>
			<path id="SVGID_1_" d="M13.1803741,18.2958984H5.3678746c-2.3193359,0-4.2050781-1.8857422-4.2050781-4.2050781
				c0-2.0488281,1.4355469-3.7480469,3.4570312-4.1494141c0.8867188-1.5253906,2.5273438-2.4599609,4.3535151-2.4599609
				c2.2861328,0,4.2958984,1.5195312,4.9316406,3.6708984C15.5280304,11.4970703,16.7838898,13,16.7838898,14.6914062
				C16.7838898,16.7128906,15.200882,18.2958984,13.1803741,18.2958984z M8.9733429,8.6806641
				c-1.476562,0-2.7900386,0.7949219-3.4287105,2.0732422l-0.1435709,0.2851562l-0.31639,0.0410156
				c-1.5771484,0.2041016-2.7226562,1.4697266-2.7226562,3.0107422c0,1.6572266,1.3486328,3.0058594,3.0058594,3.0058594h7.8124995
				c1.3476562,0,2.4042969-1.0566406,2.4042969-2.4052734c0-1.2294922-0.9921875-2.3095703-2.2119141-2.4072266
				l-0.4492188-0.0351562l-0.0908203-0.4414062C12.459671,9.9960938,10.8366241,8.6806641,8.9733429,8.6806641z"/>
		</defs>
		<use xlink:href="#SVGID_1_"  style="overflow:visible;"/>
		<clipPath id="SVGID_2_">
			<use xlink:href="#SVGID_1_"  style="overflow:visible;"/>
		</clipPath>
	</g>
</g>
</svg>
