<?xml version="1.0" encoding="utf-8"?>
<!-- Generator: Adobe Illustrator 19.0.1, SVG Export Plug-In . SVG Version: 6.00 Build 0)  -->
<svg version="1.1" id="Layer_1" xmlns="http://www.w3.org/2000/svg" xmlns:xlink="http://www.w3.org/1999/xlink" x="0px" y="0px"
	 viewBox="0 0 20 20" style="enable-background:new 0 0 20 20;" xml:space="preserve">
<style type="text/css">
	.st0{fill:none;}
</style>
<g>
	<rect class="st0" width="20" height="20"/>
	<g>
		<path d="M15.0634918,5.7995605c-0.6484375-2.2119141-2.7128906-3.7763672-5.0634766-3.7763672
			c-1.8759766,0-3.5615239,0.9609375-4.4707036,2.5302734C3.4521632,4.9626465,1.9756008,6.7067871,1.9756008,8.8103027
			c0,2.3779297,1.9345702,4.3115234,4.3125,4.3115234h0.626709l0.574585-1.1992188H6.2881007
			c-1.7167969,0-3.1132812-1.3964844-3.1132812-3.1123047c0-1.5957031,1.1855469-2.90625,2.8193359-3.1181641L6.3105617,5.651123
			l0.1435547-0.2851562c0.6601562-1.3222656,2.0195317-2.1435547,3.5458989-2.1435547
			c1.9277344,0,3.6064453,1.3603516,3.9912109,3.2333984l0.0908203,0.4414062l0.4492188,0.0351562
			c1.265625,0.1015625,2.2949219,1.2216797,2.2949219,2.4960938c0,1.3984375-1.0957031,2.4941406-2.4941406,2.4941406h-1.8800659
			l-0.574585,1.1992188h2.4546509c2.0712891,0,3.6933594-1.6220703,3.6933594-3.6933594
			C18.0254059,7.6921387,16.7324371,6.1501465,15.0634918,5.7995605z"/>
		<polygon points="11.5207062,11.0130615 9.3169098,11.0130615 7.66011,14.4268188 9.3298492,14.4268188 8.3914948,18.2077637 
			11.5680695,13.8518677 9.8581696,13.8518677 		"/>
	</g>
</g>
</svg>
