<svg xmlns="http://www.w3.org/2000/svg" width="146" height="20" viewBox="0 0 146 20">
    <g fill="none" fill-rule="evenodd">
        <path fill="#FFF" d="M6.165 1.442v10.684c0 2.186 1.032 4.004 3.267 4.004 2.21 0 3.267-1.818 3.267-4.004V1.442H16.8v10.733c0 5.134-2.85 7.713-7.37 7.713-4.543 0-7.392-2.579-7.392-7.713V4.93h-2.04V1.442h6.166zm117.219-.147c5.447 0 9.286 4.08 9.286 9.214 0 5.183-3.84 9.237-9.286 9.237-5.422 0-9.261-4.054-9.261-9.237 0-5.135 3.839-9.214 9.26-9.214zm-47.23.16V12.03c0 2.164 1.02 3.962 3.231 3.962h.557c2.188 0 3.234-1.798 3.234-3.962V1.455h4.06v10.623c0 5.08-2.82 7.633-7.294 7.633h-.557c-4.497 0-7.316-2.553-7.316-7.633V1.455h4.084zM46.052 1c2.627 0 4.817.826 6.642 2.287l-1.922 2.968c-1.63-1.095-3.26-1.775-4.794-1.775-1.313 0-2.02.68-2.02 1.677 0 1.194.512 1.704 3.602 2.483 3.65.9 5.693 2.311 5.693 5.523 0 3.553-2.724 5.548-6.593 5.548-2.75 0-5.426-.925-7.543-2.847l2.166-2.87c1.654 1.313 3.503 2.238 5.45 2.238 1.58 0 2.31-.609 2.31-1.728 0-.997-.315-1.728-3.283-2.458-3.65-.899-5.986-2.092-5.986-5.596 0-3.285 2.603-5.45 6.278-5.45zm-27.761.517c-.048-.072-.03-.131.037-.15l.046-.005h5.523c.05 0 .099.019.135.052l.032.037 3.02 4.535 3.003-4.508a.197.197 0 0 1 .166-.089h5.524c.103 0 .14.07.083.155l-5.92 8.873 5.919 8.89c.057.086.02.155-.083.155h-5.5a.201.201 0 0 1-.167-.089l-5.974-8.956.047-.07-5.892-8.83zm121.341-.128c.068 0 .13.033.167.09l5.952 8.938-5.975 8.956a.2.2 0 0 1-.166.09h-5.5c-.104 0-.14-.07-.084-.156l5.92-8.89-5.92-8.873c-.058-.085-.02-.155.083-.155h5.523zM24.163 10.46l2.904 4.352-3.026 4.533a.202.202 0 0 1-.117.083l-.049.006h-5.5c-.085 0-.125-.048-.103-.114l.02-.042 5.871-8.818zm87.857-9.062v17.953h-4.15V1.398h4.15zm-42.043.04v3.675H64.26v14.233h-4.21V5.113h-5.717V1.438h15.645zm26.245.017c5.664 0 9.529 3.598 9.529 8.922 0 5.372-3.865 8.97-9.53 8.97h-6.367V1.454h6.368zm27.162 3.391c-3.095 0-5.182 2.424-5.182 5.663 0 3.311 2.087 5.686 5.182 5.686 3.12 0 5.207-2.375 5.207-5.686 0-3.239-2.087-5.663-5.207-5.663zm-27.162.158h-2.333v10.793h2.333c3.233 0 5.42-2.236 5.42-5.42 0-3.209-2.187-5.373-5.42-5.373z"/>
        <path fill="#FF6238" d="M35.777 19.462h-5.5a.201.201 0 0 1-.167-.089l-5.974-8.956 5.952-8.939a.197.197 0 0 1 .166-.089h5.524c.103 0 .14.07.083.155l-5.92 8.873 5.919 8.89c.057.086.02.155-.083.155"/>
        <path fill="#FFAE00" d="M134.027 19.307l5.92-8.89-5.92-8.873c-.058-.085-.02-.155.083-.155h5.523c.068 0 .13.033.167.09l5.952 8.938-5.975 8.956a.2.2 0 0 1-.166.09h-5.5c-.104 0-.14-.07-.084-.156"/>
    </g>
</svg>
