<?xml version="1.0" encoding="utf-8"?>
<!-- Generator: Adobe Illustrator 19.0.1, SVG Export Plug-In . SVG Version: 6.00 Build 0)  -->
<svg version="1.1" id="Layer_1" xmlns="http://www.w3.org/2000/svg" xmlns:xlink="http://www.w3.org/1999/xlink" x="0px" y="0px"
	 viewBox="0 0 20 20" style="enable-background:new 0 0 20 20;" xml:space="preserve">
<style type="text/css">
	.st0{fill:none;}
</style>
<g>
	<g>
		<path d="M4.7085114,16.1027412c-1.7491226-1.7491226-1.6983683-4.6462584,0.1132474-6.4578743l6.0401015-6.0401001
			c1.2857742-1.2857742,3.3442554-1.3196104,4.5885983-0.075268c1.2443409,1.2443421,1.209816,3.3021338-0.0759592,4.5879068
			l-5.7221098,5.7221098c-0.7599325,0.7599325-1.9797611,0.7768507-2.7186327,0.0379791
			c-0.7388711-0.7388706-0.7212625-1.9580088,0.0386701-2.7179413l5.0864739-5.086473l0.8479757,0.8479757l-5.0864739,5.086473
			c-0.2920961,0.2920961-0.3086686,0.7506104-0.0379796,1.0212994c0.2713804,0.2713804,0.7298946,0.2548075,1.0219908-0.0372887
			l5.7221098-5.7221093c0.8179379-0.8179379,0.851428-2.1151056,0.0752687-2.8912659
			c-0.7768517-0.7768507-2.0740194-0.7433598-2.8919563,0.0745778l-6.0401015,6.0401001
			c-1.3437791,1.3437796-1.3941879,3.4796009-0.1125569,4.7612324s3.4174528,1.2312212,4.7612324-0.1125574l5.4044638-5.4044638
			l0.8479767,0.8479757l-5.4044647,5.4044638C9.3547697,17.8011093,6.457634,17.8518639,4.7085114,16.1027412z"/>
	</g>
	<rect x="-0.0000004" class="st0" width="20" height="20"/>
</g>
</svg>
