<?xml version="1.0" encoding="utf-8"?>
<!-- Generator: Adobe Illustrator 19.0.1, SVG Export Plug-In . SVG Version: 6.00 Build 0)  -->
<svg version="1.1" id="Layer_1" xmlns="http://www.w3.org/2000/svg" xmlns:xlink="http://www.w3.org/1999/xlink" x="0px" y="0px"
	 viewBox="0 0 20 20" style="enable-background:new 0 0 20 20;" xml:space="preserve">
<style type="text/css">
	.st0{fill:none;}
</style>
<g>
	<rect x="51.0768585" y="220.9990234" class="st0" width="20" height="20"/>
	<path d="M68.5768585,223.848999h-15c-0.5523071,0-1,0.4476929-1,1v10c0,0.5522461,0.4476929,1,1,1h3.0684204v3.25l4.2330933-3.25
		h7.6984863c0.5522461,0,1-0.4477539,1-1v-10C69.5768585,224.2966919,69.1291046,223.848999,68.5768585,223.848999z
		 M60.4768829,226.4990234h1.1999512v4.5h-1.1999512V226.4990234z M61.0768585,233.098999
		c-0.3865967,0-0.7000122-0.3134155-0.7000122-0.7000122s0.3134155-0.6999512,0.7000122-0.6999512
		s0.7000122,0.3133545,0.7000122,0.6999512S61.4634552,233.098999,61.0768585,233.098999z"/>
</g>
<g>
	<rect x="-0.0000004" class="st0" width="20" height="20"/>
	<path d="M17.5,2.8499777h-15c-0.552307,0-0.9999999,0.4476929-0.9999999,1v10c0,0.5522461,0.4476929,1,0.9999999,1h3.0684204v3.25
		l4.2330937-3.25H17.5c0.5522461,0,1-0.4477539,1-1v-10C18.5,3.2976706,18.0522461,2.8499777,17.5,2.8499777z M9.4000244,5.5
		h1.1999512V10H9.4000244V5.5z M10,12.0999775c-0.3865967,0-0.7000122-0.3134155-0.7000122-0.7000122
		S9.6134033,10.7000141,10,10.7000141s0.7000122,0.3133545,0.7000122,0.6999512S10.3865967,12.0999775,10,12.0999775z"/>
</g>
</svg>
