<?xml version="1.0" encoding="utf-8"?>
<!-- Generator: Adobe Illustrator 19.0.1, SVG Export Plug-In . SVG Version: 6.00 Build 0)  -->
<svg version="1.1" id="Layer_1" xmlns="http://www.w3.org/2000/svg" xmlns:xlink="http://www.w3.org/1999/xlink" x="0px" y="0px"
	 viewBox="0 0 20 20" style="enable-background:new 0 0 20 20;" xml:space="preserve">
<style type="text/css">
	.st0{fill:none;}
</style>
<g>
	<rect x="-0.0000004" class="st0" width="20" height="20"/>
	<path d="M16,9.7832031c0-0.331543-0.2685547-0.6000977-0.5996094-0.6000977s-0.5996094,0.2685547-0.5996094,0.6000977
		c0,2.6464844-2.1542969,4.7998047-4.8007812,4.7998047s-4.8007817-2.1533203-4.8007817-4.7998047
		c0-0.331543-0.2685547-0.6000977-0.5996094-0.6000977S3.9999995,9.4516602,3.9999995,9.7832031
		c0,3.1062622,2.3723145,5.668335,5.4003911,5.9701538v2.0298462c0,0.331543,0.2685547,0.6000977,0.5996094,0.6000977
		s0.5996094-0.2685547,0.5996094-0.6000977v-2.0298462C13.6276855,15.4515381,16,12.8894653,16,9.7832031z"/>
	<path d="M9.9653931,1.2913918c-1.9329834,0-3.5000005,1.5669861-3.5000005,3.5v4.9999995c0,1.9329834,1.5670171,3.5,3.5000005,3.5
		s3.5-1.5670166,3.5-3.5V4.7913918C13.4653931,2.8583779,11.8983765,1.2913918,9.9653931,1.2913918L9.9653931,1.2913918z"/>
</g>
</svg>
