<?xml version="1.0" encoding="utf-8"?>
<!-- Generator: Adobe Illustrator 19.0.1, SVG Export Plug-In . SVG Version: 6.00 Build 0)  -->
<svg version="1.1" id="Layer_1" xmlns="http://www.w3.org/2000/svg" xmlns:xlink="http://www.w3.org/1999/xlink" x="0px" y="0px"
	 viewBox="0 0 20 20" style="enable-background:new 0 0 20 20;" xml:space="preserve">
<style type="text/css">
	.st0{fill:none;}
</style>
<g>
	<rect x="-0.0000004" class="st0" width="20" height="20"/>
	<g>
		<path d="M13.4603271,9.979166c0.0032959-0.0621948,0.0050659-0.1248169,0.0050659-0.1878052V4.7913613
			c0-1.9329834-1.5670166-3.5-3.5-3.5c-1.4041138,0-2.6146855,0.8271484-3.1721807,2.0204468L13.4603271,9.979166z"/>
		<path d="M15.5480347,12.0669346C15.8391113,11.3626499,16,10.5914707,16,9.7831821
			c0-0.331543-0.2685547-0.6000977-0.5996094-0.6000977s-0.5996094,0.2685547-0.5996094,0.6000977
			c0,0.4664917-0.0673828,0.9174805-0.1922607,1.3442383L15.5480347,12.0669346z"/>
		<path d="M3.7164302,1.6490884c-0.2355957-0.2111206-0.5964355-0.2041016-0.822876,0.0223389
			c-0.234375,0.234375-0.234375,0.6142578,0,0.8486328l3.5718384,3.5718384v3.6994624c0,1.9329834,1.5670171,3.5,3.5000005,3.5
			c1.0172119,0,1.9329224-0.4341431,2.5724487-1.1270142l0.9321289,0.9321289
			C12.5951538,14.0118809,11.362854,14.5829868,10,14.5829868c-2.6464849,0-4.8007817-2.1533203-4.8007817-4.7998047
			c0-0.331543-0.2685547-0.6000977-0.5996094-0.6000977S3.9999995,9.4516392,3.9999995,9.7831821
			c0,3.1062622,2.3723145,5.668335,5.4003911,5.9701538v2.0298462c0,0.331543,0.2685547,0.6000977,0.5996094,0.6000977
			s0.5996094-0.2685547,0.5996094-0.6000977V15.753336c1.4541626-0.1449585,2.7568359-0.8114014,3.7184448-1.8087769
			l2.5755005,2.5755005c0.1171875,0.1171875,0.2705078,0.1757812,0.4238281,0.1757812s0.3066406-0.0585938,0.4238281-0.1757812
			c0.2248535-0.2248535,0.2333984-0.583252,0.0267944-0.8189697L3.7164302,1.6490884z"/>
	</g>
</g>
</svg>
