<?xml version="1.0" encoding="utf-8"?>
<!-- Generator: Adobe Illustrator 19.0.1, SVG Export Plug-In . SVG Version: 6.00 Build 0)  -->
<svg version="1.1" id="Layer_1" xmlns="http://www.w3.org/2000/svg" xmlns:xlink="http://www.w3.org/1999/xlink" x="0px" y="0px"
	 viewBox="0 0 20 20" style="enable-background:new 0 0 20 20;" xml:space="preserve">
<style type="text/css">
	.st0{fill:none;}
</style>
<g>
	<rect x="-0.0000004" class="st0" width="20" height="20"/>
	<g>
		<path d="M14.0945225,17.4058552c-0.0507812,0-0.1025391-0.0009766-0.1542969-0.0029297
			c-1.1621094,0.0615234-4.1513672-1.5571289-6.8818355-4.2885742C4.4802651,10.5342731,2.825968,7.508882,2.7722571,6.1856399
			C2.7361243,5.3233352,2.9343665,4.7056594,3.395304,4.2437453l1.5634768-1.4838867
			c0.2382812-0.2275391,0.6123047-0.2197266,0.84375,0.0170898l2.702148,2.7832031
			c0.2275391,0.2348633,0.2255859,0.6088867-0.0048828,0.8413086L7.0339761,7.875093
			C6.9617105,7.9371047,6.875773,8.0137644,6.8621011,8.2061472c-0.0302734,0.4384766,0.2998047,1.3300791,2.0419917,3.0756845
			c1.90625,1.9018555,2.7685547,2.0454102,3.0654297,2.034668c0.15625-0.0117188,0.234375-0.0698242,0.2675781-0.1040039
			l1.5097656-1.394043c0.2392578-0.2216797,0.609375-0.2119141,0.8378906,0.0229492l2.6992188,2.7797852
			c0.2304688,0.2373047,0.2255859,0.6162109-0.0117188,0.847168l-1.3017578,1.2714844
			c-0.0136719,0.0141602-0.0292969,0.0273438-0.0449219,0.0395508
			C15.3806553,17.2144489,14.8259678,17.4058552,14.0945225,17.4058552z"/>
	</g>
</g>
</svg>
