<?xml version="1.0" encoding="utf-8"?>
<!-- Generator: Adobe Illustrator 19.0.1, SVG Export Plug-In . SVG Version: 6.00 Build 0)  -->
<svg version="1.1" id="Layer_1" xmlns="http://www.w3.org/2000/svg" xmlns:xlink="http://www.w3.org/1999/xlink" x="0px" y="0px"
	 viewBox="0 0 20 20" style="enable-background:new 0 0 20 20;" xml:space="preserve">
<style type="text/css">
	.st0{fill:none;}
</style>
<g>
	<rect x="-0.0000004" class="st0" width="20" height="20"/>
	<g>
		<circle cx="13.3837614" cy="6.6357422" r="1.1999067"/>
		<path d="M17.4138508,2.6055908c-0.0912476-0.0912476-0.2172852-0.1477051-0.3566284-0.1477051H10.917758
			c-0.2672729,0-0.5238037,0.1060791-0.7129517,0.295105l-8.3408813,8.3319092
			c-0.3939209,0.3939209-0.3939209,1.0326538,0,1.4265747l5.6444702,5.6444702c0.3939819,0.3939819,1.0326543,0.3939819,1.4266362,0
			l8.331542-8.3413086c0.1889648-0.1890869,0.295105-0.4455566,0.2950439-0.7128906V2.9622803
			C17.5616169,2.822998,17.5051594,2.6968994,17.4138508,2.6055908z M13.3837614,8.6357422c-1.1028442,0-2-0.8970947-2-1.999939
			c0-1.1029053,0.8971558-2,2-2s2,0.8970947,2,2C15.3837614,7.7386475,14.4866056,8.6357422,13.3837614,8.6357422z"/>
	</g>
</g>
</svg>
