<?xml version="1.0" encoding="utf-8"?>
<!-- Generator: Adobe Illustrator 19.0.1, SVG Export Plug-In . SVG Version: 6.00 Build 0)  -->
<svg version="1.1" id="Layer_1" xmlns="http://www.w3.org/2000/svg" xmlns:xlink="http://www.w3.org/1999/xlink" x="0px" y="0px"
	 viewBox="0 0 20 20" style="enable-background:new 0 0 20 20;" xml:space="preserve">
<style type="text/css">
	.st0{fill:none;}
</style>
<g>
	<rect x="-0.0000004" y="0" class="st0" width="20" height="20"/>
	<path d="M18.8389587,7.5548077L16.365387,5.0812359l-0.3534546,0.3533936c-0.3912354,0.3912354-1.0255127,0.3912964-1.4168091,0
		c-0.3911743-0.3912354-0.3911743-1.0255127,0.000061-1.416748l0.3534546-0.3534546L12.4750061,1.190855
		c-0.1952515-0.1952515-0.4511719-0.2928467-0.7070923-0.2929077c-0.2559204,0-0.5117798,0.0976562-0.7070312,0.2929077
		L1.161163,11.0905743c-0.3906861,0.390564-0.3906251,1.0236206-0.000061,1.4141235l6.3639526,6.3640747
		c0.1952515,0.1952515,0.4511719,0.2928467,0.7071538,0.2928467c0.2559204,0,0.5117188-0.0975952,0.7070312-0.2929077
		l9.8997192-9.8997192C19.2294617,8.5784893,19.2294617,7.9453106,18.8389587,7.5548077z M13.7536716,10.8839016
		L9.1572361,6.2880154l0.6360884-0.6361547l4.5964355,4.5958867L13.7536716,10.8839016z"/>
</g>
</svg>
