<?xml version="1.0" encoding="utf-8"?>
<!-- Generator: Adobe Illustrator 19.0.1, SVG Export Plug-In . SVG Version: 6.00 Build 0)  -->
<svg version="1.1" id="Layer_1" xmlns="http://www.w3.org/2000/svg" xmlns:xlink="http://www.w3.org/1999/xlink" x="0px" y="0px"
	 viewBox="0 0 20 20" style="enable-background:new 0 0 20 20;" xml:space="preserve">
<style type="text/css">
	.st0{fill:none;}
</style>
<g>
	<g>
		<path d="M7.3195829,8.0732117h1.4316406v5.027832H7.8010283V8.9721375H6.7648954L7.3195829,8.0732117z"/>
	</g>
	<g>
		<polygon points="10.4815674,5.2239075 10.4815674,5.2090149 10.4743652,5.2182922 		"/>
		<path d="M10.4815674,2.2877502V0.5364075L7.4910889,2.8727112l2.9904785,2.3363037V3.4880066
			c3.5799561,0.2490234,6.4188232,3.2333374,6.4188232,6.8754883c0,3.8046875-3.0957031,6.8999023-6.9003906,6.8999023
			s-6.9003906-3.0952148-6.9003906-6.8999023c0-1.4893799,0.4819946-2.9094849,1.3448486-4.081604L3.4984741,5.5428772
			c-1.026001,1.3813477-1.5980835,3.0596924-1.5980835,4.8206177c0,4.4663086,3.6328125,8.1000977,8.0996094,8.1000977
			s8.0996094-3.6337891,8.0996094-8.1000977C18.0996094,6.0597229,14.7237549,2.539093,10.4815674,2.2877502z"/>
	</g>
	<g>
		<path d="M11.2429228,7.9467468c0,0-1.75-0.0948782-1.75,2.6899414c0,2.7277756,1.7773438,2.5908203,1.7773438,2.5908203
			s1.7529297,0.1315022,1.7529297-2.6386719C13.0231962,7.8355107,11.2429228,7.9467468,11.2429228,7.9467468z
			 M11.2644072,12.3388367c0,0-0.8144531,0.082324-0.8144531-1.741394c0-1.8513451,0.8144531-1.7415161,0.8144531-1.7415161
			s0.8017578-0.0825663,0.8017578,1.7431641C12.066165,12.3775396,11.2644072,12.3388367,11.2644072,12.3388367z"/>
	</g>
	<rect class="st0" width="20" height="20"/>
</g>
</svg>
