<?xml version="1.0" encoding="utf-8"?>
<!-- Generator: Adobe Illustrator 19.0.1, SVG Export Plug-In . SVG Version: 6.00 Build 0)  -->
<svg version="1.1" id="Layer_1" xmlns="http://www.w3.org/2000/svg" xmlns:xlink="http://www.w3.org/1999/xlink" x="0px" y="0px"
	 viewBox="0 0 20 20" style="enable-background:new 0 0 20 20;" xml:space="preserve">
<style type="text/css">
	.st0{fill:none;}
</style>
<g>
	<rect x="-0.0000004" class="st0" width="20" height="20"/>
	<g>
		<circle cx="9.9995975" cy="10.1958809" r="2.0999999"/>
		<path d="M17.5000248,5.499958h-2.5578613l-1.5326538-1.6750488c-0.1894531-0.2070312-0.4571533-0.3249512-0.737793-0.3249512
			h-5.344605c-0.2806396,0-0.5483398,0.1179199-0.7377319,0.3249512L5.0566649,5.499958H2.5000243
			c-0.552307,0-0.9999999,0.4477539-0.9999999,1v8.5521851c0,0.5523071,0.4476929,1,0.9999999,1h15c0.5522461,0,1-0.4476929,1-1
			V6.499958C18.5000248,5.9477119,18.0522709,5.499958,17.5000248,5.499958z M9.9995975,13.1958809
			c-1.6567993,0-3.0000005-1.3431396-3.0000005-3s1.3432012-3,3.0000005-3c1.6568604,0,3,1.3431396,3,3
			S11.6564579,13.1958809,9.9995975,13.1958809z"/>
	</g>
</g>
</svg>
