<?xml version="1.0" encoding="utf-8"?>
<!-- Generator: Adobe Illustrator 19.0.1, SVG Export Plug-In . SVG Version: 6.00 Build 0)  -->
<svg version="1.1" id="Layer_1" xmlns="http://www.w3.org/2000/svg" xmlns:xlink="http://www.w3.org/1999/xlink" x="0px" y="0px"
	 viewBox="0 0 20 20" style="enable-background:new 0 0 20 20;" xml:space="preserve">
<style type="text/css">
	.st0{fill:none;}
</style>
<g>
	<rect x="-0.0000004" class="st0" width="20" height="20"/>
	<g>
		<path d="M3.7993941,4.7686477c0.1277213,0,0.25453,0.0437899,0.3567071,0.1286335l5.654398,4.6709447
			c0.1295452,0.1062822,0.2034407,0.2645655,0.2034407,0.4319706c0,0.1674061-0.0738955,0.3256893-0.2034407,0.4319715
			l-5.654398,4.6709452c-0.1669497,0.1382122-0.3986726,0.1669502-0.5957279,0.075264
			c-0.1961434-0.092598-0.3211277-0.2901096-0.3211277-0.5072355V5.3292518c0-0.2171259,0.1249843-0.4146376,0.3211277-0.5072355
			C3.6370058,4.786437,3.7182,4.7686477,3.7993941,4.7686477z"/>
		<path d="M12.0247126,4.7686472c0.1277208,0,0.25453,0.0437899,0.3567066,0.1286335l5.6543989,4.6709452
			c0.1295452,0.1062822,0.2034416,0.2645655,0.2034416,0.4319706c0,0.1674061-0.0738964,0.3256893-0.2034416,0.4319715
			l-5.6543989,4.6709452c-0.1669493,0.1382122-0.3986721,0.1669502-0.5957279,0.075264
			c-0.1961432-0.092598-0.3211269-0.2901096-0.3211269-0.5072355V5.3292518c0-0.2171259,0.1249838-0.4146376,0.3211269-0.5072355
			C11.8623247,4.786437,11.9435186,4.7686472,12.0247126,4.7686472z"/>
	</g>
</g>
</svg>
