<?xml version="1.0" encoding="utf-8"?>
<!-- Generator: Adobe Illustrator 19.0.1, SVG Export Plug-In . SVG Version: 6.00 Build 0)  -->
<svg version="1.1" id="Layer_1" xmlns="http://www.w3.org/2000/svg" xmlns:xlink="http://www.w3.org/1999/xlink" x="0px" y="0px"
	 viewBox="0 0 20 20" style="enable-background:new 0 0 20 20;" xml:space="preserve">
<style type="text/css">
	.st0{fill:none;}
</style>
<g>
	<rect x="-0.0000004" class="st0" width="20" height="20"/>
	<path d="M16.5,2.5023804h-13c-0.5523071,0-1,0.4476929-1,1v13c0,0.5522461,0.4476929,1,1,1h13c0.5523071,0,1-0.4477539,1-1v-13
		C17.5,2.9500732,17.0523071,2.5023804,16.5,2.5023804z M12.5090942,5.1554565c1.157959,0,2.0999756,0.9420776,2.0999756,2.1000366
		c0,1.1578979-0.9420166,2.0999756-2.0999756,2.0999756s-2.0999756-0.9420776-2.0999756-2.0999756
		C10.4091187,6.0975342,11.3511353,5.1554565,12.5090942,5.1554565z M16.1997223,16.7016335H3.8008857
		c-0.2760921,0-0.499929-0.2237778-0.5-0.4998703l-0.000879-3.4141235l3.4805715-3.4814262l4.4150395,4.4140625l2.2070312-2.2070312
		l3.2963009,3.2963009l0.0007725,1.3918114C16.6998749,16.4776077,16.4759731,16.7016335,16.1997223,16.7016335z"/>
</g>
</svg>
