<?xml version="1.0" encoding="utf-8"?>
<!-- Generator: Adobe Illustrator 19.0.1, SVG Export Plug-In . SVG Version: 6.00 Build 0)  -->
<svg version="1.1" id="Layer_1" xmlns="http://www.w3.org/2000/svg" xmlns:xlink="http://www.w3.org/1999/xlink" x="0px" y="0px"
	 viewBox="0 0 20 20" style="enable-background:new 0 0 20 20;" xml:space="preserve">
<style type="text/css">
	.st0{fill:none;}
</style>
<g>
	<rect x="-0.0000004" class="st0" width="20" height="20"/>
	<g>
		<path d="M17.5,3.7518921h-15c-0.552246,0-0.9999999,0.4476929-0.9999999,1v10.4962158c0,0.5522461,0.4477539,1,0.9999999,1h15
			c0.5522461,0,1-0.4477539,1-1V4.7518921C18.5,4.199585,18.0522461,3.7518921,17.5,3.7518921z M13.1356487,10.1773348
			l-4.3383665,2.7114649c-0.0558805,0.0349455-0.1159582,0.0508108-0.1745644,0.0508108
			c-0.1723833,0-0.3315725-0.1374378-0.3315725-0.331356V7.1853242c0-0.1939721,0.1591892-0.3313551,0.3315725-0.3313551
			c0.0586061,0,0.1186838,0.0158644,0.1745644,0.0508099l4.3383665,2.7114654
			C13.3429775,9.7458315,13.3429775,10.0477476,13.1356487,10.1773348z"/>
	</g>
</g>
</svg>
