<?xml version="1.0" encoding="utf-8"?>
<!-- Generator: Adobe Illustrator 19.0.1, SVG Export Plug-In . SVG Version: 6.00 Build 0)  -->
<svg version="1.1" id="Layer_1" xmlns="http://www.w3.org/2000/svg" xmlns:xlink="http://www.w3.org/1999/xlink" x="0px" y="0px"
	 viewBox="0 0 20 20" style="enable-background:new 0 0 20 20;" xml:space="preserve">
<style type="text/css">
	.st0{fill:none;}
</style>
<g>
	<rect x="-0.0000004" class="st0" width="20" height="20"/>
	<path d="M15.7919979,5.6771631l-4.1015625-3.5341797c-0.1777344-0.152832-0.4287109-0.1870117-0.6416016-0.0908203
		c-0.2128906,0.0976562-0.3496094,0.3110352-0.3496094,0.5454102v10.1584301
		c-0.6161499-0.4638062-1.4145508-0.7543335-2.2990723-0.7543335c-1.9329839,0-3.5000005,1.3431396-3.5000005,3
		c0,1.6567984,1.5670166,2.999999,3.5000005,2.999999c1.9330444,0,3.5-1.3432007,3.5-2.999999
		c0-0.0050049-0.001709-0.0095825-0.001709-0.0145264V3.9066553l2.9023438,2.5v3.0708008
		c0,0.331543,0.2685547,0.6000977,0.5996094,0.6000977s0.5996094-0.2685547,0.5996094-0.6000977V6.131753
		C16.0000057,5.9569483,15.9248104,5.7914209,15.7919979,5.6771631z"/>
</g>
</svg>
