<?xml version="1.0" encoding="utf-8"?>
<!-- Generator: Adobe Illustrator 19.0.1, SVG Export Plug-In . SVG Version: 6.00 Build 0)  -->
<svg version="1.1" id="Layer_1" xmlns="http://www.w3.org/2000/svg" xmlns:xlink="http://www.w3.org/1999/xlink" x="0px" y="0px"
	 viewBox="0 0 20 20" style="enable-background:new 0 0 20 20;" xml:space="preserve">
<style type="text/css">
	.st0{fill:none;}
</style>
<g>
	<rect class="st0" width="20" height="20"/>
	<g>
		<path d="M9.9999943,1.5c-4.694397,0-8.5,3.805542-8.5,8.5c0,4.694397,3.8056028,8.5,8.5,8.5s8.5-3.805603,8.5-8.5
			C18.4999943,5.305542,14.6943913,1.5,9.9999943,1.5z M13.0945053,10.2805452l-4.3383112,2.7114649
			c-0.0559349,0.0349455-0.1160126,0.0508108-0.1746187,0.0508108c-0.1723833,0-0.3315735-0.1374378-0.3315735-0.331356V7.2885346
			c0-0.1939721,0.1591902-0.3313551,0.3315735-0.3313551c0.0586061,0,0.1186838,0.0158644,0.1746187,0.0508099l4.3383112,2.7114654
			C13.3018341,9.8490419,13.3018341,10.1509581,13.0945053,10.2805452z"/>
	</g>
</g>
</svg>
