<?xml version="1.0" encoding="utf-8"?>
<!-- Generator: Adobe Illustrator 19.0.1, SVG Export Plug-In . SVG Version: 6.00 Build 0)  -->
<svg version="1.1" id="Layer_1" xmlns="http://www.w3.org/2000/svg" xmlns:xlink="http://www.w3.org/1999/xlink" x="0px" y="0px"
	 viewBox="0 0 20 20" style="enable-background:new 0 0 20 20;" xml:space="preserve">
<style type="text/css">
	.st0{fill:none;}
</style>
<g>
	<rect x="-0.0000004" y="0" class="st0" width="20" height="20"/>
	<g>
		<path d="M16.2006054,15.2313528c-0.1277218,0-0.2545309-0.0437908-0.3567076-0.1286335l-5.654397-4.6709452
			c-0.1295462-0.1062822-0.2034416-0.2645655-0.2034416-0.4319706c0-0.1674061,0.0738955-0.3256893,0.2034416-0.4319715
			l5.654397-4.6709452c0.1669493-0.1382127,0.3986731-0.1669497,0.5957289-0.0752645
			c0.1961422,0.092598,0.3211269,0.2901096,0.3211269,0.5072355v9.3418903c0,0.2171259-0.1249847,0.4146376-0.3211269,0.5072346
			C16.3629932,15.213563,16.2817993,15.2313528,16.2006054,15.2313528z"/>
		<path d="M7.9752865,15.2313528c-0.1277213,0-0.25453-0.0437899-0.3567071-0.1286335l-5.654398-4.6709452
			C1.8346359,10.3254919,1.76074,10.1672087,1.76074,9.9998035c0-0.1674061,0.0738958-0.3256893,0.2034415-0.4319715
			l5.654398-4.6709452C7.7855296,4.7586741,8.017252,4.7299371,8.2143078,4.8216224
			c0.1961432,0.092598,0.3211269,0.2901096,0.3211269,0.5072355v9.3418903c0,0.2171259-0.1249838,0.4146376-0.3211269,0.5072346
			C8.1376753,15.213563,8.0564804,15.2313528,7.9752865,15.2313528z"/>
	</g>
</g>
</svg>
