<?xml version="1.0" encoding="utf-8"?>
<!-- Generator: Adobe Illustrator 19.0.1, SVG Export Plug-In . SVG Version: 6.00 Build 0)  -->
<svg version="1.1" id="Layer_1" xmlns="http://www.w3.org/2000/svg" xmlns:xlink="http://www.w3.org/1999/xlink" x="0px" y="0px"
	 viewBox="0 0 20 20" style="enable-background:new 0 0 20 20;" xml:space="preserve">
<style type="text/css">
	.st0{fill:none;}
</style>
<g>
	<g>
		<rect x="-0.0000004" class="st0" width="20" height="20"/>
	</g>
	<path d="M18.6952572,6.7232666c-0.1865234-0.1064453-0.4179688-0.1025391-0.6044922,0.0083008l-2.2863846,1.1785278V6
		c0-0.5523071-0.447753-1-0.999999-1H2.5000062c-0.552307,0-0.9999999,0.4476929-0.9999999,1v8c0,0.5523071,0.4476929,1,0.9999999,1
		h12.3043747c0.5522461,0,0.999999-0.4476929,0.999999-1v-1.9311523l2.2844315,1.1895752
		c0.0957031,0.0581055,0.203125,0.0874023,0.3115234,0.0874023c0.1015625,0,0.203125-0.0258789,0.2939453-0.0771484
		c0.1894531-0.1064453,0.3056641-0.3061523,0.3056641-0.5229492v-5.5
		C18.9999447,7.0294189,18.8837337,6.8297119,18.6952572,6.7232666z"/>
</g>
</svg>
