<?xml version="1.0" encoding="UTF-8"?>
<svg height="50px" viewBox="0 0 131 50" version="1.1" xmlns="http://www.w3.org/2000/svg" xmlns:xlink="http://www.w3.org/1999/xlink">
    <title>Sktelecom Footer Logo</title>
    <g id="Page-1" stroke="none" stroke-width="1" fill="none" fill-rule="evenodd">
        <g id="sktelecom-logo" fill="#FFFFFF">
            <path d="M126.290763,36.9575153 C123.752252,36.9575153 122.457123,38.6501838 122.254444,38.9066839 C121.593512,37.6764709 120.426889,36.9575153 118.879346,36.9575153 C116.647009,36.9575153 115.377178,38.2661598 115.1722,38.4965161 C115.073304,38.137474 114.61505,37.188743 113.16784,37.188743 C112.762771,37.188743 112.153298,37.3174288 112.102413,37.3174288 C112.153298,37.5989109 112.432448,38.9322468 112.432448,40.7782925 C112.432448,41.9326883 112.432448,48.8820119 112.432448,48.8820119 L115.376891,48.8820119 L115.376891,40.6246248 C115.426051,40.5732086 116.520227,39.4446661 117.837493,39.4446661 C119.184657,39.4446661 119.818854,40.4451037 119.818854,41.8040025 L119.818854,48.8817214 L122.761859,48.8817214 L122.761859,40.6243343 C122.838618,40.5482267 123.904045,39.4443756 125.24891,39.4443756 C126.593775,39.4443756 127.202385,40.4448133 127.202385,41.803712 L127.202385,48.8814309 L130.172414,48.8814309 L130.172414,41.3424185 C130.172701,38.6763276 128.675756,36.9575153 126.290763,36.9575153 M94.0847345,46.7280498 C92.0795121,46.7280498 90.6596134,45.1379233 90.6596134,43.0609403 C90.6596134,40.7527296 92.282478,39.3688489 94.0847345,39.3688489 C95.0489662,39.3688489 95.4551855,39.6512024 96.0908194,39.6512024 C96.7747512,39.6512024 97.1553841,39.3162708 97.4857068,38.6498933 C97.6883852,38.2928846 97.7913056,38.0602044 97.7913056,38.0602044 C97.6377875,37.9826444 96.1670035,36.9572248 93.6284925,36.9572248 C89.922209,36.9572248 87.7154581,39.6509119 87.7154581,43.0609403 C87.7154581,46.8050289 90.2542566,49.1373501 93.6284925,49.1373501 C96.0911069,49.1373501 97.5618909,48.1383648 97.8404659,47.9332809 L96.8256364,45.9080047 C96.5979467,46.0610914 95.5302196,46.7280498 94.0847345,46.7280498 Z M61.8548445,36.9575153 C59.0377586,36.9575153 56.6772021,39.2660165 56.6772021,43.0612308 C56.6772021,46.9340052 58.9874483,49.1376405 62.4137194,49.1376405 C65.1537589,49.1376405 66.5742326,47.9335714 66.7524746,47.8298675 C66.7524746,47.8298675 66.4736121,47.3947178 66.398003,47.2669034 C66.0165076,46.6246364 65.585852,46.4207144 65.1028737,46.4207144 C64.1383545,46.4207144 64.0127226,46.8303013 62.6920069,46.8303013 C60.4337959,46.8303013 59.6466562,45.0615252 59.595771,43.8827284 L67.132245,43.8827284 C67.132245,43.5733596 67.132245,43.1637728 67.132245,42.9845422 C67.132245,39.3688489 65.0784373,36.9575153 61.8548445,36.9575153 Z M59.595771,41.7522958 C59.595771,40.4207028 60.5091175,39.1887469 61.8286832,39.1887469 C63.2750308,39.1887469 64.0624579,40.4703761 64.0871818,41.7522958 L59.595771,41.7522958 Z M72.1578068,45.6003788 L72.1578068,33.4452354 C72.1578068,32.0863366 71.2688967,31.0344828 69.8481355,31.0344828 C69.7719515,31.0344828 69.2395254,31.0344828 69.2395254,31.0344828 L69.2395254,46.779466 C69.2395254,48.2414878 70.126998,49.1373501 71.6768409,49.1373501 C73.579718,49.1373501 74.1380179,47.7790323 74.1380179,46.4721307 C74.0618338,46.5226754 73.6550396,46.6777956 73.2491078,46.6777956 C72.564601,46.6777956 72.1578068,46.2923191 72.1578068,45.6003788 Z M52.5146765,45.1893395 L52.5146765,39.4208461 L54.9767159,39.4208461 L55.8394647,37.1884526 L52.5146765,37.1884526 L52.5146765,33.7020261 C52.5146765,33.7020261 52.2616879,33.6755917 52.2361015,33.7020261 C50.9406847,33.7020261 49.5708087,34.2397177 49.5708087,37.1631802 L49.5708087,37.188743 L47.4137931,37.188743 L47.4137931,39.4211366 L49.5708087,39.4211366 L49.5708087,46.215921 C49.5708087,48.1386553 50.7127074,49.137931 52.3122856,49.137931 C53.606265,49.137931 55.2803023,48.7547785 55.2803023,46.1650858 C55.1796818,46.2162115 54.5446228,46.6249269 53.8604036,46.6249269 C52.8953094,46.6243459 52.5146765,46.0361095 52.5146765,45.1893395 Z M80.304041,36.9575153 C77.4866675,36.9575153 75.1008121,39.2660165 75.1008121,43.0612308 C75.1008121,46.9340052 77.4107709,49.1376405 80.8643533,49.1376405 C83.5785189,49.1376405 84.9989926,47.9335714 85.1769471,47.8298675 C85.1769471,47.8298675 84.9228085,47.3947178 84.8469119,47.2669034 C84.4418426,46.6246364 84.0103245,46.4207144 83.5282087,46.4207144 C82.563402,46.4207144 82.4366202,46.8303013 81.1170544,46.8303013 C78.8829923,46.8303013 78.0961401,45.0615252 78.0455424,43.8827284 L85.5837413,43.8827284 C85.5837413,43.5733596 85.5837413,43.1637728 85.5837413,42.9845422 C85.5840288,39.3688489 83.5029098,36.9575153 80.304041,36.9575153 Z M78.0196685,41.7522958 C78.0196685,40.4207028 78.9594638,39.1887469 80.2537307,39.1887469 C81.7006532,39.1887469 82.5119418,40.4703761 82.5363782,41.7522958 L78.0196685,41.7522958 Z M104.565364,49.1373501 C100.962001,49.1373501 98.8049851,46.7530317 98.8049851,43.0609403 C98.8049851,39.3944118 100.936702,36.9572248 104.565364,36.9572248 C108.193738,36.9572248 110.327755,39.3944118 110.327755,43.0609403 C110.327755,46.5226754 108.372555,49.1373501 104.565364,49.1373501 Z M104.565364,46.8564451 C106.367045,46.8564451 107.409474,45.2918815 107.409474,43.0612308 C107.409474,40.8305802 106.391482,39.2404536 104.565364,39.2404536 C102.789556,39.2404536 101.722692,40.8041458 101.722692,43.0612308 C101.722692,45.2395938 102.738383,46.8564451 104.565364,46.8564451 Z" id="Shape"></path>
            <path d="M9.28835407,36.9527691 C7.53066749,36.130182 6.07498111,35.4827939 6.07498111,34.1360231 C6.07498111,33.1122399 6.90306447,32.3894032 8.53420671,32.3894032 C9.11176074,32.3894032 9.61481001,32.4382893 10.1161531,32.5371919 C10.3675355,32.5883387 10.6419519,32.6380725 10.8944718,32.6380725 C12.3003936,32.6380725 13.1028837,31.7900534 13.62982,30.1934829 L13.8558936,29.5446818 C13.62982,29.4449315 11.3213101,28.4482759 8.3084175,28.4482759 C3.51338256,28.4482759 0.978514721,31.4905198 0.978514721,34.6845086 C0.978514721,36.2802314 1.48071088,37.4277841 2.25817652,38.3501215 C3.28873082,39.5216935 4.71996145,40.2959595 6.07441237,40.9441954 C8.05703505,41.9176796 9.83832427,42.6156494 9.83832427,44.037021 C9.83832427,45.3100387 8.53392234,46.0328755 6.77708888,46.0328755 C4.34203466,46.0328755 2.23400513,44.6618028 1.98290705,44.5126012 L0,48.2042114 C0.351196071,48.4028643 2.88691702,50 7.10326045,50 C11.5724082,50 14.9609526,47.4548123 14.9609526,43.5139675 C14.9609526,39.6222915 11.824075,38.176053 9.28835407,36.9527691 M26.785312,38.7751201 L34.9174205,28.8718616 L29.1194151,28.8718616 L22.6434733,37.4023521 L22.5413847,37.4023521 L22.5413847,28.8718616 L17.7727962,28.8718616 L17.7727962,49.824236 L18.0733745,49.824236 C20.1327769,49.824236 22.590865,48.8770316 22.590865,45.4592404 L22.590865,40.6446618 L22.6679291,40.6446618 L29.2692777,49.5758491 L35.3448276,49.5758491 L26.785312,38.7751201 L26.785312,38.7751201 Z" id="Shape"></path>
            <path d="M35.1576984,5.17241379 C33.4451474,5.51097029 30.9128198,7.09344983 30.9397595,9.87249568 C30.9397595,12.3912266 32.9857249,13.9487041 32.9857249,17.246615 C32.9857249,19.7394615 31.6297622,21.4272436 30.1724138,22.3629067 C30.7607411,22.3111378 31.400051,22.2849593 32.1158347,22.2849593 C33.6250348,22.2581924 34.5183885,22.4137931 34.5705298,22.4137931 L42.2413793,12.8577345 C40.1195194,9.61394559 37.6390434,7.12021668 35.1576984,5.17241379" id="Path"></path>
            <path d="M41.3669127,31.0344828 C42.3336409,29.5053494 42.4605005,27.0728773 42.5380579,24.6122401 C42.6398339,22.3068046 43.0973936,20.5717136 46.1261677,20.5464823 C46.8129397,20.5464823 47.4492561,20.6491678 48.5944528,20.6491678 C53.0495329,20.6256968 55.951159,19.0698652 57.7586207,18.0333288 C54.0672933,15.651906 48.6970938,13.2170869 42.0026525,12.9310345 C41.5707531,14.1758758 38.1850421,23.7581904 37.9310345,24.5353727 C37.98149,24.5588437 38.5679276,25.2333405 39.3051551,26.554169 C40.4004728,28.3670076 40.9854688,29.896141 41.3669127,31.0344828" id="Path"></path>
            <path d="M24.7132691,22.5624899 C24.6655943,22.1284014 22.8298386,4.61410297 22.5598664,1.9882001 C22.5113601,1.57952736 22.4137931,0.891570848 22.4137931,0.635392247 C22.4137931,0.229030023 22.6837653,0 22.9770206,0 C23.8332262,0 28.5796373,1.14601656 33.6206897,4.84313299 C32.1765877,5.25036166 29.5339642,6.83191073 29.5580788,10.0958052 C29.5580788,12.9516045 31.5407393,14.5571252 31.5645767,17.4389178 C31.5645767,22.1284014 26.3782827,23.2758621 25.3252801,23.2758621 C24.9352894,23.2758621 24.7626069,23.021994 24.7132691,22.5624899 Z" id="Path"></path>
            <path d="M42.2413793,31.9160125 C42.3192806,32.1256195 42.3957339,32.3116382 42.4736352,32.4430158 C42.6004782,32.6526228 42.7530952,32.7586207 42.9335134,32.7586207 C43.0612252,32.7586207 43.2141318,32.7060696 43.3931021,32.6278403 C43.7759478,32.4430158 59.8050788,24.7454822 62.2072765,23.6141419 C62.5660858,23.4284217 63.2304187,23.1381966 63.4620954,23.0059232 C63.6911657,22.8736499 63.7931034,22.6631471 63.7931034,22.4804128 C63.7931034,22.3472437 63.741845,22.2421416 63.6911657,22.1358452 C63.3850629,21.6351173 61.82501,19.9499009 59.2423941,18.1034483 C57.1978473,19.2625571 53.9755141,21.0564586 49.1971823,21.0812412 C48.0196856,21.0812412 47.7648412,21.0039076 46.9719277,21.0039076 C44.6209885,21.0286902 44.0577246,22.0570186 43.9543388,24.1650321 C43.9543388,24.5621507 43.930592,25.0882584 43.930592,25.6687085 C43.8535595,27.5653235 43.6233308,30.1749606 42.2413793,31.9160125" id="Path"></path>
        </g>
    </g>
</svg>