<svg width="92" height="37" viewBox="0 0 92 37" fill="none" xmlns="http://www.w3.org/2000/svg">
<path d="M89.2452 27.2679C87.4443 27.2679 86.5176 28.4541 86.3735 28.6343C85.9184 27.7758 85.0834 27.2679 83.9865 27.2679C82.4017 27.2679 81.4979 28.1887 81.3506 28.3394C81.2851 28.0937 80.9609 27.4187 79.936 27.4187C79.6413 27.4187 79.2058 27.5137 79.1731 27.5202C79.2157 27.7136 79.4089 28.6507 79.4089 29.9451V35.6434H81.4914V29.8336C81.5339 29.7976 82.3133 29.0079 83.2497 29.0079C84.1862 29.0079 84.6545 29.7091 84.6545 30.666V35.6434H86.7468V29.8336C86.7894 29.7943 87.5523 29.0079 88.5052 29.0079C89.458 29.0079 89.8968 29.7091 89.8968 30.666V35.6434H91.999V30.3383C91.999 28.4771 90.9413 27.2646 89.2419 27.2646L89.2452 27.2679Z" fill="#FF7A00"/>
<path d="M66.3954 34.1426C64.9776 34.1426 63.9691 33.022 63.9691 31.5572C63.9691 29.9254 65.1184 28.9555 66.3954 28.9555C67.0863 28.9555 67.3744 29.1652 67.8296 29.1652C68.3175 29.1652 68.5761 28.9293 68.8185 28.4574C68.9527 28.1985 69.0313 28.0478 69.0313 28.0478C68.9265 27.9823 67.8722 27.2646 66.0778 27.2646C63.4484 27.2646 61.8767 29.1488 61.8767 31.554C61.8767 34.1787 63.6744 35.8269 66.0778 35.8269C67.8198 35.8269 68.8741 35.1158 69.0608 34.9815L68.3371 33.5528C68.1767 33.6544 67.4334 34.1361 66.3921 34.1361L66.3954 34.1426Z" fill="#FF7A00"/>
<path d="M43.5226 27.2715C41.5252 27.2715 39.8389 28.8968 39.8389 31.5608C39.8389 34.2248 41.4728 35.8337 43.9155 35.8337C45.8572 35.8337 46.8625 34.985 46.9836 34.9064C46.9836 34.9064 46.7937 34.5984 46.7413 34.5132C46.4695 34.0675 46.1585 33.9234 45.8147 33.9234C45.127 33.9234 45.0386 34.2084 44.1087 34.2084C42.5108 34.2084 41.9574 32.96 41.9181 32.1277H47.2685V31.5084C47.2685 28.9558 45.7983 27.2715 43.5226 27.2715ZM41.9148 30.6466C41.9148 29.7094 42.573 28.8411 43.4931 28.8411C44.5245 28.8411 45.091 29.7356 45.1074 30.6466H41.9148Z" fill="#FF7A00"/>
<path d="M50.8473 33.3461V24.8101C50.8473 23.8467 50.2055 23.0996 49.2068 23.0996H48.7615V34.1817C48.7615 35.2008 49.3934 35.8365 50.4904 35.8365C51.8427 35.8365 52.2487 34.8731 52.2487 33.9654C52.1931 33.9949 51.9049 34.1129 51.6168 34.1129C51.1354 34.1129 50.8473 33.8311 50.8473 33.3461Z" fill="#FF7A00"/>
<path d="M36.9038 33.0531V28.9931H38.6491L39.2548 27.4236H36.9038V24.9692C36.9038 24.9692 36.7172 24.9692 36.7106 24.9692C35.7807 24.9692 34.8213 25.3625 34.8213 27.4039V27.4236H33.2791V28.9931H34.8213V33.774C34.8213 35.1273 35.6203 35.8318 36.7565 35.8318C37.6733 35.8318 38.8586 35.5533 38.8586 33.7346C38.7866 33.7772 38.3413 34.0656 37.8534 34.0656C37.1756 34.0656 36.9071 33.6527 36.9071 33.0531H36.9038Z" fill="#FF7A00"/>
<path d="M56.6146 27.2715C54.6172 27.2715 52.9309 28.8968 52.9309 31.5608C52.9309 34.2248 54.5648 35.8337 57.0075 35.8337C58.9493 35.8337 59.9545 34.985 60.0757 34.9064C60.0757 34.9064 59.8858 34.5984 59.8334 34.5132C59.5616 34.0675 59.2505 33.9234 58.9067 33.9234C58.2191 33.9234 58.1307 34.2084 57.2007 34.2084C55.6028 34.2084 55.0494 32.96 55.0102 32.1277H60.3605V31.5084C60.3605 28.9558 58.8903 27.2715 56.6146 27.2715ZM55.0036 30.6466C55.0036 29.7094 55.6618 28.8411 56.5819 28.8411C57.6133 28.8411 58.1798 29.7356 58.1962 30.6466H55.0036Z" fill="#FF7A00"/>
<path d="M73.84 35.8297C71.2859 35.8297 69.7502 34.1421 69.7502 31.5502C69.7502 28.9583 71.2663 27.2642 73.84 27.2642C76.4137 27.2642 77.933 28.9681 77.933 31.5502C77.933 33.9914 76.5348 35.8297 73.84 35.8297ZM73.84 34.2241C75.1203 34.2241 75.857 33.1231 75.857 31.5535C75.857 29.9839 75.1366 28.8731 73.84 28.8731C72.5433 28.8731 71.8262 29.9642 71.8262 31.5535C71.8262 33.1427 72.5466 34.2241 73.84 34.2241Z" fill="#FF7A00"/>
<path d="M6.66015 26.516C5.3995 25.9262 4.36806 25.4511 4.36806 24.4877C4.36806 23.7504 4.95746 23.2163 6.11987 23.2163C6.54882 23.2163 6.89591 23.2655 7.25937 23.3343C7.44928 23.3671 7.64902 23.3933 7.81601 23.3933C8.83108 23.3933 9.4041 22.7871 9.78721 21.6369L9.94438 21.1683C9.78066 21.1028 8.12381 20.3721 5.95942 20.3721C2.51802 20.3721 0.700724 22.5806 0.700724 24.8711C0.700724 26.0278 1.06091 26.8634 1.62738 27.5253C2.35757 28.374 3.39556 28.931 4.37134 29.4029C5.78916 30.0976 7.06945 30.612 7.06945 31.6475C7.06945 32.5617 6.12315 33.0827 4.85922 33.0827C3.12706 33.0827 1.61428 32.0931 1.42109 31.9719L0 34.6392C0.252129 34.7834 2.0858 35.9466 5.09826 35.9466C8.31045 35.9466 10.7433 34.1018 10.7433 31.2674C10.7433 28.433 8.48727 27.4008 6.66342 26.516H6.66015Z" fill="#EA002C"/>
<path d="M19.2195 27.835L25.0447 20.6851H20.8928L16.2464 26.8552H16.1776V20.6851H12.7559V35.8304H12.9589C14.4389 35.8304 16.2005 35.1455 16.2005 32.6715V29.1949H16.2693L21.0074 35.6403H25.3623L19.2195 27.835Z" fill="#EA002C"/>
<path d="M25.2373 4.47314C24.0323 4.69924 22.2477 5.79369 22.251 7.73027C22.2543 9.48663 23.6918 10.5516 23.695 12.8552C23.7016 14.5886 22.7487 15.7551 21.7173 16.4006C22.1331 16.3646 22.5916 16.3384 23.0925 16.3384C24.1469 16.3384 24.7821 16.4367 24.8214 16.4432L30.2275 9.80775C28.7278 7.55988 26.9727 5.81335 25.2373 4.47314Z" fill="#EA002C"/>
<path d="M29.7848 22.392C30.4659 21.3336 30.551 19.6428 30.61 17.9225C30.6722 16.3168 31.0095 15.111 33.1542 15.1012C33.629 15.1012 34.0809 15.1634 34.9027 15.1634C38.0462 15.1503 40.0992 14.0657 41.373 13.3546C38.7665 11.69 34.9584 9.99265 30.2367 9.79932C29.9289 10.6677 27.5353 17.3261 27.3552 17.8668C27.3814 17.8995 27.8005 18.3681 28.3244 19.2856C29.0972 20.5439 29.5098 21.6121 29.7848 22.392Z" fill="#EA002C"/>
<path d="M18.3809 16.9495C18.1092 16.9495 17.9716 16.7692 17.9356 16.4547C17.8996 16.1434 16.5506 3.76696 16.3475 1.89263C16.3181 1.62066 16.2493 1.11604 16.2493 0.939089C16.246 0.650732 16.436 0.5 16.6553 0.5C17.2971 0.5 20.7876 1.31592 24.491 3.91441C23.4235 4.21588 21.4949 5.32671 21.5015 7.62701C21.508 9.66189 22.9651 10.7826 22.9717 12.824C22.9848 16.1467 19.1668 16.9495 18.3777 16.9495H18.3809Z" fill="#FF7A00"/>
<path d="M30.0969 23.2761C30.1559 23.4301 30.2083 23.5612 30.2639 23.6496C30.3491 23.7938 30.4604 23.8593 30.5979 23.8593C30.683 23.8593 30.7911 23.8299 30.9057 23.7774C31.1906 23.6464 42.4775 18.3871 44.1802 17.604C44.4257 17.486 44.894 17.2763 45.0479 17.1845C45.2083 17.0928 45.2804 16.9617 45.2804 16.8241C45.2804 16.7487 45.2574 16.6734 45.2149 16.6013C45.002 16.2572 43.9117 15.0972 42.0845 13.8291C40.634 14.6286 38.3714 15.864 35.0053 15.8771C34.1801 15.8771 33.9935 15.8214 33.4303 15.8247C31.7865 15.8312 31.3772 16.5325 31.315 17.9742C31.3052 18.2462 31.3019 18.6132 31.2855 19.0163C31.2331 20.304 31.0825 22.0833 30.0969 23.2728V23.2761Z" fill="#FF7A00"/>
</svg>
