<?xml version="1.0" encoding="utf-8"?>
<!-- Generator: Adobe Illustrator 19.0.1, SVG Export Plug-In . SVG Version: 6.00 Build 0)  -->
<svg version="1.1" id="Layer_1" xmlns="http://www.w3.org/2000/svg" xmlns:xlink="http://www.w3.org/1999/xlink" x="0px" y="0px"
	 viewBox="0 0 20 20" style="enable-background:new 0 0 20 20;" xml:space="preserve">
<style type="text/css">
	.st0{fill:none;}
</style>
<g>
	<rect class="st0" width="20" height="20"/>
	<path d="M17.884016,6.0849423c0.3445435,0.5967407,0.1409912,1.3565674-0.4558105,1.7011108L6.0675488,14.4366274
		l-4.0159302-2.5660706l0.9072266-0.5237732c0.1590209-0.0973816,0.3204956-0.0576172,0.3618164-0.0461731l1.864197,0.5155029
		c0.1173825,0.0270386,0.2408199,0.017663,0.3618774-0.0461731l3.4464111-1.9898071L3.8748605,6.954205l1.2707522-0.7336731
		c0.1440568-0.0860705,0.2440572-0.0720081,0.354187-0.0481873l6.5418091,1.6914978
		c0.1181641,0.0150146,0.2562237,0.0214243,0.354187-0.0482178l3.7871094-2.1864929
		C16.1829052,5.6291318,17.1645527,5.0141215,17.884016,6.0849423z M16.8055248,4.2615476
		c-0.4277954,0-0.8505859,0.1135254-1.2226562,0.3283691l-3.5291748,2.0375977L5.8002148,5.010571
		C5.2222528,4.8942542,4.8619409,4.9914813,4.5457592,5.1811948L3.2748239,5.9149899
		C2.900007,6.1313901,2.670759,6.5328794,2.6749094,6.9656796s0.2410278,0.829834,0.6199341,1.039063l3.2578738,1.7987366
		l-1.3419189,0.7747803l-1.5703127-0.4342346c-0.500036-0.1253319-0.9175406-0.0567007-1.2817993,0.1636353l-0.9070435,0.5236511
		c-0.3629761,0.2095337-0.590271,0.5932617-0.5997314,1.0122375c-0.0093994,0.4190063,0.2004395,0.812561,0.5535889,1.038208
		l4.0159302,2.5660706c0.4699736,0.2672291,0.8703203,0.232914,1.2523804,0.0244141l11.3606567-6.6505737
		c0.5599365-0.3232727,0.9648438-0.8505254,1.1337891-1.4810185c0.1688843-0.6304932,0.0819092-1.2895203-0.2449951-1.8557129
		C18.4876537,4.7303586,17.6761913,4.2615476,16.8055248,4.2615476L16.8055248,4.2615476z"/>
</g>
</svg>
