<?xml version="1.0" encoding="utf-8"?>
<!-- Generator: Adobe Illustrator 19.0.1, SVG Export Plug-In . SVG Version: 6.00 Build 0)  -->
<svg version="1.1" id="Layer_1" xmlns="http://www.w3.org/2000/svg" xmlns:xlink="http://www.w3.org/1999/xlink" x="0px" y="0px"
	 viewBox="0 0 20 20" style="enable-background:new 0 0 20 20;" xml:space="preserve">
<style type="text/css">
	.st0{fill:none;}
</style>
<g>
	<rect class="st0" width="20" height="20"/>
	<path d="M10.0000153,1.5c-4.6944585,0-8.5,3.805542-8.5,8.5c0,4.694397,3.805542,8.5,8.5,8.5c4.694397,0,8.5-3.805603,8.5-8.5
		C18.5000153,5.305542,14.6944122,1.5,10.0000153,1.5z M16.6374054,6.9788208h-2.9735718
		c-0.2907715-1.6080322-0.8033447-2.9807129-1.4620361-3.9378052C14.1769562,3.6673584,15.7854156,5.1148682,16.6374054,6.9788208z
		 M17.3000031,10c0,0.8276367-0.1450195,1.6204224-0.3999634,2.3626099h-3.130249
		C13.8726959,11.6123657,13.9304962,10.8210449,13.9304962,10c0-0.7702026-0.0527344-1.5126343-0.1436768-2.2213745h3.1650391
		C17.1764069,8.4796753,17.3000031,9.2254028,17.3000031,10z M10.8932648,17.239563
		c-0.293396,0.0360107-0.590271,0.0604248-0.8932495,0.0604248c-0.322937,0-0.6386719-0.0283813-0.9506226-0.0692139
		c-0.796814-0.6518555-1.5332036-2.0961304-1.9271245-4.0683594h5.7082524
		C12.4349518,15.1430054,11.693985,16.5917358,10.8932648,17.239563z M6.9845729,12.3626099
		C6.8805079,11.630188,6.8222804,10.8389282,6.8222804,10c0-0.786377,0.0535278-1.5279541,0.1456299-2.2213745h6.0169683
		C13.0769806,8.4720459,13.1305084,9.213623,13.1305084,10c0,0.8389282-0.0582275,1.630188-0.1622925,2.3626099H6.9845729z
		 M2.700027,10c0-0.7745972,0.1235962-1.5203247,0.3481445-2.2213745h3.1177979
		C6.075027,8.4873657,6.0222926,9.2297974,6.0222926,10c0,0.8210449,0.0578003,1.6123657,0.1607056,2.3626099H3.0999904
		C2.8450465,11.6204224,2.700027,10.8276367,2.700027,10z M9.0493927,2.7692261
		c0.3119507-0.0408325,0.6276855-0.0692139,0.9506226-0.0692139c0.3029785,0,0.5999146,0.0244141,0.8933105,0.0604248
		c0.8197021,0.663147,1.5769043,2.1654053,1.9649048,4.2183838H7.0945582
		C7.4809108,4.9343262,8.2335358,3.4365845,9.0493927,2.7692261z M7.7368312,3.0635376
		c-0.6517334,0.9561157-1.1592407,2.3191528-1.447876,3.9152832H3.3626246
		C4.2055812,5.1345215,5.7901149,3.7004395,7.7368312,3.0635376z M3.4307399,13.1624146h2.8825073
		c0.2927246,1.5359497,0.7909546,2.8459473,1.423584,3.7740479C5.8404078,16.31604,4.2891994,14.9381714,3.4307399,13.1624146z
		 M12.2017975,16.9589844c0.6395264-0.9293213,1.1427612-2.2488403,1.4377441-3.7965698h2.9297485
		C15.7014313,14.9576416,14.1264191,16.3486328,12.2017975,16.9589844z"/>
</g>
</svg>
