<?xml version="1.0" encoding="utf-8"?>
<!-- Generator: Adobe Illustrator 19.0.1, SVG Export Plug-In . SVG Version: 6.00 Build 0)  -->
<svg version="1.1" id="Layer_1" xmlns="http://www.w3.org/2000/svg" xmlns:xlink="http://www.w3.org/1999/xlink" x="0px" y="0px"
	 viewBox="0 0 20 20" style="enable-background:new 0 0 20 20;" xml:space="preserve">
<style type="text/css">
	.st0{fill:none;}
</style>
<g>
	<path d="M17.3000031,4.0500126v9.5999756H9.3939972l-2.6255498,2.0158081v-2.0158081H2.7000268V4.0500126H17.3000031
		 M17.5000153,2.8500004h-15c-0.552307,0-0.9999999,0.4476929-0.9999999,1v10c0,0.5522461,0.4476929,1,0.9999999,1h3.0684204v3.25
		l4.2330937-3.25h7.6984863c0.5522461,0,1-0.4477539,1-1v-10C18.5000153,3.2976933,18.0522614,2.8500004,17.5000153,2.8500004
		L17.5000153,2.8500004z"/>
	<g>
		<path d="M7.6403713,6.1166401h1.3796816l1.5999374,5.2176104H9.3018026l-0.3091421-1.0323954H7.4821663l-0.2884583,1.0323954
			H6.0270166L7.6403713,6.1166401z M7.7292566,9.3623943h1.0023375l-0.4869127-1.731617H8.2167292L7.7292566,9.3623943z"/>
		<path d="M10.8832932,10.2708769c0-0.8465261,0.5154238-1.1259623,1.2773781-1.2422886l0.6451187-0.1087389V8.7567396
			c0-0.4273729-0.1783295-0.5127211-0.6864862-0.5127211c-0.3572187,0-0.6931944,0.0543699-0.9335766,0.1163263V7.4910593
			c0.3639269-0.1631093,0.8307152-0.2326522,1.3796806-0.2326522c0.8720837,0,1.4076328,0.3180003,1.4076328,1.2264829v2.8493605
			h-0.9682369l-0.0821772-0.3104143H12.888526c-0.1514969,0.2408714-0.4673471,0.3805895-0.906743,0.3805895
			C11.3366642,11.4044256,10.8832932,11.0390091,10.8832932,10.2708769z M12.8057899,10.4105949V9.634244l-0.4120035,0.0461512
			c-0.2744827,0.0309782-0.3913193,0.1555223-0.3913193,0.4507637c0,0.3413925,0.1582041,0.4425459,0.377903,0.4425459
			C12.5654078,10.5737047,12.7303209,10.5035295,12.8057899,10.4105949z"/>
	</g>
	<rect x="0.0000148" class="st0" width="20" height="20"/>
</g>
</svg>
