<?xml version="1.0" encoding="utf-8"?>
<!-- Generator: Adobe Illustrator 19.0.1, SVG Export Plug-In . SVG Version: 6.00 Build 0)  -->
<svg version="1.1" id="Layer_1" xmlns="http://www.w3.org/2000/svg" xmlns:xlink="http://www.w3.org/1999/xlink" x="0px" y="0px"
	 viewBox="0 0 20 20" style="enable-background:new 0 0 20 20;" xml:space="preserve">
<style type="text/css">
	.st0{fill:none;}
</style>
<g>
	<rect x="0.0000148" class="st0" width="20" height="20"/>
	<g>
		<path d="M17.3000031,5.1999969v9.6000061H2.700027V5.1999969H17.3000031 M17.4100494,4H2.6000514
			C2.0000148,4,1.5000149,4.5061722,1.5000149,5.1314316v9.7371368C1.5000149,15.4938278,2.0000148,16,2.6000514,16h14.8099976
			c0.5999756,0,1.0899658-0.5061722,1.0899658-1.1314316V5.1314316C18.5000153,4.5061722,18.010025,4,17.4100494,4L17.4100494,4z"/>
		<path d="M12.1966248,9.4711609c0.0045776,0.2276001-0.0552368,0.390625-0.0881958,0.4712524l-1.2953491,0.4611816
			c-0.3033447,0.1104736-0.4194946,0.4696045-0.4194946,0.8843994v1.5546265
			c0.1581421,0.1511841,0.3590698,0.2345581,0.5356445,0.2345581c0.4078979,0,0.6200562-0.399231,0.6200562-0.8411865v-1.4009399
			c0-0.3342285,0.0579224-0.4869385,0.0918579-0.5682373c0,0,0.9371338-0.3348389,1.2495728-0.4492188
			c0.3509521-0.1273804,0.4639282-0.5092163,0.4639282-0.8398438c0-0.4071045-0.2348022-1.1599731-0.8649292-1.3694458
			L8.8702087,6.4767761c-0.0463257-0.0158691-0.1161499-0.027832-0.1734009-0.027832
			c-0.0552979,0-0.1164551,0.0106812-0.1659546,0.0283813L7.604949,6.8082581l3.5482187,1.1094971
			C11.7483215,8.1130066,12.1800232,8.6842346,12.1966248,9.4711609z"/>
		<path d="M7.6305227,9.1837463C7.8725882,9.2698669,8.0627136,9.405365,8.2275085,9.6214905
			c0.2186279,0.2883911,0.3603516,0.6761475,0.3603516,1.0100098c0,0.5843506,0.0021973,1.0372314,0.0021973,1.3684082
			c0,0.7059326,0.2438354,1.1645508,0.7058716,1.4608765c0.1122437,0.0716553,0.2997437,0.1408691,0.4893188,0.0744019
			l0.9488525-0.3275146c-0.614563-0.1880493-0.9880371-0.8461304-0.9880371-1.6533203v-1.3045044
			c0-0.3024902-0.0942993-0.65802-0.2809448-0.9414673C9.3251038,9.0956726,9.1637268,8.9454651,8.889679,8.8484192
			c-0.696228-0.2453613-1.0419321-1.1542358-0.9269419-1.746521c0,0-0.1651611-0.0565796-0.3710327-0.1200562
			C7.5313406,6.9642029,7.4681692,6.9504089,7.393218,6.9549866C7.0469046,6.97995,6.7870779,7.3027039,6.7870779,7.8146667
			C6.7870779,8.4109802,7.1642752,9.0167542,7.6305227,9.1837463z"/>
	</g>
</g>
</svg>
