<?xml version="1.0" encoding="utf-8"?>
<!-- Generator: Adobe Illustrator 19.0.1, SVG Export Plug-In . SVG Version: 6.00 Build 0)  -->
<svg version="1.1" id="Layer_1" xmlns="http://www.w3.org/2000/svg" xmlns:xlink="http://www.w3.org/1999/xlink" x="0px" y="0px"
	 viewBox="0 0 20 20" style="enable-background:new 0 0 20 20;" xml:space="preserve">
<style type="text/css">
	.st0{fill:none;}
	.st1{fill:none;stroke:#000000;stroke-width:0.8;stroke-miterlimit:10;}
</style>
<g>
	<rect class="st0" width="20" height="20"/>
	<g>
		<path d="M14.5,1h-9c-0.5523071,0-1,0.4476929-1,1v16c0,0.5522461,0.4476929,1,1,1h9c0.5523071,0,1-0.4477539,1-1V2
			C15.5,1.4476929,15.0523071,1,14.5,1z M14.2999878,17.7999878H5.7000122V2.2000122h8.5999756V17.7999878z"/>
	</g>
	<rect x="8.512085" y="3.447412" width="3" height="0.8"/>
	<g>
		<path class="st1" d="M13.5222902,10.4056187"/>
		<path class="st1" d="M7.4151616,10.4056187"/>
		<path d="M11.7186279,10.0056152h-0.7062378L10.4871826,7.409668H9.6452637l-0.5258789,2.5959473h-0.713562L7.7360229,7.409668
			H7.0511475L6.9178467,7.4440918l0.6610718,2.5615234H7.0125732v0.7998047h0.7727661l0.5024414,1.9467773h1.0910645
			l0.3945923-1.9467773h0.585022l0.3937378,1.9467773h1.0890503l0.4985962-1.9467773h0.7801514v-0.7998047h-0.5752563
			l0.656311-2.5625L13.0702515,7.409668h-0.6867676L11.7186279,10.0056152z M8.805542,11.5549316l-0.1933594-0.7495117h0.3452148
			L8.805542,11.5549316z M9.9355469,10.0056152l0.1307373-0.6450195l0.1304321,0.6450195H9.9355469z M11.3240967,11.5461426
			l-0.1498413-0.7407227h0.3395386L11.3240967,11.5461426z"/>
	</g>
</g>
</svg>
