<?xml version="1.0" encoding="utf-8"?>
<!-- Generator: Adobe Illustrator 19.0.1, SVG Export Plug-In . SVG Version: 6.00 Build 0)  -->
<svg version="1.1" id="Layer_1" xmlns="http://www.w3.org/2000/svg" xmlns:xlink="http://www.w3.org/1999/xlink" x="0px" y="0px"
	 viewBox="0 0 20 20" style="enable-background:new 0 0 20 20;" xml:space="preserve">
<style type="text/css">
	.st0{fill:none;}
</style>
<g>
	<rect class="st0" width="20" height="20"/>
	<g>
		<g>
			<rect x="8.5121002" y="3.447412" width="3" height="0.8"/>
			<path d="M14.3000031,14.8076782v2.9923096H5.7000275V2.2000122h8.5999756v3.0865479h1.2000122V2c0-0.5523071-0.4476929-1-1-1h-9
				c-0.5523071,0-1,0.4476929-1,1v16c0,0.5522461,0.4476929,1,1,1h9c0.5523071,0,1-0.4477539,1-1v-3.1923218H14.3000031z"/>
		</g>
		<polygon points="17.9622955,9.4464111 15.5623312,9.4464111 15.5623312,7.0463867 14.362319,7.0463867 14.362319,9.4464111 
			11.9622946,9.4464111 11.9622946,10.6464233 14.362319,10.6464233 14.362319,13.0463867 15.5623312,13.0463867 
			15.5623312,10.6464233 17.9622955,10.6464233 		"/>
	</g>
</g>
</svg>
