<?xml version="1.0" encoding="utf-8"?>
<!-- Generator: Adobe Illustrator 19.0.1, SVG Export Plug-In . SVG Version: 6.00 Build 0)  -->
<svg version="1.1" id="Layer_1" xmlns="http://www.w3.org/2000/svg" xmlns:xlink="http://www.w3.org/1999/xlink" x="0px" y="0px"
	 viewBox="0 0 20 20" style="enable-background:new 0 0 20 20;" xml:space="preserve">
<style type="text/css">
	.st0{fill:none;}
</style>
<g>
	<rect class="st0" width="20" height="20"/>
	<g>
		<path d="M15.1042023,1.9343262H4.8963161c-0.5500488,0-0.9959106,0.4458618-0.9959106,0.9959106v14.5241089
			c0,0.2260742,0.1269531,0.4326172,0.328125,0.5351562c0.2011719,0.1010742,0.4423828,0.0820312,0.625-0.0507812
			l1.7138672-1.2519531l1.3557129,1.2145996c0.2263188,0.2026978,0.5684819,0.2042847,0.7966313,0.0036621l1.3447266-1.1826172
			l1.2890625,1.1850586c0.1152344,0.1049805,0.2607422,0.1582031,0.40625,0.1582031
			c0.1386719,0,0.2783203-0.0483398,0.390625-0.1450195l1.4287109-1.2265625l1.5478516,1.2299805
			c0.1816406,0.1435547,0.4267578,0.1704102,0.6337891,0.0708008c0.2070312-0.1000977,0.3388672-0.3100586,0.3388672-0.5405273
			V2.9297485C16.0996246,2.3800049,15.6539459,1.9343262,15.1042023,1.9343262z M14.9004059,16.2106934l-0.9628906-0.7646484
			c-0.2265625-0.1796875-0.5449219-0.1738281-0.7636719,0.0146484l-1.4003906,1.2026367l-1.2939453-1.1894531
			c-0.1152344-0.1054688-0.2607422-0.1582031-0.40625-0.1582031c-0.1416016,0-0.2832031,0.0498047-0.3964844,0.1494141
			l-1.3496094,1.1870117l-1.3212895-1.1831055c-0.2109375-0.1894531-0.5253906-0.2050781-0.7548828-0.0375977l-1.1513672,0.8413086
			V3.1345215h9.8007812V16.2106934z"/>
		<rect x="6.5114894" y="5.1022949" width="7.0976562" height="0.7998047"/>
		<rect x="6.5114894" y="7.4328613" width="7.0976562" height="0.7998047"/>
		<rect x="6.5114894" y="9.7648926" width="3.5908203" height="0.7998047"/>
	</g>
</g>
</svg>
