<?xml version="1.0" encoding="utf-8"?>
<!-- Generator: Adobe Illustrator 19.0.1, SVG Export Plug-In . SVG Version: 6.00 Build 0)  -->
<svg version="1.1" id="Layer_1" xmlns="http://www.w3.org/2000/svg" xmlns:xlink="http://www.w3.org/1999/xlink" x="0px" y="0px"
	 viewBox="0 0 20 20" style="enable-background:new 0 0 20 20;" xml:space="preserve">
<style type="text/css">
	.st0{fill:none;}
</style>
<g>
	<g>
		<rect x="0.0000148" class="st0" width="20" height="20"/>
	</g>
	<g>
		<path d="M5.60256,15.5733366l-5.3525453-3.4197083l1.5989616-0.9235458
			c0.2155581-0.1255026,0.4751856-0.158555,0.7156525-0.0914927l2.1383359,0.5906286
			c0.038321,0.0110178,0.0795169,0.00527,0.114006-0.01437l3.3512087-1.9347534L2.298295,6.5390606l2.0588188-1.1889219
			c0.2107677-0.1207128,0.4646473-0.1566391,0.701282-0.0958037l7.5033355,1.9405012
			c0.0354471,0.0071855,0.0776005,0.0047903,0.1111317-0.0153284l4.3437347-2.5076585
			c0.422493-0.2442989,0.9149227-0.3075294,1.3824444-0.1829848c0.4694386,0.1255026,0.8622322,0.4272838,1.1055737,0.8492985
			c0.2433414,0.421536,0.3084869,0.9120502,0.1829853,1.3814874c-0.126461,0.4689589-0.4272842,0.8612742-0.8488197,1.1046152
			L5.60256,15.5733366z"/>
	</g>
</g>
</svg>
