<?xml version="1.0" encoding="utf-8"?>
<!-- Generator: Adobe Illustrator 19.0.1, SVG Export Plug-In . SVG Version: 6.00 Build 0)  -->
<svg version="1.1" id="Layer_1" xmlns="http://www.w3.org/2000/svg" xmlns:xlink="http://www.w3.org/1999/xlink" x="0px" y="0px"
	 viewBox="0 0 20 20" style="enable-background:new 0 0 20 20;" xml:space="preserve">
<style type="text/css">
	.st0{fill:none;}
</style>
<g>
	<rect x="0.0000148" class="st0" width="20" height="20"/>
	<g>
		<path d="M13.9000425,9.999979c0-0.7352295-0.0547485-1.4855957-0.1563721-2.2213745H6.2563658
			C6.1547422,8.5143833,6.0999937,9.2647495,6.0999937,9.999979c0,0.7825317,0.0623169,1.5817261,0.177002,2.3626099h7.4460449
			C13.8377256,11.5817051,13.9000425,10.7825108,13.9000425,9.999979z"/>
		<path d="M14.4414244,6.9787998h3.4958487c-0.961731-2.5244141-3.0870962-4.4672852-5.7247305-5.1777344
			C13.2490416,2.9017124,14.053668,4.7470493,14.4414244,6.9787998z"/>
		<path d="M13.614337,6.9787998c-0.5578613-2.9572144-1.8900146-5.4788208-3.6143188-5.4788208
			S6.9435606,4.0215855,6.3856993,6.9787998H13.614337z"/>
		<path d="M6.4156675,13.1623936c0.5733643,2.8952026,1.8878174,5.3375854,3.5843506,5.3375854
			s3.0109863-2.4423828,3.5843506-5.3375854H6.4156675z"/>
		<path d="M5.5847349,13.1623936H2.1144588c0.9863892,2.4570923,3.0853884,4.3401489,5.6750488,5.0369873
			C6.7746153,17.1221104,5.9817686,15.331461,5.5847349,13.1623936z"/>
		<path d="M14.4153013,13.1623936c-0.3970337,2.1690674-1.1898804,3.9597168-2.2047729,5.0369873
			c2.5896606-0.6968384,4.6886587-2.5799561,5.6750479-5.0369873H14.4153013z"/>
		<path d="M5.5586119,6.9787998c0.3877563-2.2317505,1.1923218-4.0770874,2.2288818-5.1777344
			C5.1497984,2.5115147,3.0244319,4.4543858,2.062762,6.9787998H5.5586119z"/>
		<path d="M14.5594664,7.7786045c0.088501,0.7130737,0.140564,1.4543457,0.140564,2.2213745
			c0,0.8179321-0.0587158,1.6068726-0.1589355,2.3626099h3.6192007c0.217041-0.7508545,0.3397217-1.5418701,0.3397217-2.3626099
			c0-0.7698975-0.1115723-1.512146-0.3034058-2.2213745H14.5594664z"/>
		<path d="M5.4589415,12.3625889c-0.1002197-0.7557373-0.1589355-1.5446777-0.1589355-2.3626099
			c0-0.7670288,0.052063-1.5083008,0.140564-2.2213745h-3.637146C1.6115903,8.487833,1.500018,9.2300816,1.500018,9.999979
			c0,0.8207397,0.1226807,1.6117554,0.3397217,2.3626099H5.4589415z"/>
	</g>
</g>
</svg>
