<?xml version="1.0" encoding="utf-8"?>
<!-- Generator: Adobe Illustrator 19.0.1, SVG Export Plug-In . SVG Version: 6.00 Build 0)  -->
<svg version="1.1" id="Layer_1" xmlns="http://www.w3.org/2000/svg" xmlns:xlink="http://www.w3.org/1999/xlink" x="0px" y="0px"
	 viewBox="0 0 20 20" style="enable-background:new 0 0 20 20;" xml:space="preserve">
<style type="text/css">
	.st0{fill:none;}
</style>
<g>
	<rect class="st0" width="20" height="20"/>
	<g>
		<path d="M17.5,2.8499737h-15c-0.5523071,0-1,0.4476929-1,1v10c0,0.5522461,0.4476929,1,1,1h3.0684204v3.25l4.2330933-3.25H17.5
			c0.5522461,0,1-0.4477539,1-1v-10C18.5,3.2976665,18.0522461,2.8499737,17.5,2.8499737z M9.3017578,11.3342266
			l-0.309082-1.0324097h-1.510498l-0.2885132,1.0324097h-1.166687l1.6134033-5.2175903h1.3796387l1.5999756,5.2175903H9.3017578z
			 M13.9730225,11.3342266h-0.9682617l-0.0821533-0.3104248h-0.0341187
			c-0.1514893,0.2409058-0.4673462,0.3806152-0.9067383,0.3806152c-0.6450806,0-1.0984497-0.3654175-1.0984497-1.1335449
			c0-0.8465576,0.5153809-1.1259766,1.2773438-1.2423096l0.6451416-0.1087036V8.756712
			c0-0.4273682-0.1783447-0.5126953-0.6865234-0.5126953c-0.3571777,0-0.6931763,0.0543823-0.9335327,0.116333V7.4910259
			c0.3638916-0.1630859,0.8306885-0.232605,1.3796387-0.232605c0.8721313,0,1.4076538,0.3179932,1.4076538,1.2264404V11.3342266z"/>
		<path d="M12.0024414,10.1311626c0,0.3413696,0.1582031,0.4425049,0.3779297,0.4425049
			c0.1849976,0,0.3499146-0.0701294,0.425415-0.1630859V9.6342144L12.3937988,9.680357
			C12.1192627,9.7113628,12.0024414,9.8358746,12.0024414,10.1311626z"/>
		<polygon points="8.2167358,7.6307354 7.729248,9.3623638 8.7315674,9.3623638 8.2446899,7.6307354 		"/>
	</g>
</g>
</svg>
