<?xml version="1.0" encoding="utf-8"?>
<!-- Generator: Adobe Illustrator 19.0.1, SVG Export Plug-In . SVG Version: 6.00 Build 0)  -->
<svg version="1.1" id="Layer_1" xmlns="http://www.w3.org/2000/svg" xmlns:xlink="http://www.w3.org/1999/xlink" x="0px" y="0px"
	 viewBox="0 0 20 20" style="enable-background:new 0 0 20 20;" xml:space="preserve">
<style type="text/css">
	.st0{fill:none;}
</style>
<g>
	<rect x="0.0000148" class="st0" width="20" height="20"/>
	<path d="M17.4100494,3.9544678H2.6000514c-0.6000366,0-1.1000365,0.5100098-1.1000365,1.1400146v9.8109741
		c0,0.6300049,0.4999999,1.1400146,1.1000365,1.1400146h14.8099976c0.5999756,0,1.0899658-0.5100098,1.0899658-1.1400146V5.0944824
		C18.5000153,4.4644775,18.010025,3.9544678,17.4100494,3.9544678z M9.7852325,13.5351562
		c-0.1895752,0.0664673-0.3770752-0.0027466-0.4893188-0.0744019c-0.4620361-0.2963257-0.7058716-0.7549438-0.7058716-1.4608765
		c0-0.3311768-0.0021973-0.7840576-0.0021973-1.3684082c0-0.3338623-0.1417236-0.7216187-0.3603516-1.0100098
		C8.0626984,9.4053345,7.8725734,9.2698364,7.6305079,9.1837158C7.1642604,9.0167236,6.7870631,8.4109497,6.7870631,7.8146362
		c0-0.5119629,0.2598267-0.8347168,0.6061401-0.8596802c0.0749512-0.0045776,0.1381226,0.0092163,0.1984863,0.0268555
		c0.2058716,0.0634766,0.3710327,0.1200562,0.3710327,0.1200562c-0.1149902,0.5922852,0.2307134,1.5011597,0.9269414,1.746521
		c0.2740479,0.0970459,0.4354248,0.2472534,0.5754395,0.4599609C9.6517487,9.5917969,9.746048,9.9473267,9.746048,10.2498169
		v1.3045044c0,0.8071899,0.3734741,1.465271,0.9880371,1.6533203L9.7852325,13.5351562z M12.8907013,9.8175659
		c-0.312439,0.1143799-1.2495728,0.4492188-1.2495728,0.4492188c-0.0339355,0.0812988-0.0918579,0.2340088-0.0918579,0.5682373
		v1.4009399c0,0.4419556-0.2121582,0.8411865-0.6200562,0.8411865c-0.1765747,0-0.3775024-0.083374-0.5356445-0.2345581v-1.5546265
		c0-0.4147949,0.1161499-0.7739258,0.4194946-0.8843994l1.2953491-0.4611816
		c0.032959-0.0806274,0.0927734-0.2436523,0.0881958-0.4712524c-0.0166016-0.7869263-0.4483032-1.3581543-1.043457-1.5534058
		L7.6049342,6.8082275L8.530838,6.4772949c0.0494995-0.0177002,0.1106567-0.0283813,0.1659546-0.0283813
		c0.057251,0,0.1270752,0.0119629,0.1734009,0.027832l3.6195068,1.1315308
		c0.630127,0.2094727,0.8649292,0.9623413,0.8649292,1.3694458C13.3546295,9.3083496,13.2416534,9.6901855,12.8907013,9.8175659z"/>
</g>
</svg>
