<?xml version="1.0" encoding="utf-8"?>
<!-- Generator: Adobe Illustrator 19.0.1, SVG Export Plug-In . SVG Version: 6.00 Build 0)  -->
<svg version="1.1" id="Layer_1" xmlns="http://www.w3.org/2000/svg" xmlns:xlink="http://www.w3.org/1999/xlink" x="0px" y="0px"
	 viewBox="0 0 20 20" style="enable-background:new 0 0 20 20;" xml:space="preserve">
<style type="text/css">
	.st0{fill:none;}
</style>
<g>
	<g>
		<rect x="0.0000148" class="st0" width="20" height="20"/>
	</g>
	<g>
		<rect x="8.2761383" y="3.4473872" class="st0" width="3.5" height="0.7999878"/>
		<g>
			<path d="M13.5623322,11.4720459h-2.4000244V8.6719971h2.4000244V6.2719722h1.9517212V1.9999995c0-0.5523071-0.4476929-1-1-1h-9
				c-0.5523071,0-1,0.4476929-1,1v16c0,0.5522461,0.4476929,1,1,1h9c0.5523071,0,1-0.4477539,1-1v-4.1280518h-1.9517212V11.4720459z
				 M8.2761383,3.4473872h3.5V4.247375h-3.5V3.4473872z"/>
			<polygon points="15.5623322,9.4719849 15.5623322,7.07196 14.3623199,7.07196 14.3623199,9.4719849 11.9622955,9.4719849 
				11.9622955,10.6719971 14.3623199,10.6719971 14.3623199,13.0719604 15.5623322,13.0719604 15.5623322,10.6719971 
				17.9622955,10.6719971 17.9622955,9.4719849 			"/>
		</g>
	</g>
</g>
</svg>
