<?xml version="1.0" encoding="utf-8"?>
<!-- Generator: Adobe Illustrator 19.0.1, SVG Export Plug-In . SVG Version: 6.00 Build 0)  -->
<svg version="1.1" id="Layer_1" xmlns="http://www.w3.org/2000/svg" xmlns:xlink="http://www.w3.org/1999/xlink" x="0px" y="0px"
	 viewBox="0 0 20 20" style="enable-background:new 0 0 20 20;" xml:space="preserve">
<style type="text/css">
	.st0{fill:none;}
</style>
<g>
	<g>
		<rect x="0.0000148" class="st0" width="20" height="20"/>
	</g>
	<g>
		<rect x="8.262085" y="3.4473896" class="st0" width="3.5" height="0.7999878"/>
		<polygon points="18.7817383,6.034914 17.934082,5.1862812 15.5,7.6201801 15.5,9.3168964 		"/>
		<path d="M12.3237305,12.4934101L9.5561523,9.7253437l0.8496094-0.8486328l1.9179688,1.9194336L15.5,7.6201801V2.0000019
			c0-0.5523071-0.4476929-1-1-1h-9c-0.5523071,0-1,0.4476929-1,1v16c0,0.5522461,0.4476929,1,1,1h9c0.5523071,0,1-0.4477539,1-1
			V9.3168964L12.3237305,12.4934101z M8.262085,3.4473896h3.5v0.7999878h-3.5V3.4473896z"/>
	</g>
</g>
</svg>
