<?xml version="1.0" encoding="utf-8"?>
<!-- Generator: Adobe Illustrator 19.0.1, SVG Export Plug-In . SVG Version: 6.00 Build 0)  -->
<svg version="1.1" id="Layer_1" xmlns="http://www.w3.org/2000/svg" xmlns:xlink="http://www.w3.org/1999/xlink" x="0px" y="0px"
	 viewBox="0 0 20 20" style="enable-background:new 0 0 20 20;" xml:space="preserve">
<style type="text/css">
	.st0{fill:none;}
</style>
<g>
	<g>
		<rect x="0.0000148" class="st0" width="20" height="20"/>
	</g>
	<g>
		<polygon points="9.9404907,11.2911377 10.2016602,11.2911377 10.071228,10.6461182 		"/>
		<polygon points="8.8104858,12.8404541 8.9623413,12.0909424 8.6171265,12.0909424 		"/>
		<polygon points="11.3290405,12.831665 11.5187378,12.0909424 11.1791992,12.0909424 		"/>
		<path d="M14.5,1h-9c-0.5523071,0-1,0.4476929-1,1v16c0,0.5522461,0.4476929,1,1,1h9c0.5523071,0,1-0.4477539,1-1V2
			C15.5,1.4476929,15.0523071,1,14.5,1z M8.262085,3.4473877h3.5v0.7999878h-3.5V3.4473877z M13.124939,11.2911377v0.7998047
			h-0.7801514l-0.4985962,1.9467773h-1.0890503l-0.3937378-1.9467773h-0.585022l-0.3945923,1.9467773H8.2927246
			l-0.5024414-1.9467773H7.0175171v-0.7998047h0.5663452L6.9227905,8.7296143l0.1333008-0.0344238h0.6848755l0.6697998,2.5959473
			h0.713562l0.5258789-2.5959473h0.8419189l0.5252075,2.5959473h0.7062378l0.664856-2.5959473h0.6867676l0.1307983,0.0334473
			l-0.656311,2.5625H13.124939z"/>
	</g>
</g>
</svg>
